<svg width="472" height="375" viewBox="0 0 472 375" fill="none" xmlns="http://www.w3.org/2000/svg">
<g filter="url(#filter0_d)">
<path d="M25 246.186H447V331.655C447 340.13 440.145 347 431.688 347H40.312C31.8554 347 25 340.13 25 331.655V246.186Z" fill="#A7001E"/>
<path d="M25 37.3447C25 28.87 31.8554 22 40.312 22H431.688C440.145 22 447 28.87 447 37.3446V246.185H25V37.3447Z" fill="#1E0F1C"/>
<path d="M80.2011 320.331C76.812 320.331 73.7088 319.88 70.8913 318.98C68.1148 318.08 65.7057 316.73 63.6641 314.929L65.9302 310.264C68.0535 311.983 70.2585 313.231 72.5451 314.009C74.8316 314.786 77.4041 315.175 80.2623 315.175C83.5289 315.175 86.0605 314.561 87.8571 313.333C89.6537 312.106 90.552 310.367 90.552 308.116C90.552 306.234 89.715 304.822 88.0408 303.881C86.3667 302.899 83.7126 301.999 80.0786 301.18C76.6078 300.444 73.77 299.605 71.5651 298.664C69.3601 297.682 67.6248 296.393 66.359 294.797C65.0932 293.16 64.4603 291.073 64.4603 288.536C64.4603 285.999 65.134 283.769 66.4815 281.846C67.8289 279.882 69.7276 278.368 72.1776 277.304C74.6683 276.199 77.5266 275.647 80.7523 275.647C83.8147 275.647 86.673 276.118 89.3271 277.059C92.022 278 94.2677 279.33 96.0644 281.048L93.7982 285.713C91.7974 284.035 89.7354 282.808 87.6121 282.03C85.4888 281.212 83.2227 280.803 80.8136 280.803C77.6695 280.803 75.1991 281.478 73.4025 282.828C71.6059 284.138 70.7076 285.938 70.7076 288.23C70.7076 290.194 71.4834 291.687 73.035 292.71C74.6275 293.733 77.1591 294.654 80.6298 295.472C84.2639 296.291 87.2038 297.15 89.4495 298.05C91.6953 298.95 93.4919 300.178 94.8394 301.733C96.1869 303.288 96.8606 305.293 96.8606 307.748C96.8606 310.285 96.1869 312.495 94.8394 314.377C93.4919 316.259 91.5524 317.732 89.0208 318.796C86.5301 319.819 83.5901 320.331 80.2011 320.331Z" fill="white"/>
<path d="M123.431 320.331C119.307 320.331 115.714 319.43 112.651 317.63C109.63 315.789 107.282 313.19 105.608 309.835C103.974 306.479 103.158 302.531 103.158 297.989C103.158 293.406 103.974 289.437 105.608 286.081C107.241 282.726 109.589 280.148 112.651 278.348C115.714 276.547 119.307 275.647 123.431 275.647C127.596 275.647 131.189 276.547 134.21 278.348C137.273 280.148 139.621 282.726 141.254 286.081C142.887 289.437 143.704 293.385 143.704 297.927C143.704 302.51 142.887 306.479 141.254 309.835C139.621 313.19 137.273 315.789 134.21 317.63C131.148 319.43 127.555 320.331 123.431 320.331ZM123.431 315.175C127.8 315.175 131.189 313.681 133.598 310.694C136.048 307.707 137.273 303.451 137.273 297.927C137.273 292.444 136.048 288.23 133.598 285.283C131.189 282.296 127.8 280.803 123.431 280.803C119.062 280.803 115.673 282.296 113.264 285.283C110.855 288.23 109.65 292.444 109.65 297.927C109.65 303.451 110.855 307.707 113.264 310.694C115.714 313.681 119.103 315.175 123.431 315.175Z" fill="white"/>
<path d="M152.419 276.138H158.728V314.561H179.92V319.84H152.419V276.138Z" fill="white"/>
<path d="M201.935 320.331C196.137 320.331 191.727 318.817 188.705 315.789C185.724 312.761 184.234 308.321 184.234 302.469V276.138H190.42V302.899C190.42 306.95 191.38 310.019 193.299 312.106C195.259 314.152 198.137 315.175 201.935 315.175C205.691 315.175 208.529 314.131 210.448 312.044C212.408 309.958 213.388 306.909 213.388 302.899V276.138H219.635V302.469C219.635 308.321 218.125 312.761 215.103 315.789C212.122 318.817 207.733 320.331 201.935 320.331Z" fill="white"/>
<path d="M239.93 281.417H225.169V276.138H261.061V281.417H246.3V319.84H239.93V281.417Z" fill="white"/>
<path d="M266.901 276.138H273.209V319.84H266.901V276.138Z" fill="white"/>
<path d="M302.091 320.331C297.967 320.331 294.374 319.43 291.312 317.63C288.29 315.789 285.942 313.19 284.268 309.835C282.635 306.479 281.818 302.531 281.818 297.989C281.818 293.406 282.635 289.437 284.268 286.081C285.901 282.726 288.249 280.148 291.312 278.348C294.374 276.547 297.967 275.647 302.091 275.647C306.256 275.647 309.849 276.547 312.871 278.348C315.933 280.148 318.281 282.726 319.915 286.081C321.548 289.437 322.364 293.385 322.364 297.927C322.364 302.51 321.548 306.479 319.915 309.835C318.281 313.19 315.933 315.789 312.871 317.63C309.809 319.43 306.215 320.331 302.091 320.331ZM302.091 315.175C306.46 315.175 309.849 313.681 312.258 310.694C314.708 307.707 315.933 303.451 315.933 297.927C315.933 292.444 314.708 288.23 312.258 285.283C309.849 282.296 306.46 280.803 302.091 280.803C297.722 280.803 294.333 282.296 291.924 285.283C289.515 288.23 288.31 292.444 288.31 297.927C288.31 303.451 289.515 307.707 291.924 310.694C294.374 313.681 297.763 315.175 302.091 315.175Z" fill="white"/>
<path d="M366.849 276.138V319.84H362.01L337.021 286.818V319.84H331.08V276.138H335.857L360.908 309.221V276.138H366.849Z" fill="white"/>
<path d="M391.287 320.331C387.898 320.331 384.795 319.88 381.977 318.98C379.201 318.08 376.791 316.73 374.75 314.929L377.016 310.264C379.139 311.983 381.344 313.231 383.631 314.009C385.917 314.786 388.49 315.175 391.348 315.175C394.615 315.175 397.146 314.561 398.943 313.333C400.739 312.106 401.638 310.367 401.638 308.116C401.638 306.234 400.801 304.822 399.127 303.881C397.453 302.899 394.798 301.999 391.164 301.18C387.694 300.444 384.856 299.605 382.651 298.664C380.446 297.682 378.711 296.393 377.445 294.797C376.179 293.16 375.546 291.073 375.546 288.536C375.546 285.999 376.22 283.769 377.567 281.846C378.915 279.882 380.813 278.368 383.263 277.304C385.754 276.199 388.612 275.647 391.838 275.647C394.901 275.647 397.759 276.118 400.413 277.059C403.108 278 405.354 279.33 407.15 281.048L404.884 285.713C402.883 284.035 400.821 282.808 398.698 282.03C396.575 281.212 394.308 280.803 391.899 280.803C388.755 280.803 386.285 281.478 384.488 282.828C382.692 284.138 381.793 285.938 381.793 288.23C381.793 290.194 382.569 291.687 384.121 292.71C385.713 293.733 388.245 294.654 391.716 295.472C395.35 296.291 398.29 297.15 400.535 298.05C402.781 298.95 404.578 300.178 405.925 301.733C407.273 303.288 407.946 305.293 407.946 307.748C407.946 310.285 407.273 312.495 405.925 314.377C404.578 316.259 402.638 317.732 400.107 318.796C397.616 319.819 394.676 320.331 391.287 320.331Z" fill="white"/>
</g>
<path d="M192.333 47.5713L192.017 47.9889C188.992 49.0411 187.408 52.6431 187.265 58.8007L186.214 116.001C186.073 122.576 186.986 126.323 188.959 127.231C189.521 127.442 190.296 127.893 191.278 128.595H168.173L168.282 127.86C169.281 127.788 170 127.576 170.429 127.231C172.144 125.9 173.221 123.523 173.649 120.093C173.865 117.293 174.044 114.531 174.184 111.803C174.354 110.896 174.494 109.526 174.609 107.711L175.032 74.1283C174.469 74.1283 173.168 74.0839 171.125 74.0224H165.218C158.043 74.0224 154 74.7517 153.088 76.2215C153.437 74.1283 154.632 71.5005 156.675 68.3545C158.5 68.9779 163.707 69.2955 172.29 69.2955C174.469 69.2955 175.558 67.5028 175.558 63.9008V61.5847C175.488 60.5993 175.454 59.931 175.454 59.5802C175.454 56.1953 174.995 53.946 174.08 52.8217C165.075 53.0943 157.411 58.7007 151.081 69.6297C145.596 79.2337 142.854 88.8934 142.854 98.6359C142.854 110.334 146.791 122.103 154.669 133.94C154.669 134.012 154.915 134.641 155.405 135.838C151.887 133.528 148.163 129.642 144.225 124.186C140.496 118.935 137.93 114.186 136.522 109.916C136.099 108.724 135.556 105.785 134.886 101.097C134.219 96.4091 133.886 93.3305 133.886 91.8608C133.886 84.1665 134.764 77.7971 136.522 72.7644C136.947 71.4277 138.951 67.792 142.536 61.8461C145.91 56.106 147.601 53.1334 147.601 52.9216C147.601 50.405 145.95 48.9021 142.642 48.4118L142.536 47.5713H192.333Z" fill="white"/>
<path d="M281.31 47.5695C280.043 48.2041 279.2 48.6885 278.778 49.0393C277.86 49.7348 277.303 50.47 277.087 51.2436C276.103 55.2969 275.616 58.5209 275.616 60.898L275.297 122.402C275.227 123.727 275.719 125.008 276.774 126.227C277.826 127.457 278.987 128.348 280.255 128.905H257.253C257.253 128.905 257.992 128.454 259.473 127.546C261.51 126.21 262.567 123.521 262.638 119.462C263.197 81.8876 263.477 63.8375 263.477 65.3073C263.477 60.4082 263.02 55.9593 262.108 51.9735C261.896 51.1383 261.297 50.3363 260.312 49.5627C258.765 48.3041 257.959 47.6363 257.888 47.5695H281.31Z" fill="white"/>
<path d="M340.853 48.7276C337.336 49.3569 335.578 51.2443 335.578 54.3902V94.275C335.578 101.546 334.42 108.55 332.097 115.265C329.425 123.104 325.63 129.016 320.706 132.997C326.965 123.288 330.097 113.16 330.097 102.61C330.097 94.2254 327.105 86.2969 321.126 78.8203C315.571 71.766 308.674 66.5606 300.449 63.2035C298.2 62.2956 297.144 61.8449 297.282 61.8449C296.16 61.8449 295.594 64.6058 295.594 70.1235C295.524 73.8929 295.418 81.4754 295.28 92.8615C295.208 102.365 295.172 109.976 295.172 115.705C295.172 120.036 295.631 123.176 296.544 125.136C296.828 125.626 297.475 126.149 298.499 126.706C299.517 127.268 300.063 127.72 300.133 128.07H285.677C285.82 127.859 286.555 127.402 287.893 126.706C289.015 126.076 289.69 125.414 289.897 124.713C290.532 122.758 290.882 118.533 290.954 112.03V98.6181L291.481 61.9283C291.481 60.4586 290.599 59.4454 288.842 58.8829C287.649 58.4707 286.17 58.3317 284.412 58.4707C290.392 50.153 294.117 45.9998 295.594 45.9998C295.524 45.9998 296.229 46.3115 297.707 46.9349C311.281 52.5082 322.044 60.6644 329.987 71.3987H331.046V56.5946C331.046 54.3565 330.746 52.7637 330.15 51.8174C329.551 50.8764 328.337 49.8413 326.506 48.7276L326.719 47.8818H340.325L340.853 48.7276Z" fill="white"/>
<path fill-rule="evenodd" clip-rule="evenodd" d="M123.043 134.978C131.55 108.204 117.427 91.8632 107.014 84.331C100.696 79.7431 96.079 77.4607 93.1604 77.4607C96.2865 73.7913 101.113 70.3786 107.639 67.2108C109.024 66.504 109.998 65.9746 110.549 65.6239C111.875 64.8443 112.6 64.1097 112.74 63.4024L113.991 58.3306C111.488 54.734 110.173 52.8632 110.031 52.7242C108.78 51.672 106.422 51.1373 102.951 51.1373C95.8691 51.1373 91.2519 53.57 89.1026 58.4418C87.3654 62.3951 86.4617 65.8191 86.3969 68.7083L85.6638 111.678C85.5271 120.002 86.011 124.979 87.1216 126.599C87.4016 126.956 88.6859 127.729 90.9778 128.926L69.6272 129.138C70.3883 128.576 71.5357 127.729 73.0637 126.599L73.7938 125.224C73.861 124.662 74.034 123.565 74.314 121.945C74.5239 120.536 74.625 119.439 74.625 118.666L74.5239 60.8804C72.9959 58.9818 71.1552 58.0189 69 58.0189C78.9312 50.1183 89.1704 46.1709 99.7253 46.1709C107.569 46.1709 112.706 46.4938 115.135 47.129C120.201 48.5373 123.883 51.95 126.172 57.3784C126.728 59.277 127.495 61.4985 128.464 64.037L127.426 63.9258C125.203 63.7921 122.01 64.7775 117.841 66.8878C114.715 68.4357 111.595 70.0279 108.473 71.6425L106.805 73.2288C115.205 75.4172 118.339 79.125 123.883 85.071C128.153 89.6536 137.799 122.646 123.043 134.978Z" fill="white"/>
<path fill-rule="evenodd" clip-rule="evenodd" d="M254.369 70.8585C254.011 71.2039 253.185 71.7995 251.898 72.64C250.896 73.2752 250.253 74.0766 249.965 75.0567C249.033 78.0015 248.565 81.8602 248.565 86.6202C248.565 88.1568 248.67 90.5286 248.876 93.713C249.083 96.9033 249.153 99.2301 249.083 100.706C249.083 102.454 248.982 105.605 248.775 110.16C248.638 114.229 248.565 117.414 248.565 119.725C248.565 122.53 248.705 124.423 248.982 125.397C249.604 127.43 250.913 128.621 252.916 128.972V129.813C252.435 130.169 251.535 130.336 250.224 130.336C249.256 130.336 247.81 130.197 245.874 129.918C243.94 129.64 242.491 129.495 241.522 129.495C230.128 129.495 219.802 123.994 210.551 112.999C201.712 102.415 197.293 91.2466 197.293 79.4766C197.293 74.7054 198.468 69.2107 200.816 62.975C203.163 56.7393 204.336 53.4768 204.336 53.2041C204.336 51.2387 202.436 49.4851 198.639 47.9485H200.189H248.258C248.876 47.9485 250.639 47.386 253.541 46.2616C252.503 50.888 249.567 56.5613 244.737 63.292V62.6574C244.737 60.6926 243.976 58.6319 242.454 56.4554C240.937 54.2841 239.244 53.0255 237.378 52.6754C236.552 52.1129 235.931 51.8343 235.514 51.8343H229.406C228.919 51.8343 227.83 52.2182 226.14 52.9871C224.45 53.7607 223.325 54.3563 222.777 54.7798C214.418 60.8706 210.24 69.8732 210.24 81.7875C210.24 90.1944 212.344 98.5677 216.561 106.902C221.187 116.295 227.058 122.18 234.171 124.562H235.721L236.035 124.139C236.379 121.128 236.552 114.19 236.552 103.328C236.552 102.699 236.639 101.697 236.81 100.338C236.983 98.9687 237.07 97.9389 237.07 97.2375V81.086C237.07 79.1265 236.482 77.2332 235.307 75.4015C233.099 74.2156 221.131 74.1435 220.717 74.2103L222.972 70.1239H253.541L254.369 70.8585Z" fill="white"/>
<path fill-rule="evenodd" clip-rule="evenodd" d="M402.839 70.8146C402.483 71.1654 401.66 71.761 400.368 72.6014C399.366 73.2307 398.722 74.0381 398.434 75.0181C397.505 77.963 397.038 81.8163 397.038 86.5763C397.038 88.1236 397.141 90.4847 397.348 93.6744C397.556 96.8594 397.628 99.1862 397.556 100.667C397.556 102.416 397.455 105.567 397.248 110.116C397.11 114.185 397.038 117.37 397.038 119.686C397.038 122.481 397.177 124.379 397.455 125.353C398.076 127.391 399.389 128.583 401.392 128.933V129.775C400.905 130.125 400.012 130.297 398.697 130.297C397.726 130.297 396.28 130.158 394.349 129.88C392.412 129.596 390.963 129.457 389.994 129.457C378.603 129.457 368.274 123.956 359.023 112.955C350.184 102.376 345.765 91.2027 345.765 79.4327C345.765 74.6674 346.938 69.1609 349.285 62.9311C351.636 56.6954 352.809 53.4382 352.809 53.1602C352.809 51.1948 350.909 49.4412 347.114 47.9046H348.664H396.73C397.348 47.9046 399.112 47.3421 402.011 46.2231C400.975 50.8441 398.043 56.5227 393.207 63.2481V62.6194C393.207 60.654 392.446 58.588 390.926 56.4168C389.407 54.2456 387.717 52.9763 385.851 52.6315C385.027 52.069 384.401 51.7958 383.989 51.7958H377.878C377.394 51.7958 376.306 52.1743 374.613 52.9426C372.922 53.7227 371.798 54.3124 371.252 54.7359C362.891 60.8267 358.712 69.8346 358.712 81.7489C358.712 90.1505 360.817 98.5238 365.028 106.859C369.657 116.251 375.53 122.136 382.64 124.518H384.194L384.507 124.101C384.848 121.083 385.027 114.152 385.027 103.29C385.027 102.661 385.109 101.658 385.282 100.289C385.456 98.9307 385.54 97.895 385.54 97.1936V81.0421C385.54 79.0826 384.955 77.1893 383.782 75.3688C381.572 74.1717 369.606 74.1049 369.189 74.1717L371.445 70.08H402.011L402.839 70.8146Z" fill="white"/>
<path d="M183.002 156.782C183.002 164.41 180.046 175.539 174.142 190.165C172.382 194.43 167.462 205.347 159.37 222.902L149.137 189.001C148.574 189.218 148.222 189.463 148.082 189.736C147.027 191.278 145.479 194.43 143.442 199.184C140.694 205.76 139.253 209.156 139.113 209.367C137.776 212.095 135.806 216.221 133.204 221.754C132.786 220.775 131.412 216.327 129.09 208.421C127.123 201.706 124.237 191.629 120.435 178.189C118.82 172.043 117.2 165.88 115.586 159.722C113.266 150.909 111.367 145.208 109.888 142.619C109.468 141.85 108.696 141.115 107.568 140.414C106.231 139.712 105.386 139.156 105.036 138.732H126.977C124.548 140.135 123.334 141.717 123.334 143.47C123.334 144.1 125.609 152.178 130.159 167.695C135.064 184.987 137.762 194.541 138.251 196.35L139.203 197.403C140.188 196.701 141.71 193.901 143.75 189.001C145.863 184.319 146.923 181.346 146.923 180.082C146.923 179.453 145.216 173.262 141.805 161.509C138.394 149.751 136.458 143.47 136.002 142.674C135.546 141.862 134.667 141.127 133.365 140.464C132.065 139.796 131.412 139.256 131.412 138.833C139.995 138.554 144.774 138.415 145.762 138.415C149.489 138.415 152.159 138.526 153.776 138.732C151.039 139.712 149.665 140.87 149.665 142.201C149.665 143.877 152.094 153.096 156.944 169.855C161.796 186.607 164.785 196.283 165.912 198.873H166.122C166.332 198.873 166.508 198.767 166.647 198.555C168.548 195.477 170.552 190.198 172.662 182.705C174.775 175.216 175.829 169.693 175.829 166.124C175.829 160.947 174.808 156.226 172.768 151.961C170.305 146.917 166.861 143.838 162.434 142.724C162.434 142.724 164.645 141.606 169.074 139.362C172.801 137.546 174.808 136.633 175.093 136.633C175.793 136.633 176.817 137.647 178.149 139.673C181.384 144.578 183.002 150.274 183.002 156.782Z" fill="white"/>
<path fill-rule="evenodd" clip-rule="evenodd" d="M307.326 202.753C307.326 204.011 304.197 210.726 297.935 222.902H296.567L297.303 222.484C296.95 221.856 296.284 221.12 295.296 220.28C293.329 219.512 286.364 219.055 274.407 218.916H256.157C260.589 217.446 262.876 213.009 263.012 205.588C263.578 174.175 263.857 158.08 263.857 157.306C263.857 147.512 262.783 142.023 260.637 140.837C259.851 140.481 258.852 139.746 257.634 138.633H281.372C277.706 140.932 275.837 145.069 275.77 151.015L275.042 201.284C274.972 205.76 275.462 209.05 276.511 211.149C277.986 214.022 280.79 215.453 284.928 215.453C289.201 215.453 293.477 214.022 297.753 211.149C301.542 208.627 304.735 205.409 307.326 201.495V202.753Z" fill="white"/>
<path d="M366.803 139.256C366.03 140.932 364.796 143.036 363.109 145.553C360.999 148.704 359.662 150.77 359.099 151.744L358.467 151.643C356.852 145.697 352.593 142.724 345.704 142.724C340.429 142.724 336.805 144.094 334.835 146.839C333.148 149.166 332.306 153.069 332.306 158.559C332.306 159.683 332.759 160.29 333.675 160.351H346.759C347.601 160.351 349.884 160.212 353.615 159.928C352.982 161.96 351.401 164.833 348.868 168.541C348.938 168.051 348.707 167.439 348.18 166.704C347.651 165.968 347.142 165.601 346.652 165.601H333.042C332.482 165.952 332.163 166.965 332.093 168.641L331.67 212.095C331.6 213.911 332.053 215.525 333.042 216.922C334.024 218.32 335.398 218.988 337.155 218.916V219.968H313.84V218.921C316.442 218.358 318.132 216.889 318.905 214.518C319.252 213.259 319.431 210.882 319.431 207.391C319.431 204.178 319.534 199.33 319.75 192.871C319.959 186.407 320.065 181.53 320.065 178.251C320.065 178.251 319.993 169.231 319.854 151.209C319.783 148.064 319.008 145.547 317.534 143.655C316.409 142.268 314.33 140.732 311.311 139.05H358.044C359.311 139.05 362.233 138.805 366.803 138.31V139.256Z" fill="white"/>
<path fill-rule="evenodd" clip-rule="evenodd" d="M190.165 145.48C190.165 145.48 190.025 144.589 190.506 144.111C190.99 143.626 191.612 142.875 191.197 141.917C191.612 142.117 191.612 142.875 191.612 142.875C191.612 142.875 193.38 142.44 194.387 143.626C193.515 143.403 190.372 144.383 191.197 146.432C191.402 145.608 191.335 144.79 192.846 144.383C192.641 144.851 194.226 145.408 194.435 146.093C193.814 146.232 192.781 146.371 193.053 147.122C193.744 147.189 194.846 147.323 195.539 147.056C195.056 146.777 194.757 146.371 194.984 145.636C195.081 146.181 197.055 146.911 198.244 147.234C199.441 147.557 200.543 148.375 200.589 148.882C201.232 148.197 201.923 147.924 202.43 148.008C202.93 148.108 204.014 148.214 204.565 147.534C205.114 146.844 205.734 146.159 205.114 145.408C206.216 146.093 206.009 147.056 206.009 147.802C206.009 148.564 206.353 149.656 205.598 149.656C204.839 149.656 204.29 149.455 204.29 149.455C204.29 149.455 204.147 148.977 204.632 148.253C204.254 148.419 203.636 149.556 204.461 151.058C205.29 152.573 205.323 153.363 205.183 153.903C205.046 154.449 204.31 153.954 204.31 153.954C204.31 153.954 204.128 154.95 205.139 155.507C204.632 155.412 203.345 154.772 202.57 153.631C201.783 152.484 200.681 151.538 200.177 151.298C200.589 151.71 201.232 152.439 201.414 152.762C200.82 152.172 198.201 150.619 197.97 149.879C197.787 150.435 198.568 151.075 198.568 151.075C198.568 151.075 196.847 151.231 195.812 151.504C194.779 151.782 191.262 151.164 188.99 148.147C190.093 148.698 190.99 148.419 191.547 148.214C190.918 147.468 190.232 146.432 188.785 146.711C188.164 146.093 189.267 145.48 190.165 145.48Z" fill="#6D6F71"/>
<path fill-rule="evenodd" clip-rule="evenodd" d="M205.553 156.331L206.423 156.643C206.423 156.643 206.423 158.747 208.717 159.894C208.631 160.122 209.09 160.534 209.635 160.312C209.593 160.49 209.383 160.49 209.182 160.462C209.182 160.551 209.431 160.83 209.866 160.88C210.304 160.919 211.958 160.534 211.706 159.042C212.439 158.981 213.653 158.502 214.414 158.77C214.829 159.248 216.483 161.353 216.483 161.353C216.483 161.353 214.922 159.159 215.011 157.422C215.562 158.43 215.838 159.621 215.838 159.621C215.838 159.621 216.024 156.966 216.024 155.869C216.388 155.919 216.709 155.869 216.804 155.507C216.897 155.139 217.378 153.085 215.794 150.752C214.21 148.42 214.004 147.322 214.689 146.432C214.071 146.911 213.724 147.74 214.348 149.104C214.969 150.485 214.071 151.025 214.071 151.025C214.071 151.025 208.351 143.08 214.829 138.276C214.143 138.008 210.326 141.75 211.613 146.182C210.371 145.084 209.866 140.424 210.88 138.237C209.593 139.239 208.122 142.251 208.583 143.994C207.755 144.172 206.194 144.722 206.653 145.914C208.762 146.182 210.603 147.1 211.336 148.286C212.07 149.472 213.911 152.484 214.829 152.484C214.414 152.951 213.497 151.76 213.265 151.615C213.539 152.428 214.071 153.063 214.485 153.202C214.465 153.514 214.048 156.604 214.552 157.884C214.233 157.472 214.048 156.604 214.048 156.604C214.048 156.604 213.13 156.002 212.579 156.604C212.028 157.194 212.165 158.157 212.624 158.38C211.706 158.564 211.205 158.892 210.19 157.606C210.142 158.38 210.785 159.026 211.336 159.07C211.336 159.337 210.279 158.892 210.005 158.936C209.728 158.981 208.075 158.803 208.029 156.514C207.525 156.559 207.433 158.474 208.306 159.114C207.707 158.936 206.56 157.651 206.745 155.919C206.56 156.052 206.423 156.331 206.423 156.331H205.553Z" fill="#6D6F71"/>
<path fill-rule="evenodd" clip-rule="evenodd" d="M237.88 146.554C237.88 146.554 239.814 146.91 240.914 147.556C242.019 148.196 242.755 148.926 244.039 149.015C242.573 149.288 241.652 149.015 240.824 148.564C240.001 148.107 238.253 148.469 238.253 148.469C238.253 148.469 240.502 148.469 241.518 149.427C242.526 150.384 243.211 150.156 243.211 150.156C243.211 150.156 241.42 150.618 240.253 150.751C239.084 150.885 238.944 152.723 238.944 152.723C238.944 152.723 238.98 151.798 238.86 150.819C238.353 154.109 237.013 156.047 235.362 157.783C235.653 157.677 236.644 156.698 236.644 156.698C236.644 156.698 236.028 157.967 234.744 158.563C235.015 158.585 236.19 158.29 236.529 157.605C237.17 156.331 238.527 153.769 239.906 153.151C241.28 152.539 242.733 153.491 242.938 152.188C242.112 152.26 240.317 152.127 240.317 152.127C240.317 152.127 243.421 151.431 248.589 152.4C249.762 152.328 249.275 151.576 249.275 151.576C249.275 151.576 255.893 151.431 257.337 145.546C255.756 147.946 253 149.176 252.306 149.454C253.067 148.758 255.061 146.988 255.613 146.776C254.787 146.292 251.76 146.776 250.789 147.673C251.967 147.873 253 147.122 253 147.122C253 147.122 253.274 148.419 246.866 148.285C243.077 148.146 240.556 146.181 237.88 146.554Z" fill="#6D6F71"/>
<path fill-rule="evenodd" clip-rule="evenodd" d="M230.676 157.534C230.676 157.534 230.259 159.599 228.818 159.599C227.366 159.599 227.436 158.291 227.436 158.291C227.436 158.291 227.228 159.387 227.573 160.005C227.089 159.599 227.089 157.751 227.089 156.442C227.089 155.139 227.021 152.606 227.643 151.298C228.264 150.006 230.858 147.278 231.367 146.649C231.868 146.003 232.79 145.369 233.757 145.592C234.303 145.268 234.994 144.678 235.268 143.943C235.128 145.179 234.719 145.954 233.703 146.282C232.699 146.594 232.422 146.777 231.686 147.874C230.95 148.976 229.022 151.354 229.022 151.354C229.022 151.354 230.813 149.655 231.367 148.743C231.639 149.655 231.963 150.841 231.042 151.393C230.125 151.944 229.532 151.944 229.251 153.035C229.484 152.812 229.895 152.306 229.895 152.306C229.895 152.306 229.251 153.586 229.251 154.817C229.251 156.053 229.758 158.012 229.162 158.474C229.532 158.524 229.814 157.812 229.744 157.055C230.089 156.787 230.606 156.927 230.676 157.534Z" fill="#6D6F71"/>
<path fill-rule="evenodd" clip-rule="evenodd" d="M239.033 183.561C239.033 183.561 238.39 183.467 236.923 185.243C235.452 187.035 234.212 189.496 231.915 189.496C231.473 189.496 231.002 189.574 230.515 189.685C231.509 188.878 233.205 187.369 233.571 186.122C232.956 187.47 230.182 189.329 228.777 190.197C227.267 190.71 225.719 191.328 224.382 191.328C223.346 191.328 221.981 191.311 220.638 191.3H220.567H220.498C219.16 191.311 217.792 191.328 216.756 191.328C214.459 191.328 211.521 189.496 209.224 189.496C206.929 189.496 205.687 187.035 204.218 185.243C202.748 183.467 202.105 183.561 202.105 183.561C202.105 183.561 202.06 184.925 202.702 186.846C203.345 188.761 203.526 192.063 203.711 194.897C203.896 197.731 206.193 203.665 206.464 207.869C206.744 212.072 206.834 220.39 207.936 223.308C209.029 226.208 210.572 232.856 220.498 232.995V233C220.526 232.995 220.548 232.995 220.567 232.995C220.593 232.995 220.611 232.995 220.638 233V232.995C230.563 232.856 232.11 226.208 233.202 223.308C234.301 220.39 234.396 212.072 234.668 207.869C234.948 203.665 237.24 197.731 237.424 194.897C237.609 192.063 237.797 188.761 238.44 186.846C239.084 184.925 239.033 183.561 239.033 183.561Z" fill="#231F20"/>
<path d="M239.033 183.561C239.033 183.561 238.39 183.467 236.923 185.243C235.452 187.035 234.212 189.496 231.915 189.496C231.473 189.496 231.002 189.574 230.515 189.685C231.509 188.878 233.205 187.369 233.571 186.122C232.956 187.47 230.182 189.329 228.777 190.197C227.267 190.71 225.719 191.328 224.382 191.328C223.346 191.328 221.981 191.311 220.638 191.3H220.567H220.498C219.16 191.311 217.792 191.328 216.756 191.328C214.459 191.328 211.521 189.496 209.224 189.496C206.929 189.496 205.687 187.035 204.218 185.243C202.748 183.467 202.105 183.561 202.105 183.561C202.105 183.561 202.06 184.925 202.702 186.846C203.345 188.761 203.526 192.063 203.711 194.897C203.896 197.731 206.193 203.665 206.464 207.869C206.744 212.072 206.834 220.39 207.936 223.308C209.029 226.208 210.572 232.856 220.498 232.995V233C220.526 232.995 220.548 232.995 220.567 232.995C220.593 232.995 220.611 232.995 220.638 233V232.995C230.563 232.856 232.11 226.208 233.202 223.308C234.301 220.39 234.396 212.072 234.668 207.869C234.948 203.665 237.24 197.731 237.424 194.897C237.609 192.063 237.797 188.761 238.44 186.846C239.084 184.925 239.033 183.561 239.033 183.561Z" stroke="#6D6F71" stroke-width="0.742" stroke-miterlimit="3.864" stroke-linecap="round" stroke-linejoin="bevel"/>
<path fill-rule="evenodd" clip-rule="evenodd" d="M230.474 218.737C229.327 221.944 227.167 223.497 225.835 223.726C226.903 223.035 227.228 222.217 227.228 222.217L226.154 222.122C224.827 221.989 223.999 222.384 224.1 222.957C224.204 223.536 224.058 224.377 224.198 224.822C224.475 224.822 226.789 224.227 226.789 224.227L224.654 225.251C224.654 225.251 224.595 226.097 224.805 226.17C224.894 226.197 225.273 226.248 225.701 226.298C225.824 226.248 225.952 226.248 226.02 226.248C226.129 226.248 226.246 226.259 226.369 226.275C226.496 226.275 226.613 226.287 226.724 226.287C226.767 226.287 226.8 226.287 226.837 226.275H226.859C226.926 226.275 226.996 226.309 227.044 226.359C227.1 226.409 227.133 226.476 227.133 226.549C227.133 226.654 227.136 227.133 227.035 227.639C227.267 227.717 227.878 227.901 228.317 227.79C228.871 227.657 228.821 227.606 230.615 225.001C232.411 222.401 230.474 218.737 230.474 218.737Z" fill="white"/>
<path fill-rule="evenodd" clip-rule="evenodd" d="M216.935 222.957C217.035 222.384 216.21 221.988 214.875 222.122L213.913 222.217C213.913 222.217 213.98 222.974 215.203 223.725C213.862 223.497 211.708 221.944 210.56 218.737C210.56 218.737 208.632 222.401 210.42 225.001C212.211 227.606 212.166 227.656 212.718 227.79C213.157 227.901 213.767 227.717 213.996 227.64C213.893 227.133 213.898 226.654 213.901 226.548C213.901 226.476 213.932 226.409 213.991 226.359C214.038 226.309 214.106 226.275 214.175 226.275H214.198C214.234 226.286 214.274 226.286 214.313 226.286C214.419 226.286 214.539 226.275 214.654 226.275C214.788 226.259 214.909 226.247 215.018 226.247C215.087 226.247 215.211 226.247 215.337 226.298C215.759 226.247 216.137 226.197 216.23 226.17C216.435 226.097 216.381 225.251 216.381 225.251L214.249 224.226C214.249 224.226 216.711 224.822 216.991 224.822C217.127 224.377 216.825 223.536 216.935 222.957Z" fill="white"/>
<path fill-rule="evenodd" clip-rule="evenodd" d="M222.86 227.494C222.728 227.711 222.306 227.9 222.306 227.9C222.306 227.9 222.617 227.9 223.011 227.811C222.681 228.24 221.441 228.056 221.03 227.811C221.156 227.828 221.643 227.962 221.891 227.889C221.481 227.828 220.789 227.199 220.481 227.811C220.179 228.412 220.392 229.264 220.722 229.526C221.058 229.799 222.465 229.754 223.319 229.548C224.183 229.348 223.89 227.633 223.89 227.633C223.514 227.316 222.988 227.282 222.86 227.494Z" fill="white"/>
<path fill-rule="evenodd" clip-rule="evenodd" d="M220.363 227.745C220.377 227.711 220.399 227.672 220.427 227.65C220.083 227.344 219.498 227.839 219.143 227.889C219.389 227.962 219.873 227.828 220.002 227.811C219.588 228.056 218.351 228.24 218.018 227.811C218.41 227.901 218.723 227.901 218.723 227.901C218.723 227.901 218.303 227.711 218.169 227.494C218.041 227.283 217.52 227.316 217.142 227.633C217.142 227.633 216.848 229.348 217.708 229.549C218.564 229.754 219.974 229.799 220.31 229.526C220.352 229.493 220.391 229.449 220.433 229.387C220.181 228.975 220.097 228.263 220.363 227.745Z" fill="white"/>
<path fill-rule="evenodd" clip-rule="evenodd" d="M226.858 226.547C226.411 226.586 225.773 226.419 225.669 226.641C225.566 226.864 225.023 226.909 225.023 226.909C225.023 226.909 225.482 227.07 225.86 226.936C225.582 227.398 224.332 227.359 223.898 227.176C224.018 227.176 224.489 227.087 224.732 226.981C224.332 226.981 223.554 226.674 223.291 227.232C223.531 227.248 223.78 227.359 223.976 227.526C224.007 227.549 224.018 227.582 224.024 227.605C224.032 227.654 224.11 228.122 224.057 228.595C224.127 228.646 224.169 228.674 224.169 228.674C224.169 228.674 225.241 229.057 226.066 228.751C226.892 228.44 226.858 226.547 226.858 226.547Z" fill="white"/>
<path fill-rule="evenodd" clip-rule="evenodd" d="M229.176 191.056C229.161 191.056 229.139 191.061 229.123 191.061L229.139 191.445C229.139 191.445 227.544 191.874 226.64 192.269C226.355 192.403 225.834 192.481 225.196 192.537C225.196 192.553 225.205 192.559 225.208 192.57C225.216 192.62 225.325 193.288 225.253 193.979C225.35 194.045 225.527 194.346 225.633 194.53C226.162 195.415 226.083 195.51 228.064 194.19C229.103 193.505 229.176 191.056 229.176 191.056Z" fill="white"/>
<path fill-rule="evenodd" clip-rule="evenodd" d="M224.961 192.559C224.468 192.603 220.895 192.67 220.637 192.67H220.453C220.472 192.693 220.491 192.732 220.509 192.76C220.87 193.494 220.755 194.502 220.405 195.109C220.455 195.187 220.515 195.254 220.576 195.298C223.005 196.996 222.778 196.451 224.225 195.331C225.204 194.574 225.014 192.603 225.014 192.603C225 192.592 224.983 192.57 224.961 192.559Z" fill="white"/>
<path fill-rule="evenodd" clip-rule="evenodd" d="M215.113 192.703C214.167 192.703 211.75 191.59 211.75 191.59C211.75 191.59 211.557 193.388 212.511 194.19C213.278 194.825 214.346 195.582 214.484 195.303C214.618 195.031 215.225 194.045 215.323 193.979C215.27 193.455 215.323 192.938 215.351 192.703H215.113Z" fill="white"/>
<path fill-rule="evenodd" clip-rule="evenodd" d="M220.329 192.848C220.299 192.775 220.259 192.714 220.215 192.67C219.857 192.67 216.001 192.703 215.548 192.703C215.486 193.159 215.368 194.869 216.35 195.33C218.827 196.489 218.637 196.578 219.994 195.297C220.433 194.896 220.766 193.722 220.329 192.848Z" fill="white"/>
<path fill-rule="evenodd" clip-rule="evenodd" d="M233.697 190.636C233.404 190.213 232.819 190.341 232.819 190.341C232.819 190.341 229.939 190.603 229.645 191.26C230.345 192.373 230.432 193.347 230.432 193.347C230.432 193.347 229.861 192.524 229.416 191.923C229.332 192.768 229.021 193.932 228.381 194.5C228.45 194.645 228.448 194.667 228.532 194.807L229.491 196.488C229.491 196.488 229.744 194.584 229.416 193.253C230.194 194.188 230.77 199.839 229.354 203.252C229.354 203.252 233.118 201.838 233.666 194.823C233.93 191.533 233.991 191.07 233.697 190.636Z" fill="white"/>
<path fill-rule="evenodd" clip-rule="evenodd" d="M211.521 193.437C211.401 193.052 211.401 192.618 211.412 192.273C211.029 192.802 210.648 193.347 210.648 193.347C210.648 193.347 210.743 192.373 211.442 191.26C211.146 190.602 208.264 190.341 208.264 190.341C208.264 190.341 207.684 190.213 207.391 190.636C207.097 191.07 207.158 191.533 207.416 194.823C207.961 201.838 211.734 203.252 211.734 203.252C210.388 200.029 210.808 194.789 211.521 193.437Z" fill="white"/>
<path fill-rule="evenodd" clip-rule="evenodd" d="M204.014 187.494C204.014 187.494 205.78 189.092 206.334 189.732C206.88 190.366 207.204 191.508 206.334 191.786C205.78 191.146 205.276 190.55 204.907 190.55C205.413 190.917 206.238 192.064 206.466 192.794C206.698 193.517 206.975 195.255 206.79 196.357C206.605 197.46 207.988 200.282 207.708 204.986C208.172 204.446 207.937 201.797 207.937 201.797C207.937 201.797 209.224 206.223 208.947 210.069C208.675 213.9 208.489 221.851 208.947 223.398C207.85 221.572 207.297 220.659 207.112 209.508C207.66 209.508 207.66 210.181 207.66 210.927C207.66 211.69 207.66 217.447 208.214 217.781C208.076 215.927 207.873 210.449 207.937 209.424C208.007 208.388 207.66 207.915 207.112 207.364C206.561 206.824 206.768 203.394 206.074 202.642C205.391 201.885 204.565 197.081 204.149 195.171C203.734 193.245 204.149 187.839 204.014 187.494Z" fill="#6D6F71"/>
<path fill-rule="evenodd" clip-rule="evenodd" d="M202.014 187.285C202.014 187.285 203.117 192.151 203.049 194.205C202.982 196.26 204.014 198.248 204.014 198.248C204.014 198.248 202.014 196.606 201.185 194.551C200.36 192.497 199.257 190.03 196.711 189.819C197.259 189.406 199.534 188.377 201.185 190.292C201.463 189.545 202.081 188.443 202.014 187.285Z" fill="#6D6F71"/>
<path fill-rule="evenodd" clip-rule="evenodd" d="M203.762 209.79C204.31 209.695 205.368 211.343 205.368 211.343C205.368 211.343 204.632 209.695 203.437 208.598C203.762 208.598 204.999 210.012 204.999 210.012C204.999 210.012 204.677 208.415 203.526 206.867C204.403 207.452 204.767 208.782 204.767 208.782C204.767 208.782 205.138 207.095 203.896 205.352C202.659 203.621 201.599 202.073 201.971 199.189C201.554 199.006 201.554 200.414 201.554 200.414C201.554 200.414 200.038 196.261 195.401 193.661C195.401 193.661 198.979 196.261 200.359 199.006C201.739 201.74 202.22 205.236 203.871 206.605C203.116 206.678 202.013 204.696 200.773 202.29C200.912 204.35 202.57 207.441 203.871 208.259C202.497 207.914 201.943 205.72 198.635 206.544C200.082 206.823 201.672 206.823 203.39 209.216C202.22 208.387 200.544 207.713 197.698 208.871C199.189 208.387 202.08 208.325 203.871 210.586C205.1 212.128 205.455 212.819 205.556 213.097C205.41 212.529 204.878 210.708 203.762 209.79Z" fill="#6D6F71"/>
<path fill-rule="evenodd" clip-rule="evenodd" d="M198.568 201.795C198.568 201.795 199.124 201.795 199.992 201.922C199.947 200.876 198.201 200.236 198.201 200.236C198.201 200.236 200.451 200.603 200.821 201.561C200.221 196.996 195.216 194.123 195.216 194.123C196.477 195.531 196.847 195.916 197.395 196.606C197.124 196.812 196.637 197.636 196.777 198.526C196.914 199.417 197.124 200.648 196.914 201.333C196.017 198.727 193.539 196.26 191.197 195.715C194.642 197.079 195.719 200.414 196.637 202.106C197.558 203.799 200.081 205.536 201.05 205.67C199.164 204.261 198.568 201.795 198.568 201.795Z" fill="#6D6F71"/>
<path fill-rule="evenodd" clip-rule="evenodd" d="M239.185 187.285C239.185 187.285 238.079 192.151 238.15 194.205C238.222 196.26 237.184 198.248 237.184 198.248C237.184 198.248 239.185 196.606 240.011 194.551C240.836 192.497 241.941 190.03 244.489 189.819C243.936 189.406 241.667 188.377 240.011 190.292C239.733 189.545 239.115 188.443 239.185 187.285Z" fill="#6D6F71"/>
<path fill-rule="evenodd" clip-rule="evenodd" d="M240.086 200.176C240.022 200.332 239.986 200.415 239.986 200.415C239.986 200.415 239.986 199.368 239.722 199.201H239.715C239.7 199.185 239.689 199.185 239.675 199.174C239.661 199.168 239.647 199.168 239.633 199.168C239.63 199.168 239.627 199.174 239.619 199.174C239.602 199.174 239.588 199.185 239.574 199.19H239.571C239.619 199.536 239.639 199.864 239.647 200.176C239.681 202.447 238.732 203.828 237.643 205.353C236.404 207.096 236.77 208.783 236.77 208.783C236.77 208.783 237.137 207.452 238.007 206.868C236.86 208.416 236.538 210.013 236.538 210.013C236.538 210.013 237.781 208.599 238.102 208.599C236.913 209.696 236.169 211.344 236.169 211.344C236.169 211.344 237.226 209.696 237.781 209.791C236.661 210.709 236.127 212.53 235.989 213.098C236.087 212.82 236.441 212.129 237.663 210.587C239.457 208.326 242.353 208.388 243.844 208.872C240.996 207.714 239.322 208.388 238.147 209.217C239.868 206.823 241.452 206.823 242.907 206.545C239.594 205.72 239.046 207.915 237.663 208.26C238.975 207.442 240.632 204.351 240.766 202.291C239.527 204.697 238.424 206.679 237.663 206.606C239.096 205.42 239.65 202.653 240.666 200.148C240.735 199.975 240.806 199.808 240.881 199.641C240.892 199.614 240.908 199.585 240.914 199.557C240.993 199.391 241.077 199.218 241.158 199.051C241.161 199.034 241.172 199.023 241.178 199.006C242.557 196.262 246.142 193.662 246.142 193.662H246.139H246.142C245.999 193.734 245.865 193.817 245.731 193.901C245.708 193.907 245.684 193.923 245.663 193.946C245.557 194.007 245.445 194.079 245.336 194.14C245.305 194.157 245.277 194.185 245.246 194.202C245.151 194.263 245.056 194.324 244.967 194.396C244.93 194.425 244.905 194.435 244.872 194.458C244.777 194.53 244.681 194.592 244.589 194.664C244.566 194.68 244.547 194.703 244.519 194.719C244.41 194.797 244.309 194.881 244.203 194.959C244.2 194.97 244.192 194.975 244.183 194.975C243.839 195.243 243.523 195.532 243.231 195.805C243.218 195.811 243.212 195.816 243.206 195.827C243.117 195.916 243.03 195.995 242.944 196.089C242.935 196.094 242.926 196.1 242.921 196.117C242.829 196.2 242.745 196.284 242.664 196.378L242.652 196.384C241.108 198.027 240.335 199.602 240.084 200.176H240.086Z" fill="#6D6F71"/>
<path fill-rule="evenodd" clip-rule="evenodd" d="M245.864 194.406C245.864 194.406 245.856 194.406 245.853 194.412C245.814 194.439 245.772 194.467 245.73 194.495C245.716 194.5 245.707 194.512 245.696 194.523C245.657 194.551 245.615 194.573 245.57 194.606C245.562 194.618 245.545 194.623 245.528 194.639C245.49 194.667 245.45 194.696 245.413 194.729C245.349 194.768 245.282 194.817 245.212 194.862C245.204 194.879 245.184 194.896 245.173 194.896C245.126 194.935 245.072 194.974 245.025 195.013C245.008 195.029 244.997 195.035 244.98 195.046C244.927 195.096 244.871 195.135 244.815 195.174C244.806 195.185 244.795 195.196 244.778 195.207C244.723 195.252 244.661 195.302 244.608 195.352C244.594 195.358 244.583 195.363 244.569 195.38C244.507 195.43 244.448 195.475 244.387 195.536C244.378 195.541 244.37 195.547 244.362 195.564C244.292 195.608 244.227 195.681 244.16 195.731C244.157 195.742 244.157 195.742 244.155 195.742C243.648 196.199 243.111 196.744 242.618 197.368C242.543 197.462 242.478 197.551 242.411 197.641C242.403 197.641 242.403 197.646 242.4 197.646C242.335 197.74 242.266 197.835 242.201 197.93V197.936C241.804 198.509 241.445 199.138 241.174 199.823C241.174 199.834 241.171 199.834 241.171 199.84C241.13 199.94 241.096 200.035 241.057 200.14C241.054 200.151 241.048 200.168 241.045 200.174C240.892 200.614 240.786 201.087 240.721 201.56C241.091 200.603 243.334 200.235 243.334 200.235C243.334 200.235 241.597 200.875 241.547 201.922C242.417 201.794 242.971 201.794 242.971 201.794C242.971 201.794 242.375 204.26 240.491 205.669C241.451 205.535 243.978 203.798 244.899 202.106C245.234 201.493 245.593 200.647 246.088 199.761C246.105 199.722 246.124 199.695 246.141 199.662C246.174 199.611 246.205 199.544 246.231 199.5C246.261 199.456 246.284 199.417 246.309 199.366C246.359 199.294 246.407 199.216 246.451 199.127C246.485 199.094 246.513 199.032 246.547 198.988C246.572 198.943 246.605 198.899 246.636 198.849C246.664 198.799 246.698 198.748 246.734 198.71C246.762 198.665 246.793 198.621 246.821 198.587C246.878 198.498 246.938 198.414 247 198.337C247.025 198.292 247.056 198.259 247.087 198.214C247.129 198.164 247.171 198.114 247.21 198.053C247.246 198.014 247.28 197.975 247.308 197.936C247.358 197.874 247.412 197.819 247.459 197.763C247.493 197.73 247.521 197.696 247.554 197.657C247.619 197.58 247.697 197.512 247.767 197.435C247.8 197.401 247.833 197.368 247.871 197.334C247.918 197.279 247.976 197.228 248.035 197.173C248.069 197.145 248.103 197.112 248.139 197.078C248.223 196.995 248.311 196.928 248.399 196.856C248.429 196.828 248.455 196.811 248.489 196.794C248.553 196.733 248.629 196.678 248.702 196.621C248.735 196.588 248.777 196.577 248.819 196.544C248.889 196.488 248.968 196.438 249.043 196.388C249.079 196.36 249.107 196.343 249.141 196.326C249.247 196.26 249.353 196.187 249.468 196.126C249.499 196.115 249.538 196.093 249.575 196.071C249.664 196.032 249.744 195.981 249.832 195.937C249.877 195.915 249.919 195.892 249.963 195.887C250.076 195.825 250.193 195.776 250.314 195.725C250.322 195.719 250.336 195.719 250.339 195.714C250.274 195.731 250.199 195.748 250.132 195.77C250.117 195.776 250.106 195.776 250.087 195.776C250.034 195.798 249.978 195.809 249.922 195.831C249.905 195.842 249.888 195.848 249.868 195.853C249.815 195.864 249.762 195.887 249.707 195.903C249.689 195.915 249.673 195.915 249.653 195.926C249.6 195.942 249.547 195.976 249.493 195.993C249.474 195.998 249.46 196.003 249.446 196.015C249.379 196.037 249.317 196.06 249.253 196.098C249.247 196.098 249.247 196.098 249.242 196.104C249.094 196.171 248.956 196.249 248.814 196.326C248.802 196.332 248.787 196.338 248.783 196.343C248.721 196.377 248.669 196.41 248.609 196.449C248.592 196.455 248.573 196.455 248.556 196.471C248.509 196.499 248.45 196.544 248.399 196.577C248.383 196.583 248.366 196.588 248.352 196.605C248.296 196.644 248.24 196.678 248.181 196.722C248.167 196.728 248.158 196.733 248.148 196.744C248.013 196.839 247.876 196.933 247.736 197.045V197.05C247.672 197.101 247.613 197.151 247.546 197.195C247.535 197.218 247.521 197.228 247.507 197.228C247.459 197.279 247.406 197.318 247.358 197.368C247.342 197.384 247.322 197.401 247.308 197.407C247.261 197.457 247.207 197.496 247.168 197.541C247.149 197.551 247.132 197.568 247.115 197.585C247.067 197.635 247.023 197.68 246.969 197.73C246.961 197.735 246.944 197.752 246.936 197.763C246.816 197.88 246.69 198.002 246.572 198.13C246.561 198.147 246.547 198.164 246.533 198.181C246.491 198.231 246.446 198.275 246.407 198.32C246.388 198.342 246.368 198.359 246.343 198.386C246.312 198.431 246.273 198.476 246.242 198.515C246.222 198.537 246.203 198.57 246.183 198.587C246.147 198.637 246.11 198.681 246.077 198.715C246.057 198.748 246.041 198.765 246.023 198.793C245.982 198.843 245.951 198.888 245.915 198.932C245.9 198.955 245.881 198.977 245.864 198.999C245.817 199.06 245.772 199.127 245.716 199.205C245.713 199.216 245.705 199.227 245.693 199.244C245.657 199.294 245.615 199.361 245.579 199.417C245.562 199.433 245.545 199.467 245.531 199.489C245.5 199.533 245.472 199.583 245.444 199.622C245.428 199.656 245.408 199.678 245.385 199.712C245.369 199.761 245.336 199.801 245.316 199.84C245.296 199.867 245.277 199.906 245.262 199.929C245.234 199.973 245.208 200.018 245.184 200.074C245.173 200.096 245.151 200.129 245.142 200.151C245.134 200.162 245.131 200.168 245.126 200.174C244.927 200.558 244.756 200.947 244.624 201.332C244.418 200.647 244.624 199.417 244.759 198.526C244.899 197.635 244.418 196.811 244.141 196.605C244.692 195.915 245.058 195.53 246.323 194.122C246.323 194.122 246.149 194.217 245.864 194.406Z" fill="#6D6F71"/>
<path fill-rule="evenodd" clip-rule="evenodd" d="M246.311 168.185C245.872 168.903 244.243 169.37 243.765 169.348C243.845 168.791 244.775 167.578 245.004 167.483C244.671 167.377 243.384 167.979 242.318 168.385C242.701 168.046 243.796 167.082 244.476 166.631C241.713 167.594 240.452 170.773 239.769 171.38C239.083 172.004 237.978 172.411 237.493 171.726C237.634 172.55 239.01 172.616 240.253 171.592C239.699 172.349 237.695 173.785 237.012 171.592C236.324 169.398 237.083 170.634 238.526 169.877C239.951 169.131 242.167 166.548 243.745 166.52L243.756 166.492C242.878 166.203 241.873 166.676 240.869 167.483C239.836 168.296 237.634 170.222 236.528 169.398C237.354 169.571 238.011 169.12 238.389 168.847C237.46 169.087 236.911 168.88 236.324 168.201C235.739 167.506 234.6 167.75 234.292 167.444C234.743 167.817 234.978 168.607 234.53 168.78C234.083 168.959 232.188 168.441 230.856 170.172C231.685 169.677 232.969 169.164 234.992 169.532C234.625 169.677 234.483 170.362 234.483 170.362C234.483 170.362 235.722 170.222 235.999 170.723C236.279 171.23 235.955 171.636 235.722 171.681C235.266 171.592 234.668 172.004 234.483 172.227C235.266 171.859 236.738 171.948 236.828 172.411C236.923 172.867 237.2 173.607 236.19 174.236C235.178 174.876 233.017 175.912 233.775 179.403C234.049 177.009 233.571 175.701 237.565 174.337C237.841 174.676 239.083 179.448 237.796 181.09C236.965 181.552 235.955 182.376 235.955 183.746C236.324 183.384 237.239 181.552 237.796 182.281L237.88 183.384C237.88 183.384 238.526 182.743 239.539 182.922C239.539 183.562 239.447 186.384 239.447 186.384C239.447 186.384 241.279 184.57 240.639 181.185C241.559 181.457 240.913 184.291 240.823 184.837C241.743 183.929 241.652 181.641 240.823 179.264C240.823 179.264 241.876 181.457 244.178 181.736C241.876 180.906 242.061 179.676 241.42 177.805C241.487 178.217 241.537 178.879 241.487 179.063C241.215 178.329 240.597 176.87 242.525 176.046C241.769 175.228 240.317 175.294 239.769 176.319C239.287 174.804 238.185 173.507 238.185 173.507C238.185 173.507 239.15 173.919 239.564 174.531C239.699 173.368 240.001 171.108 243.65 168.847C242.891 169.604 242.502 169.989 242.156 170.673C243.146 169.56 245.824 169.899 246.311 168.185Z" fill="#6D6F71"/>
<path fill-rule="evenodd" clip-rule="evenodd" d="M249.416 156.309C249.416 156.309 250.728 157.4 249.763 158.013C250.451 157.952 250.337 157.4 250.337 157.4C250.337 157.4 251.554 161.509 250.034 163.575C248.517 165.629 245.146 167.138 244.18 166.999C245.356 167.204 246.886 166.431 247.717 165.879C247.076 166.703 246.203 167.483 244.961 167.617C245.694 167.979 246.886 168.073 247.208 167.928C247.117 168.251 245.326 169.938 242.02 171.041C245.326 170.222 245.767 170.184 246.175 170.155C246.589 170.111 247.619 169.938 248.381 170.701C249.142 171.453 249.967 172.132 252.242 172.003C250.658 171.859 249.69 171.541 248.68 170.4C247.672 169.259 246.521 169.677 246.343 169.677C246.939 169.259 248.176 169.215 248.867 169.855C249.555 170.495 250.658 170.172 250.658 170.172C250.658 170.172 249.69 169.988 249.276 169.036C250.337 168.713 252.13 168.847 252.264 168.891C251.99 168.44 251.573 168.073 251.573 168.073C251.573 168.073 252.86 167.683 254.584 168.781C256.305 169.877 253.599 171.041 253.409 172.321C254.237 172.321 254.696 172.132 255.801 173.234C256.901 174.337 256.996 176.619 259.934 176.619C257.455 175.06 257.455 173.329 256.901 172.321C256.353 171.313 255.429 171.408 255.429 171.408C255.429 171.408 258.28 170.862 260.942 171.313C263.609 171.775 263.701 169.398 263.701 169.398C262.413 169.766 259.014 169.582 256.996 168.752C258.647 168.941 260.942 169.309 261.859 168.941C259.66 168.752 258.006 168.118 256.26 167.85C254.514 167.572 254.058 166.564 254.142 165.646C255.614 165.557 256.028 165.629 256.787 165.696C256.579 165.222 254.447 164.666 252.723 164.738C253.753 163.914 255.429 163.731 257.181 164.003C255.983 163.369 254.584 163.43 254.584 163.43C254.584 163.43 257.198 162.818 257.617 160.551C258.578 160.624 262.713 161.237 265.26 158.981C261.264 159.599 258.647 159.599 257.27 158.836C258.854 159.042 261.751 159.321 263.057 158.43C260.855 158.981 258.026 158.77 256.445 157.952C254.858 157.128 251.688 155.279 249.416 156.309Z" fill="#6D6F71"/>
<path fill-rule="evenodd" clip-rule="evenodd" d="M229.506 168.094C229.948 167.27 231.193 167.137 231.848 167.27C231.848 167.27 231.227 166.842 229.987 167.248C228.745 167.654 225.899 171.852 225.115 172.309C224.337 172.76 224.707 171.541 224.475 171.357C224.242 171.173 222.449 170.766 222.449 170.766L227.679 166.101C227.679 166.101 227.299 166.274 227.021 166.536C226.954 166.368 227.475 165.639 227.754 165.305C228.031 165.032 228.588 164.297 228.126 163.774C228.538 164.871 224.749 166.58 224.405 167.409C224.058 168.234 222.728 169.481 222.222 169.648C221.721 169.809 221.903 168.941 221.903 168.412C221.903 167.888 221.685 166.068 222.373 165.662C223.061 165.249 224.992 162.844 225.233 162.126C225.471 161.424 226.369 160.851 226.66 160.11C226.481 160.444 224.939 161.686 224.475 162.677C223.994 163.707 222.751 164.525 221.924 164.943C222.2 164.392 222.133 161.581 221.788 160.69C221.441 159.799 221.584 158.836 221.788 158.012C222.133 158.157 222.751 157.605 222.751 156.987C222.751 156.369 222.961 155.963 223.851 154.655C223.579 154.655 222.823 155.551 222.477 156.097C222.546 155.684 222.365 155.317 221.623 153.491C220.893 151.665 220.982 146.554 220.982 146.554C220.982 146.554 220.893 148.564 220.798 150.484C220.706 152.4 221.721 156.146 221.721 156.146C221.721 156.146 221.352 155.139 220.612 155.228C221.721 156.146 221.257 158.062 220.982 158.98C220.706 159.894 218.271 158.769 217.306 158.157C217.857 159.248 219.583 159.799 219.653 160.55C219.721 161.308 219.93 161.858 220.408 162.065C220.132 161.581 220.479 160.69 220.753 160.757C220.479 161.508 220.915 164.114 220.938 164.576C220.963 165.032 220.893 165.489 220.549 165.305C219.698 164.871 218.341 163.367 217.034 162.271C217.586 163.184 219.858 165.222 220.612 165.762C221.375 166.313 221.08 168.618 221.027 169.08C220.982 169.531 221.375 170.627 220.275 170.254C219.172 169.893 217.722 167.432 216.483 165.645C217.586 166.012 218.87 167.704 219.197 168.072C218.783 166.931 217.101 165.628 216.135 164.592C215.174 163.574 213.175 162.95 212.484 161.719C213.175 163.022 214.896 163.985 214.969 164.464C213.245 163.429 211.337 163.729 211.337 163.729C211.337 163.729 213.175 163.707 213.931 164.253C214.69 164.799 217.101 168.027 217.792 168.567C218.481 169.119 219.499 170.505 219.435 171.329C216.746 171.257 215.758 169.809 215.07 168.679C215.445 169.085 215.929 169.363 216.483 169.291C215.654 169.258 215.274 168.401 215.001 167.683C214.311 165.995 211.488 166.274 210.386 166.58C209.28 166.897 208.147 167.031 207.422 167.064C209.045 167.337 209.932 166.931 211.088 166.875C212.232 166.842 213.316 167.521 213.682 168.367C213.382 168 212.761 167.337 211.843 167.203C212.439 167.387 213.265 168.161 213.911 169.035C214.552 169.898 214.874 170.583 215.887 171.134C214.476 170.7 214.18 171.312 214.09 171.635C213.757 173.668 215.736 175.666 215.741 175.966C215.962 175.922 215.21 172.604 215.477 172.604C215.929 172.604 218.221 175.037 219.049 175.855C218.97 175.566 216.696 171.513 216.696 171.513C216.696 171.513 219.108 174.102 220.207 175.148C219.978 175.148 218.551 172.003 218.551 172.003C218.551 172.003 219.206 171.952 219.6 172.069C221.018 172.493 220.319 174.436 220.982 175.583C221.643 174.926 220.736 171.752 222.306 171.797C222.829 171.813 223.571 172.259 223.571 172.259C223.571 172.259 222.472 175.092 221.917 175.148C222.376 175.371 225.765 172.32 226.263 172.32C226.246 172.454 223.193 176.117 223.19 176.24C223.417 176.206 226.699 172.627 226.932 172.621C226.942 172.498 226.951 172.404 226.954 172.32C226.982 172.409 227.01 172.509 227.021 172.621C227.41 172.627 226.139 175.739 226.383 175.917C226.414 175.749 228.367 173.506 227.875 171.541C227.598 171.134 227.299 171.173 228.334 170.015C229.366 168.846 231.988 167.683 233.572 167.749C231.017 167.243 231.123 167.482 229.506 168.094Z" fill="#6D6F71"/>
<path fill-rule="evenodd" clip-rule="evenodd" d="M206.104 184.659C206.104 184.659 208.03 185.94 209.32 186.385C210.604 186.847 212.904 189.82 214.969 190.277C211.801 188.857 210.604 186.307 210.047 185.338C210.1 186.123 210.559 186.803 210.559 186.803C210.559 186.803 206.423 184.793 206.104 184.659" fill="#6D6F71"/>
<path d="M206.104 184.659C206.104 184.659 208.03 185.94 209.32 186.385C210.604 186.847 212.904 189.82 214.969 190.277C211.801 188.857 210.604 186.307 210.047 185.338C210.1 186.123 210.559 186.803 210.559 186.803C210.559 186.803 206.423 184.793 206.104 184.659V184.659Z" stroke="#6D6F71" stroke-width="0.742" stroke-miterlimit="3.864" stroke-linecap="round" stroke-linejoin="bevel"/>
<path fill-rule="evenodd" clip-rule="evenodd" d="M204.632 176.747C204.632 176.747 205.508 182.51 208.813 184.659C206.974 183.879 204.632 180.361 204.632 176.747Z" fill="#D0343A"/>
<path d="M204.632 176.747C204.632 176.747 205.508 182.51 208.813 184.659C206.974 183.879 204.632 180.361 204.632 176.747Z" stroke="#6D6F71" stroke-width="0.742" stroke-miterlimit="3.864" stroke-linecap="round" stroke-linejoin="bevel"/>
<path fill-rule="evenodd" clip-rule="evenodd" d="M248.084 154.138C248.084 154.138 250.748 154.222 252.771 152.952C251.847 153.13 250.107 153.771 248.246 152.741C251.067 152.886 249.897 151.923 249.897 151.923C249.897 151.923 251.414 152.09 251.861 152.468C251.794 152.056 250.689 151.745 250.689 151.745C250.689 151.745 253.784 150.843 254.514 150.386C255.614 150.659 255.801 151.945 255.801 151.945L255.659 150.937C255.659 150.937 257.64 151.489 255.53 153.13C257.27 152.858 256.901 153.955 254.603 154.044C256.075 154.322 256.788 153.838 257.618 155.28C258.44 156.716 260.237 156.716 260.237 156.716C260.237 156.716 259.338 157.056 258.026 156.855C259.271 157.334 259.271 158.092 260.44 158.092C259.476 158.358 257.889 158.225 254.584 156.577C251.271 154.934 250.034 155.486 250.034 155.486C250.034 155.486 250.518 154.801 252.86 155.213C251.688 154.734 249.208 154.656 247.832 155.141C248.657 154.383 249.516 154.528 249.516 154.528C249.516 154.528 248.613 154.473 248.084 154.138" fill="#6D6F71"/>
<path fill-rule="evenodd" clip-rule="evenodd" d="M216.217 226.976C216.455 227.076 216.983 227.143 217.109 227.143C216.676 227.332 215.425 227.371 215.151 226.904C215.526 227.037 215.886 226.914 215.886 226.914C215.886 226.914 215.442 226.837 215.338 226.614C215.232 226.391 214.599 226.558 214.146 226.525C214.146 226.525 214.113 228.412 214.938 228.718C215.766 229.03 216.835 228.651 216.835 228.651C216.835 228.651 216.877 228.618 216.947 228.573C216.9 228.089 216.972 227.627 216.981 227.583C216.989 227.549 217.001 227.527 217.029 227.505C217.224 227.332 217.476 227.221 217.714 227.198C217.457 226.653 216.617 226.976 216.217 226.976Z" fill="white"/>
<path fill-rule="evenodd" clip-rule="evenodd" d="M237.098 186.941C237.098 186.941 235.327 188.539 234.772 189.174C234.223 189.814 233.902 190.961 234.772 191.234C235.327 190.594 235.827 189.998 236.202 189.998C235.693 190.365 234.87 191.507 234.638 192.236C234.409 192.971 234.135 194.714 234.317 195.804C234.501 196.896 233.119 199.735 233.398 204.445C232.937 203.889 233.166 201.244 233.166 201.244C233.166 201.244 231.882 205.67 232.156 209.507C232.431 213.353 232.612 221.298 232.156 222.857C233.258 221.025 233.812 220.113 233.994 208.966C233.443 208.966 233.443 209.618 233.443 210.386C233.443 211.127 233.443 216.894 232.886 217.229C233.028 215.386 233.236 209.902 233.166 208.871C233.102 207.847 233.443 207.363 233.994 206.812C234.546 206.261 234.342 202.836 235.033 202.09C235.716 201.333 236.544 196.534 236.961 194.618C237.372 192.692 236.961 187.275 237.098 186.941" fill="#6D6F71"/>
<path fill-rule="evenodd" clip-rule="evenodd" d="M194.767 168.173C195.212 168.88 196.84 169.353 197.319 169.342C197.238 168.78 196.309 167.561 196.079 167.466C196.412 167.36 197.699 167.967 198.768 168.379C198.382 168.028 197.294 167.071 196.608 166.62C199.368 167.578 200.635 170.762 201.315 171.374C202.006 171.987 203.109 172.405 203.593 171.708C203.453 172.538 202.073 172.605 200.831 171.581C201.385 172.332 203.389 173.774 204.072 171.581C204.76 169.382 204.004 170.617 202.557 169.865C201.133 169.12 198.917 166.537 197.333 166.503L197.328 166.481C198.204 166.191 199.211 166.664 200.212 167.466C201.242 168.284 203.453 170.2 204.556 169.382C203.727 169.554 203.072 169.108 202.695 168.836C203.623 169.081 204.175 168.869 204.76 168.185C205.348 167.5 206.484 167.739 206.791 167.433C206.343 167.806 206.106 168.596 206.55 168.764C206.999 168.93 208.896 168.429 210.223 170.161C209.402 169.654 208.109 169.153 206.094 169.515C206.461 169.654 206.601 170.35 206.601 170.35C206.601 170.35 205.356 170.2 205.084 170.712C204.807 171.207 205.129 171.62 205.356 171.669C205.815 171.581 206.416 171.987 206.601 172.215C205.815 171.853 204.349 171.948 204.254 172.405C204.164 172.856 203.884 173.585 204.899 174.22C205.91 174.86 208.067 175.895 207.309 179.391C207.037 176.992 207.516 175.69 203.525 174.326C203.246 174.659 202.006 179.43 203.29 181.079C204.116 181.541 205.129 182.359 205.129 183.729C204.76 183.361 203.842 181.541 203.29 182.275L203.204 183.361C203.204 183.361 202.557 182.721 201.544 182.911C201.544 183.545 201.639 186.379 201.639 186.379C201.639 186.379 199.804 184.558 200.447 181.168C199.527 181.446 200.17 184.286 200.257 184.826C199.342 183.913 199.432 181.624 200.257 179.252C200.257 179.252 199.202 181.446 196.905 181.719C199.202 180.895 199.017 179.665 199.661 177.794C199.597 178.2 199.547 178.863 199.597 179.047C199.871 178.311 200.49 176.853 198.561 176.04C199.314 175.21 200.767 175.277 201.315 176.302C201.796 174.793 202.899 173.496 202.899 173.496C202.899 173.496 201.937 173.913 201.525 174.526C201.385 173.356 201.086 171.102 197.434 168.836C198.192 169.587 198.584 169.983 198.931 170.662C197.94 169.548 195.259 169.888 194.767 168.173Z" fill="#6D6F71"/>
<path fill-rule="evenodd" clip-rule="evenodd" d="M191.669 156.292C191.669 156.292 190.359 157.389 191.322 158.007C190.634 157.94 190.751 157.389 190.751 157.389C190.751 157.389 189.537 161.503 191.051 163.563C192.567 165.617 195.942 167.121 196.905 166.987C195.735 167.193 194.196 166.414 193.371 165.862C194.014 166.686 194.887 167.466 196.127 167.599C195.391 167.967 194.196 168.061 193.874 167.917C193.963 168.24 195.758 169.927 199.065 171.029C195.758 170.199 195.318 170.172 194.904 170.133C194.495 170.105 193.463 169.927 192.705 170.684C191.946 171.436 191.118 172.126 188.846 171.987C190.429 171.853 191.392 171.53 192.408 170.389C193.415 169.242 194.563 169.654 194.745 169.654C194.146 169.242 192.909 169.203 192.223 169.838C191.529 170.478 190.429 170.16 190.429 170.16C190.429 170.16 191.392 169.982 191.809 169.019C190.751 168.702 188.958 168.836 188.824 168.88C189.098 168.429 189.509 168.061 189.509 168.061C189.509 168.061 188.224 167.672 186.501 168.763C184.78 169.865 187.489 171.029 187.673 172.31C186.85 172.31 186.389 172.126 185.284 173.223C184.184 174.325 184.089 176.608 181.153 176.608C183.627 175.049 183.627 173.312 184.184 172.31C184.735 171.302 185.653 171.397 185.653 171.397C185.653 171.397 182.804 170.84 180.143 171.302C177.476 171.764 177.384 169.381 177.384 169.381C178.671 169.749 182.071 169.57 184.089 168.741C182.441 168.924 180.143 169.292 179.225 168.924C181.425 168.741 183.081 168.095 184.83 167.833C186.571 167.555 187.03 166.547 186.941 165.64C185.468 165.545 185.057 165.617 184.296 165.684C184.505 165.2 186.638 164.655 188.362 164.721C187.332 163.898 185.653 163.719 183.907 163.992C185.102 163.357 186.501 163.418 186.501 163.418C186.501 163.418 183.882 162.806 183.467 160.546C182.511 160.613 178.374 161.225 175.826 158.97C179.824 159.577 182.441 159.577 183.815 158.831C182.231 159.037 179.337 159.304 178.03 158.419C180.232 158.97 183.059 158.764 184.646 157.94C186.23 157.111 189.397 155.268 191.669 156.292Z" fill="#6D6F71"/>
<path fill-rule="evenodd" clip-rule="evenodd" d="M193.006 154.127C193.006 154.127 190.339 154.21 188.321 152.93C189.239 153.119 190.98 153.76 192.844 152.724C190.02 152.858 191.193 151.905 191.193 151.905C191.193 151.905 189.673 152.073 189.22 152.451C189.298 152.039 190.398 151.733 190.398 151.733C190.398 151.733 187.308 150.825 186.573 150.38C185.47 150.653 185.285 151.933 185.285 151.933L185.428 150.92C185.428 150.92 183.45 151.471 185.559 153.119C183.816 152.846 184.185 153.938 186.48 154.032C185.011 154.305 184.298 153.832 183.469 155.269C182.645 156.705 180.853 156.705 180.853 156.705C180.853 156.705 181.748 157.05 183.061 156.838C181.815 157.323 181.815 158.069 180.649 158.069C181.611 158.347 183.201 158.219 186.503 156.571C189.813 154.918 191.053 155.474 191.053 155.474C191.053 155.474 190.568 154.784 188.226 155.196C189.399 154.711 191.878 154.65 193.255 155.13C192.432 154.378 191.568 154.506 191.568 154.506C191.568 154.506 192.477 154.45 193.006 154.127" fill="#6D6F71"/>
<path fill-rule="evenodd" clip-rule="evenodd" d="M210.905 163.369C210.905 163.369 209.081 163.124 208.163 162.027C207.241 160.942 202.021 155.352 200.465 155.218C201.12 155.09 202.152 154.906 202.883 154.973C201.358 154.472 199.494 153.665 197.124 154.378C194.756 155.09 193.601 154.617 192.831 153.905C193.397 154.784 194.535 154.962 194.535 154.962C194.535 154.962 193.19 154.945 192.661 155.864C193.533 155.764 194.651 155.764 195.333 156.148C195.145 156.176 194.863 156.226 194.779 156.371C195.24 156.438 195.84 156.927 195.968 157.523C195.659 157.367 195.199 157.373 194.899 157.674C195.235 157.518 196.111 157.579 196.533 158.609C196.959 159.645 198.736 163.23 200.938 163.386C203.135 163.536 203.539 162.662 203.988 162.695C204.433 162.746 204.66 162.929 204.928 163.402C205.197 163.876 205.273 165.011 206.053 165.123C206.02 165.563 206.193 166.743 205.381 167.3C207.032 166.609 206.353 166.37 207.181 166.353C208.015 166.331 207.76 165.023 207.553 164.778C208.882 164.845 211.888 164.744 213.404 166.387C212.881 165.362 210.609 164.449 209.571 164.527C210.147 164.277 211.361 163.887 210.905 163.369Z" fill="#6D6F71"/>
<path fill-rule="evenodd" clip-rule="evenodd" d="M230.503 163.574C230.503 163.574 232.322 163.29 233.224 162.182C234.116 161.08 239.248 155.395 240.801 155.24C240.141 155.123 239.105 154.95 238.378 155.022C239.889 154.505 241.743 153.664 244.123 154.332C246.498 155.006 247.654 154.516 248.407 153.792C247.85 154.677 246.72 154.883 246.72 154.883C246.72 154.883 248.068 154.844 248.614 155.752C247.735 155.668 246.619 155.685 245.95 156.074C246.137 156.102 246.415 156.136 246.498 156.291C246.045 156.364 245.449 156.87 245.328 157.472C245.634 157.305 246.101 157.294 246.406 157.583C246.07 157.444 245.197 157.522 244.794 158.558C244.382 159.604 243.16 162.956 240.969 163.151C238.772 163.346 237.851 162.734 237.404 162.783C236.959 162.822 236.738 163.023 236.475 163.502C236.215 163.975 236.164 165.122 235.378 165.228C235.426 165.673 235.272 166.859 236.095 167.393C234.429 166.742 235.109 166.491 234.278 166.486C233.447 166.48 233.677 165.166 233.881 164.916C232.551 165.011 229.541 164.949 228.055 166.631C228.556 165.595 230.811 164.643 231.863 164.698C231.279 164.454 230.053 164.109 230.503 163.574Z" fill="#6D6F71"/>
<path fill-rule="evenodd" clip-rule="evenodd" d="M219.8 207.285C219.8 207.285 217.939 207.285 216.77 206.6C215.596 205.921 213.532 206.806 212.634 208.459C211.741 210.091 211.528 212.423 211.464 215.58C211.394 218.654 214.153 218.798 215.113 219.967C216.081 221.131 218.628 220.24 219.941 220.174C221.247 220.101 223.934 220.58 224.695 220.446C225.447 220.307 229.374 217.907 229.586 215.508C229.79 213.114 228.484 207.43 227.036 206.873C223.794 205.642 224.35 207.691 219.8 207.285Z" fill="#D0343A"/>
<path fill-rule="evenodd" clip-rule="evenodd" d="M220.249 209.534C220.249 209.534 220.291 218.22 220.11 218.715C219.925 219.217 217.585 219.718 216.301 218.849C215.011 217.986 214.322 217.763 214.322 217.763C214.322 217.763 215.794 218.904 216.388 219.305C216.989 219.718 218.662 219.79 219.463 219.445C220.269 219.105 220.91 218.972 222.015 219.378C223.117 219.79 225.026 219.996 226.083 218.882C225.048 219.406 223.28 219.718 222.294 219.011C221.307 218.303 220.52 218.493 220.52 218.493C220.52 218.493 220.728 209.818 220.249 209.534" fill="black"/>
<path fill-rule="evenodd" clip-rule="evenodd" d="M226.943 176.169C226.626 176.012 225.477 177.065 224.581 177.588C224.251 177.288 225.381 174.999 225.381 174.999L222.306 177.443C222.306 176.725 221.749 176.146 221.028 176.129C220.269 176.102 219.633 176.742 219.656 177.488C217.577 175.934 216.821 174.949 216.821 174.949C216.821 174.949 217.577 177.443 218.193 178.1C215.736 176.129 214.969 176.28 214.504 176.692C213.746 177.354 213.262 180.221 214.004 182.649C214.655 184.787 217.14 185.828 217.885 186.251C218.626 186.669 219.737 186.942 221.01 186.942H221.016H221.022C222.295 186.942 223.403 186.669 224.15 186.251C224.892 185.828 227.377 184.787 228.028 182.649C228.773 180.221 228.174 176.781 226.943 176.169Z" fill="#6D6F71"/>
<path fill-rule="evenodd" clip-rule="evenodd" d="M222.765 184.775C222.765 184.775 223.319 184.391 223.148 183.801C223.277 183.589 224.17 183.339 224.256 182.153C224.343 180.968 225.734 180.093 226.293 179.993C225.162 180.566 224.939 181.429 224.939 181.429C224.939 181.429 226.072 180.138 227.908 180.104C227.094 180.255 225.916 180.711 225.58 181.262C225.916 181.307 226.215 182.787 225.364 183.628C225.67 183.172 225.661 182.832 225.661 182.832C225.661 182.832 225.258 182.643 224.97 183.183C224.684 183.728 224.332 184.681 223.822 184.87C223.31 185.065 222.765 184.775 222.765 184.775Z" fill="black"/>
<path fill-rule="evenodd" clip-rule="evenodd" d="M219.182 184.775C219.182 184.775 218.626 184.391 218.794 183.801C218.673 183.589 217.775 183.339 217.688 182.153C217.607 180.968 216.211 180.093 215.651 179.993C216.785 180.566 217.011 181.429 217.011 181.429C217.011 181.429 215.875 180.138 214.037 180.104C214.854 180.255 216.031 180.711 216.37 181.262C216.031 181.307 215.735 182.787 216.583 183.628C216.275 183.172 216.289 182.832 216.289 182.832C216.289 182.832 216.689 182.643 216.975 183.183C217.266 183.728 217.615 184.681 218.125 184.87C218.637 185.065 219.182 184.775 219.182 184.775Z" fill="black"/>
<path fill-rule="evenodd" clip-rule="evenodd" d="M194.947 155.413L196.436 156.236C196.053 156.905 197.113 157.344 197.208 157.829C197.429 158.926 198.32 160.679 198.924 161.503C199.534 162.322 200.465 162.99 201.453 162.929C202.452 162.873 203.39 162.545 203.935 162.16C204.134 162.027 205.315 162.378 205.808 164.025C206.876 164.281 207.637 162.934 207.744 162.767C207.906 162.495 204.593 158.926 204.213 158.653C203.826 158.375 202.506 157.228 202.117 156.843C201.73 156.459 200.792 155.691 199.805 155.307C199.494 155.184 200.119 154.817 199.855 154.755C199.274 154.616 197.9 154.873 197.597 154.873C197.155 154.873 194.947 155.413 194.947 155.413Z" fill="black"/>
<path d="M194.947 155.413L196.436 156.236C196.053 156.905 197.113 157.344 197.208 157.829C197.429 158.926 198.32 160.679 198.924 161.503C199.534 162.322 200.465 162.99 201.453 162.929C202.452 162.873 203.39 162.545 203.935 162.16C204.134 162.027 205.315 162.378 205.808 164.025C206.876 164.281 207.637 162.934 207.744 162.767C207.906 162.495 204.593 158.926 204.213 158.653C203.826 158.375 202.506 157.228 202.117 156.843C201.73 156.459 200.792 155.691 199.805 155.307C199.494 155.184 200.119 154.817 199.855 154.755C199.274 154.616 197.9 154.873 197.597 154.873C197.155 154.873 194.947 155.413 194.947 155.413Z" stroke="black" stroke-width="0.185" stroke-miterlimit="3.864" stroke-linecap="round" stroke-linejoin="bevel"/>
<path fill-rule="evenodd" clip-rule="evenodd" d="M245.296 155.69C244.795 155.963 244.853 156.948 244.523 157.716C244.196 158.49 243.695 159.86 243.474 160.461C243.256 161.062 242.153 162.104 241.708 162.376C241.272 162.655 239.836 162.766 239.116 162.71C238.4 162.655 237.681 162.599 237.301 162.493C236.912 162.376 236.523 162.215 236.364 162.766C236.193 163.312 236.14 164.297 235.697 164.297C235.259 164.297 234.321 164.074 233.716 164.074C233.109 164.074 232.667 163.757 233.053 163.312C233.433 162.872 235.2 161.118 235.482 160.734C235.642 160.5 236.411 159.604 237.301 158.819C237.88 158.295 238.86 157.577 239.116 157.176C240.108 155.628 241.929 155.372 242.262 155.372C242.59 155.372 241.213 154.871 241.213 154.871C241.213 154.871 242.206 154.699 243.362 154.927C244.523 155.145 245.626 155.2 246.071 155.361C246.504 155.523 245.794 155.411 245.296 155.69Z" fill="black"/>
<path fill-rule="evenodd" clip-rule="evenodd" d="M198.855 155.93C198.855 155.93 200.064 156.365 200.828 156.654C201.595 156.938 201.928 157.606 202.334 157.951C202.737 158.302 203.333 158.58 204.086 159.56C204.824 160.535 204.964 160.351 204.964 160.351C204.964 160.351 203.526 162.929 200.937 161.737C198.346 160.535 199.836 157.484 200.081 157.06C201.015 157.35 201.449 157.968 201.449 157.968C201.449 157.968 200.464 159.694 201.536 160.346C202.986 161.214 203.724 159.672 203.724 159.672C203.724 159.672 202.683 158.38 201.878 158.102C202.079 158.063 201.671 157.573 201.149 157.172C200.635 156.771 199.034 156.247 198.855 155.93Z" fill="#FFF200"/>
<path fill-rule="evenodd" clip-rule="evenodd" d="M242.86 155.824C242.86 155.824 241.668 156.248 240.915 156.531C240.165 156.815 239.838 157.467 239.443 157.812C239.041 158.157 238.459 158.43 237.72 159.387C236.989 160.345 236.857 160.167 236.857 160.167C236.857 160.167 238.274 162.706 240.806 161.531C243.355 160.35 241.889 157.349 241.645 156.938C240.733 157.222 240.311 157.823 240.311 157.823C240.311 157.823 241.276 159.527 240.227 160.156C238.8 161.019 238.069 159.505 238.069 159.505C238.069 159.505 239.093 158.235 239.885 157.956C239.687 157.923 240.092 157.427 240.599 157.044C241.108 156.654 242.686 156.13 242.86 155.824Z" fill="#FFF200"/>
<defs>
<filter id="filter0_d" x="0" y="0" width="472" height="375" filterUnits="userSpaceOnUse" color-interpolation-filters="sRGB">
<feFlood flood-opacity="0" result="BackgroundImageFix"/>
<feColorMatrix in="SourceAlpha" type="matrix" values="0 0 0 0 0 0 0 0 0 0 0 0 0 0 0 0 0 0 127 0"/>
<feOffset dy="3"/>
<feGaussianBlur stdDeviation="12.5"/>
<feColorMatrix type="matrix" values="0 0 0 0 0 0 0 0 0 0 0 0 0 0 0 0 0 0 0.3 0"/>
<feBlend mode="normal" in2="BackgroundImageFix" result="effect1_dropShadow"/>
<feBlend mode="normal" in="SourceGraphic" in2="effect1_dropShadow" result="shape"/>
</filter>
</defs>
</svg>
