<svg width="457" height="352" viewBox="0 0 457 352" fill="none" xmlns="http://www.w3.org/2000/svg">
<path d="M0 242.264H457V334.626C457 343.783 449.576 351.207 440.417 351.207H16.582C7.424 351.207 0 343.783 0 334.626V242.264Z" fill="#A7001E"/>
<path d="M0 16.5821C0 7.42402 7.42402 0 16.582 0H440.417C449.576 0 457 7.42402 457 16.5821V242.264H0V16.5821Z" fill="#020001"/>
<path d="M82.3673 54.8712C85.3566 52.3907 86.8512 49.1471 86.8512 45.1402C86.8512 41.1334 85.3884 37.9534 82.4627 35.6001C79.5371 33.1833 75.8483 31.9749 71.3962 31.9749H62.4285C59.8845 31.9749 58.6124 33.2469 58.6124 35.7909V57.2562C58.6124 58.083 58.9622 58.4964 59.6619 58.4964H71.3962C75.7847 58.4964 79.4417 57.288 82.3673 54.8712ZM74.6398 27.6818C80.7455 27.6818 85.7382 29.24 89.6178 32.3565C93.5611 35.4729 95.5327 39.607 95.5327 44.7586C95.5327 49.8467 93.5929 54.0762 89.7132 57.447C85.8972 60.7542 81.6359 62.4715 76.9295 62.5987L76.8341 62.7895C78.1697 63.2347 79.2191 64.0615 79.9823 65.2699L94.3879 88.1662C95.7235 90.3922 97.8223 91.696 100.684 92.0776L102.402 92.2684C103.228 92.3956 103.642 92.8091 103.642 93.5087C103.642 94.3991 103.165 94.8443 102.211 94.8443C96.1051 94.5899 92.2891 94.4627 90.7627 94.4627C89.2998 94.4627 88.155 93.8267 87.3282 92.5546L71.2054 65.7469C69.9334 63.7753 68.5342 62.7895 67.0077 62.7895C67.0077 62.7895 66.9759 62.7895 66.9123 62.7895H60.0435C59.0894 62.7895 58.6124 63.1711 58.6124 63.9343V88.1662C58.6124 89.311 59.0258 90.2332 59.8527 90.9328C60.6795 91.6324 61.6971 92.014 62.9055 92.0776L66.9123 92.2684C67.612 92.2684 67.9618 92.7136 67.9618 93.6041C67.9618 94.4309 67.5166 94.8443 66.6261 94.8443L54.701 94.4627L44.1115 94.8443C43.2846 94.8443 42.8076 94.4627 42.6804 93.6995C42.6804 92.8091 43.062 92.332 43.8252 92.2684L46.5919 92.0776C49.1995 91.8868 50.5033 90.583 50.5033 88.1662V33.9783C50.5033 31.6887 49.0405 30.4167 46.1149 30.1623L43.3482 29.8761C42.6486 29.7489 42.2988 29.3354 42.2988 28.6358C42.2988 27.7454 42.744 27.3002 43.6344 27.3002L56.7998 27.6818H74.6398Z" fill="white"/>
<path d="M124.352 68.2273H145.627C146.326 68.2273 146.549 67.8457 146.294 67.0825L134.942 37.8898L123.589 67.2733C123.398 67.9093 123.652 68.2273 124.352 68.2273ZM115.48 88.1662C115.353 88.5478 115.289 88.993 115.289 89.5018C115.289 89.947 115.543 90.4876 116.052 91.1236C116.561 91.696 117.261 92.014 118.151 92.0776L120.25 92.2684C121.077 92.3956 121.49 92.8091 121.49 93.5087C121.49 94.3991 121.013 94.8443 120.059 94.8443L111.759 94.4627L103.078 94.8443C102.187 94.8443 101.742 94.4309 101.742 93.6041C101.742 92.7136 102.092 92.2684 102.791 92.2684L104.604 92.0776C107.339 91.7596 109.183 90.4558 110.137 88.1662L134.655 27.7772C134.91 27.014 135.641 26.6324 136.85 26.6324C138.122 26.6324 138.917 27.014 139.235 27.7772L163.657 88.1662C164.484 90.5194 166.297 91.8232 169.095 92.0776L171.099 92.2684C171.353 92.2684 171.576 92.3956 171.766 92.65C171.957 92.9044 172.053 93.1589 172.053 93.4133C172.053 94.3673 171.607 94.8443 170.717 94.8443L159.746 94.4627L149.92 94.8443C149.029 94.8443 148.584 94.4627 148.584 93.6995C148.584 92.8091 148.966 92.332 149.729 92.2684L151.923 92.0776C152.75 92.014 153.418 91.696 153.926 91.1236C154.499 90.5512 154.785 90.0106 154.785 89.5018C154.785 88.993 154.69 88.5478 154.499 88.1662L148.87 73.5698C148.679 72.9338 148.171 72.6158 147.344 72.6158H122.635C121.872 72.6158 121.363 72.9338 121.108 73.5698L115.48 88.1662Z" fill="white"/>
<path d="M207.973 26.6324C213.316 26.6324 218.15 27.3638 222.474 28.8266C226.863 30.2895 229.057 31.7205 229.057 33.1197V43.9954C229.057 44.4406 228.898 44.8858 228.58 45.331C228.326 45.7127 227.976 45.9035 227.531 45.9035C226.45 45.9035 225.75 45.2675 225.432 43.9954C224.287 39.7342 222.156 36.3951 219.04 33.9783C215.924 31.5615 212.235 30.3531 207.973 30.3531C200.087 30.3531 193.79 32.9925 189.084 38.2714C184.441 43.5502 182.12 50.2601 182.12 58.401C182.12 63.7435 183.169 68.8952 185.268 73.856C187.367 78.8169 190.356 82.9191 194.236 86.1628C198.179 89.3428 202.504 90.9328 207.21 90.9328C211.98 90.9328 215.987 89.9788 219.231 88.0708C222.538 86.0992 224.192 84.0321 224.192 81.8697V70.04C224.192 67.6231 222.761 66.3511 219.899 66.2239L214.747 65.9377C214.047 65.9377 213.698 65.5243 213.698 64.6975C213.698 63.8071 214.111 63.3619 214.938 63.3619L227.912 63.7435L237.357 63.3619C238.247 63.3619 238.693 63.7435 238.693 64.5067C238.693 65.3971 238.311 65.8741 237.548 65.9377L235.926 66.2239C233.382 66.6691 232.11 67.9411 232.11 70.04V88.4524L232.682 93.7949C232.81 94.9397 232.333 95.5121 231.251 95.5121C230.552 95.5121 229.979 95.0987 229.534 94.2719C228.517 91.9822 226.831 90.8374 224.478 90.8374C223.969 90.8374 223.015 91.219 221.616 91.9822C217.291 94.3355 212.203 95.5121 206.352 95.5121C196.43 95.5121 188.384 92.2366 182.215 85.6858C176.046 79.1349 172.961 70.9304 172.961 61.0723C172.961 51.1505 176.205 42.946 182.692 36.4587C189.179 29.9079 197.607 26.6324 207.973 26.6324Z" fill="white"/>
<path d="M246.4 94.8443C245.51 94.8443 245.064 94.4627 245.064 93.6995C245.064 92.8727 245.414 92.3956 246.114 92.2684L247.736 92.0776C250.343 91.7596 251.647 90.4558 251.647 88.1662V33.9783C251.647 31.6887 250.184 30.4167 247.259 30.1623L244.492 29.8761C243.792 29.7489 243.443 29.3354 243.443 28.6358C243.443 27.7454 243.888 27.3002 244.778 27.3002L255.559 27.6818L265.003 27.3002C265.957 27.3002 266.434 27.6818 266.434 28.445C266.434 29.3354 266.021 29.8125 265.194 29.8761L263.572 30.1623C261.028 30.6075 259.756 31.8795 259.756 33.9783V88.1662C259.756 89.311 260.17 90.2332 260.996 90.9328C261.823 91.5688 262.841 91.9504 264.049 92.0776L266.816 92.2684C267.579 92.2684 267.961 92.6819 267.961 93.5087C267.961 93.8903 267.802 94.2083 267.484 94.4627C267.229 94.7171 266.943 94.8443 266.625 94.8443L255.845 94.4627L246.4 94.8443Z" fill="white"/>
<path d="M329.34 80.2479V33.9783C329.34 31.7523 327.909 30.4803 325.047 30.1623L322.281 29.8761C321.581 29.7489 321.231 29.3036 321.231 28.5404C321.231 27.7772 321.676 27.3956 322.567 27.3956L331.821 27.6818L339.262 27.3956C340.216 27.3956 340.693 27.7772 340.693 28.5404C340.693 29.3036 340.28 29.7489 339.453 29.8761L337.831 30.1623C335.287 30.6075 334.015 31.8795 334.015 33.9783V94.3673C334.015 95.1305 333.665 95.5121 332.965 95.5121H331.725C330.135 95.5121 328.768 94.7489 327.623 93.2225L287.459 41.8012C287.332 41.674 287.141 41.6104 286.887 41.6104C286.632 41.6104 286.505 41.9284 286.505 42.5644V88.1662C286.505 90.265 287.777 91.537 290.321 91.9822L291.943 92.2684C292.77 92.3956 293.183 92.8409 293.183 93.6041C293.183 94.3673 292.706 94.7489 291.752 94.7489L284.311 94.4627L275.057 94.7489C274.167 94.7489 273.721 94.3673 273.721 93.6041C273.721 92.8409 274.071 92.3956 274.771 92.2684L277.537 91.9822C280.463 91.6642 281.926 90.3922 281.926 88.1662V33.9783C281.926 31.7523 280.654 30.4803 278.11 30.1623L276.393 29.9715C275.629 29.8443 275.248 29.399 275.248 28.6358C275.248 27.809 275.725 27.3956 276.679 27.3956L284.311 27.6818C286.155 27.7454 287.554 28.3496 288.508 29.4944L328.291 80.5341C328.482 80.7249 328.704 80.8203 328.959 80.8203C329.213 80.8203 329.34 80.6295 329.34 80.2479Z" fill="white"/>
<path d="M383.31 26.6324C388.653 26.6324 393.487 27.3638 397.811 28.8266C402.2 30.2895 404.394 31.7205 404.394 33.1197V43.9954C404.394 44.4406 404.235 44.8858 403.917 45.331C403.663 45.7127 403.313 45.9035 402.868 45.9035C401.786 45.9035 401.087 45.2675 400.769 43.9954C399.624 39.7342 397.493 36.3951 394.377 33.9783C391.261 31.5615 387.572 30.3531 383.31 30.3531C375.424 30.3531 369.127 32.9925 364.421 38.2714C359.778 43.5502 357.457 50.2601 357.457 58.401C357.457 63.7435 358.506 68.8952 360.605 73.856C362.704 78.8169 365.693 82.9191 369.573 86.1628C373.516 89.3428 377.841 90.9328 382.547 90.9328C387.317 90.9328 391.324 89.9788 394.568 88.0708C397.875 86.0992 399.529 84.0321 399.529 81.8697V70.04C399.529 67.6231 398.098 66.3511 395.236 66.2239L390.084 65.9377C389.384 65.9377 389.035 65.5243 389.035 64.6975C389.035 63.8071 389.448 63.3619 390.275 63.3619L403.249 63.7435L412.694 63.3619C413.584 63.3619 414.03 63.7435 414.03 64.5067C414.03 65.3971 413.648 65.8741 412.885 65.9377L411.263 66.2239C408.719 66.6691 407.447 67.9411 407.447 70.04V88.4524L408.019 93.7949C408.147 94.9397 407.67 95.5121 406.588 95.5121C405.889 95.5121 405.316 95.0987 404.871 94.2719C403.853 91.9822 402.168 90.8374 399.815 90.8374C399.306 90.8374 398.352 91.219 396.953 91.9822C392.628 94.3355 387.54 95.5121 381.689 95.5121C371.767 95.5121 363.721 92.2366 357.552 85.6858C351.383 79.1349 348.298 70.9304 348.298 61.0723C348.298 51.1505 351.542 42.946 358.029 36.4587C364.516 29.9079 372.944 26.6324 383.31 26.6324Z" fill="white"/>
<path d="M110.029 208.207C109.774 208.97 109.107 209.352 108.025 209.352C106.944 209.352 106.245 208.97 105.927 208.207L85.3199 147.818C84.4931 145.465 82.6805 144.161 79.8821 143.906L77.8786 143.716C77.6242 143.716 77.4016 143.588 77.2108 143.334C77.02 143.08 76.9246 142.825 76.9246 142.571C76.9246 141.617 77.3698 141.14 78.2602 141.14L87.9912 141.521L98.5807 141.14C99.4711 141.14 99.9163 141.521 99.9163 142.285C99.9163 143.175 99.5347 143.652 98.7715 143.716L96.5773 143.906C95.4961 143.97 94.7011 144.383 94.1922 145.147C93.747 145.91 93.6834 146.8 94.0014 147.818L109.647 195.614L127.106 142.38C127.36 141.553 128.091 141.14 129.3 141.14C130.508 141.14 131.24 141.553 131.494 142.38L148.857 195.614L164.598 147.818C164.916 146.737 164.821 145.846 164.312 145.147C163.867 144.383 163.072 143.97 161.927 143.906L159.828 143.716C159.001 143.588 158.588 143.175 158.588 142.475C158.588 141.585 159.065 141.14 160.019 141.14L168.319 141.521L177.001 141.14C177.891 141.14 178.336 141.585 178.336 142.475C178.336 143.302 177.986 143.716 177.287 143.716L175.474 143.906C172.548 144.288 170.704 145.592 169.941 147.818L149.239 208.207C148.984 208.97 148.317 209.352 147.235 209.352C146.154 209.352 145.454 208.97 145.136 208.207L127.583 156.022L110.029 208.207Z" fill="white"/>
<path d="M284.957 147.818V199.525C284.957 200.861 285.371 201.942 286.198 202.769C287.088 203.532 288.233 203.914 289.632 203.914H303.465C306.836 203.914 309.73 203.119 312.147 201.529C314.564 199.875 316.217 197.49 317.108 194.374C317.426 193.356 318.093 192.847 319.111 192.847C320.129 192.847 320.574 193.42 320.447 194.564L318.92 204.486C318.793 205.567 318.348 206.49 317.585 207.253C316.821 207.952 315.836 208.302 314.627 208.302H280.76L269.979 208.684C269.089 208.684 268.644 208.27 268.644 207.444C268.644 206.553 268.994 206.108 269.693 206.108L272.46 205.917C273.732 205.79 274.781 205.408 275.608 204.772C276.435 204.073 276.848 203.151 276.848 202.006V147.818C276.848 145.528 275.386 144.256 272.46 144.002L269.693 143.716C268.994 143.588 268.644 143.175 268.644 142.475C268.644 141.585 269.089 141.14 269.979 141.14L280.76 141.521L290.204 141.14C291.159 141.14 291.636 141.521 291.636 142.285C291.636 143.175 291.222 143.652 290.395 143.716L288.773 144.002C286.229 144.447 284.957 145.719 284.957 147.818Z" fill="white"/>
<path d="M375.946 154.114C376.074 155.259 375.596 155.832 374.515 155.832C373.498 155.832 372.83 155.323 372.512 154.305C371.558 151.252 370.127 149.09 368.219 147.818C366.311 146.546 363.671 145.91 360.301 145.91H346.277C344.877 145.91 343.733 146.323 342.842 147.15C342.015 147.913 341.602 148.994 341.602 150.394V171.382C341.602 172.209 342.015 172.622 342.842 172.622H359.633C360.46 172.622 361.127 172.431 361.636 172.05C362.209 171.605 362.558 171.159 362.686 170.714C362.876 170.269 363.131 169.569 363.449 168.615L363.83 167.375C364.021 166.676 364.435 166.326 365.071 166.326C365.961 166.326 366.406 166.739 366.406 167.566L366.025 175.77L366.406 183.689C366.406 184.579 365.993 185.024 365.166 185.024C364.403 185.024 363.958 184.643 363.83 183.88L363.544 182.162C363.29 180.509 362.876 179.268 362.304 178.442C361.795 177.615 360.905 177.201 359.633 177.201H342.747C341.983 177.201 341.602 177.647 341.602 178.537V202.006C341.602 204.359 343.001 205.663 345.8 205.917L348.662 206.108C349.425 206.108 349.806 206.49 349.806 207.253C349.806 208.207 349.329 208.684 348.375 208.684L337.404 208.302L326.624 208.684C325.733 208.684 325.288 208.27 325.288 207.444C325.288 206.553 325.638 206.108 326.338 206.108L329.104 205.917C330.376 205.79 331.426 205.408 332.253 204.772C333.079 204.073 333.493 203.151 333.493 202.006V147.818C333.493 145.528 332.03 144.256 329.104 144.002L326.338 143.716C325.638 143.716 325.288 143.302 325.288 142.475C325.288 141.585 325.733 141.14 326.624 141.14L337.404 141.521H370.318C371.526 141.521 372.512 141.903 373.275 142.666C374.038 143.366 374.484 144.256 374.611 145.337L375.946 154.114Z" fill="white"/>
<path fill-rule="evenodd" clip-rule="evenodd" d="M192.336 135.25C192.336 135.25 191.883 134.093 189.931 131.995C191.701 131.182 190.657 131.524 191.202 130.582C190.657 130.967 190.657 131.524 190.657 131.524C190.657 131.524 195.922 130.496 193.925 131.182C194.833 133.408 190.249 134.179 191.247 135.978C191.202 133.494 192.155 134.479 193.29 134.136C193.335 134.008 194.197 133.494 195.332 134.736C192.654 135.592 194.197 136.406 192.79 136.748C194.061 135.849 195.241 137.134 194.379 134.136C194.243 136.363 195.241 136.406 196.149 133.922C194.742 134.693 200.007 134.179 201.142 137.177C200.96 136.706 202.095 136.106 203.547 138.204C201.777 136.577 204.682 137.947 203.093 138.376C203.093 137.005 204.137 138.29 206.997 136.235C207.405 135.078 206.361 133.837 207.405 133.537C208.585 134.779 208.631 134.179 208.631 135.335C208.631 137.862 205.771 139.403 205.408 139.403C205.09 139.403 204.682 139.018 204.682 139.018C204.682 139.018 204.228 137.348 205.59 137.005C205.227 137.862 206.225 137.648 205.136 138.29C207.314 141.502 206.861 141.159 205.953 142.187C205.045 142.957 205.635 143.086 205.635 143.086C205.635 143.086 206.588 145.527 206.452 145.013C205.59 145.912 205.817 142.529 204.092 142.272C204.183 141.587 203.048 140.388 200.325 140.945C203.547 140.431 201.732 140.26 202.866 143.3C200.189 140.774 198.282 138.847 198.872 138.675C199.825 140.174 200.642 140.046 200.642 140.046C200.642 140.046 196.739 138.718 198.373 140.859C196.194 138.633 190.339 139.617 189.795 135.721C190.521 136.02 191.746 137.862 191.202 138.333C189.477 136.748 191.429 136.02 189.84 137.305C187.162 134.779 191.61 135.292 192.427 135.292L192.336 135.25Z" fill="#737476"/>
<path fill-rule="evenodd" clip-rule="evenodd" d="M207.225 143.514L207.996 144.37C207.996 144.37 207.996 146.597 209.449 148.182C209.449 148.61 210.311 148.053 211.582 150.323C209.721 149.852 210.22 149.852 209.812 149.852C209.812 149.809 211.627 151.093 210.357 148.481C211.945 150.665 213.171 148.096 212.127 149.637C215.258 149.68 216.892 148.01 216.756 147.496C215.803 149.166 217.346 150.622 217.346 150.622C217.346 150.622 215.304 149.209 218.572 145.098C219.343 146.255 215.848 149.552 215.848 149.552C215.848 149.552 219.797 144.285 219.797 143.171C218.299 144.456 218.254 143.171 217.301 144.97C220.115 143.728 218.617 142.743 218.209 140.516C216.393 137.862 215.667 137.176 214.895 135.977C215.894 134.136 215.485 135.763 217.709 139.489C216.665 137.519 215.894 139.146 215.894 139.146C215.894 139.146 211.809 130.411 215.803 128.184C214.033 127.584 212.898 129.768 212.626 134.736C210.992 133.622 210.357 129.94 212.808 126C209.721 127.584 210.992 132.338 211.809 132.081C209.63 131.61 207.588 135.421 208.45 135.249C211.31 134.736 210.992 135.935 214.532 136.577C213.942 137.262 217.346 141.587 215.803 141.587C216.756 141.459 214.623 141.287 215.848 141.287C215.258 141.544 215.939 141.93 214.941 142.743C215.848 143.6 214.986 145.698 216.756 145.484C217.301 146.94 214.986 145.698 214.986 145.698C214.986 145.698 216.575 144.884 216.166 145.698C212.081 144.713 212.989 147.625 214.305 148.867C212.172 147.539 212.717 146.597 211.945 147.668C210.538 148.867 212.808 147.882 214.532 149.637C214.532 147.796 211.491 146.597 212.944 148.353C211.128 149.68 207.906 146.64 208.178 146.126C208.768 143.942 209.676 147.967 209.993 147.882C208.223 148.353 207.906 145.527 207.951 144.456C207.906 145.741 207.996 143.557 207.996 143.557H207.225V143.514Z" fill="#737476"/>
<path fill-rule="evenodd" clip-rule="evenodd" d="M239.994 135.078C239.994 135.078 242.898 134.136 244.124 136.662C244.85 136.534 247.528 136.405 247.755 139.488C244.759 138.118 246.802 139.488 244.578 137.818C245.213 137.005 240.901 138.718 240.901 138.718C240.901 138.718 244.668 138.718 245.849 138.975C247.119 139.231 245.168 138.418 245.168 138.418C245.168 138.418 246.439 138.76 242.853 140.473C242.853 138.247 242.172 140.602 242.172 140.602C242.172 140.602 242.762 140.302 241.718 139.146C243.171 141.672 238.813 146.169 237.225 147.41C240.901 145.826 241.219 144.713 241.219 144.713C241.219 144.713 238.042 145.826 237.815 147.453C236.816 148.31 239.403 145.312 241.174 147.582C241.083 143.428 243.171 144.284 242.399 141.758C245.894 141.886 246.575 142.614 244.895 141.972C247.619 140.602 241.9 142.4 241.9 142.4C241.9 142.4 248.299 140.944 252.021 141.03C255.062 139.274 253.791 140.302 253.791 140.302C253.791 140.302 259.102 140.944 262.143 133.879C261.462 135.206 259.147 137.647 258.33 138.932C258.194 139.017 260.6 135.378 261.008 136.277C258.376 135.035 257.059 136.277 254.427 136.577C256.969 136.962 259.147 136.662 259.147 136.662C259.147 136.662 257.695 137.776 252.294 136.448C247.437 135.592 245.077 134.607 239.994 134.992V135.078Z" fill="#737476"/>
<path fill-rule="evenodd" clip-rule="evenodd" d="M231.549 145.525C231.549 145.525 232.956 148.694 230.46 148.694C229.325 148.694 231.64 145.397 231.64 145.397C231.64 145.397 228.417 146.51 229.28 148.651C231.231 148.694 231.231 147.666 231.231 144.369C231.231 143.727 228.463 141.543 229.28 140.9C230.097 139.316 234.726 135.419 232.82 134.22C234.772 135.205 235.997 134.434 237.45 135.719C238.312 132.679 239.583 133.706 238.13 131.18C237.223 132.722 237.313 133.921 236.542 136.49C234.409 137.346 236.269 136.404 233.183 137.089C234.908 137.346 230.414 141.329 230.414 141.329C230.414 141.329 234 139.445 232.82 137.389C235.543 139.402 235.044 140.087 233.319 140.001C231.186 140.301 232.638 140.301 230.868 141.885C231.277 140.601 232.003 142.057 232.003 142.057C232.003 142.057 230.868 141.843 230.868 144.241C230.868 145.782 233.546 147.666 231.322 148.009C232.638 148.908 233.546 147.238 231.231 147.409C232.094 144.797 233.365 145.996 231.549 145.568V145.525Z" fill="#737476"/>
<path fill-rule="evenodd" clip-rule="evenodd" d="M242.135 173.532C242.135 173.532 242.271 170.92 239.276 173.703C237.188 174.731 238.822 179.527 233.693 179.527C234.238 179.527 234.782 177.857 233.466 177.728C234.782 177 236.734 176.144 236.462 176.572C234.918 175.031 231.197 178.671 231.878 178.97C230.788 180.212 226.885 179.227 226.204 179.227C226.613 179.227 225.569 181.026 223.572 178.842C221.484 178.842 222.165 178.842 222.528 178.842C223.572 178.842 223.345 178.842 222.664 178.842C221.983 181.026 221.302 179.227 219.577 179.227C218.17 179.227 213.087 179.527 212.088 179.527C208.866 179.527 208.594 174.731 206.052 173.703C203.51 170.92 203.646 173.532 203.646 173.532C203.646 173.532 202.239 173.746 204.191 176.487C205.734 177 205.19 181.711 203.782 182.995C206.097 186.378 207.504 194.215 206.506 198.325C207.867 199.353 207.822 208.902 208.594 210.615C212.361 214.897 211.362 222.134 222.618 222.991V222.134C223.299 222.991 223.572 222.991 222.482 222.991C221.665 222.991 221.393 222.991 223.526 222.134V222.991C234.782 222.134 234.964 214.897 237.097 210.615C238.323 208.902 237.369 199.353 238.504 198.325C237.687 194.172 239.639 186.378 242.362 182.995C240.955 181.711 239.503 177 243.134 176.487C242.816 173.703 242.09 173.532 242.09 173.532H242.135Z" fill="#373435" stroke="#737476" stroke-width="0.0185747" stroke-linejoin="round"/>
<path fill-rule="evenodd" clip-rule="evenodd" d="M231.551 208.345C231.461 210.443 228.874 212.37 227.285 212.755C228.919 211.985 228.42 212.584 228.42 212.584L227.693 209.972C225.606 212.199 226.695 209.929 225.288 211.128C226.695 211.471 226.695 214.854 227.603 213.869C225.696 213.869 228.556 212.199 228.556 212.199L228.964 214.682C228.964 214.682 226.377 214.126 228.465 215.838C228.011 216.224 228.374 213.612 229.237 214.511C228.783 213.612 228.283 213.612 229.691 213.612C227.285 213.612 230.598 215.796 230.054 213.612C228.647 213.612 228.647 215.796 229.509 215.796C231.37 215.796 230.916 215.796 229.963 213.612C230.598 213.612 228.102 213.612 230.871 213.612C229.237 213.612 228.057 215.753 229.464 217.551C229.917 214.939 229.464 217.508 229.464 215.753C229.464 217.037 228.964 215.239 230.825 217.337C230.825 218.622 231.143 217.294 231.098 216.866C231.007 218.665 231.869 217.808 232.096 213.398C234.093 211.642 231.642 208.345 231.642 208.345H231.551Z" fill="#FEFEFE"/>
<path fill-rule="evenodd" clip-rule="evenodd" d="M219.151 211.128C217.699 209.929 218.788 212.199 217.653 209.972L217.381 212.584C217.381 212.584 216.428 212.455 216.7 212.755C216.473 212.327 212.161 210.443 213.296 208.345C213.296 208.345 209.484 211.642 212.388 213.398C214.839 217.808 213.024 218.665 213.387 216.866C213.296 217.294 217.381 218.622 214.113 217.337C216.428 215.239 215.339 217.08 215.066 215.753C215.066 217.508 215.021 214.896 215.021 217.551C216.428 215.753 215.021 213.612 217.336 213.612C216.836 213.612 215.883 213.612 218.243 213.612C217.29 215.796 216.337 215.796 214.93 215.796C216.292 215.796 215.838 213.612 215.838 213.612C217.653 215.796 216.564 213.612 218.062 213.612C216.655 213.612 215.702 213.612 218.47 214.511C216.564 213.612 216.927 216.267 218.198 215.838C218.062 214.083 219.242 214.682 219.242 214.682L215.475 212.199C215.475 212.199 218.243 213.869 219.605 213.869C217.245 214.853 218.243 211.428 219.151 211.128Z" fill="#FEFEFE"/>
<path fill-rule="evenodd" clip-rule="evenodd" d="M226.891 217.381C225.03 215.583 222.852 217.339 222.852 217.339C222.852 217.339 224.213 217.339 226.392 217.767C223.669 218.58 225.303 216.011 222.716 217.767C224.44 215.583 224.94 216.91 223.805 218.666C223.896 215.583 222.625 217.895 221.672 217.767C222.307 218.58 221.309 217.553 224.032 217.51C222.126 219.651 225.121 217.938 224.032 218.366C225.711 217.981 227.164 218.238 227.164 218.238C225.348 217.852 225.439 214.812 226.891 217.381Z" fill="#FEFEFE"/>
<path fill-rule="evenodd" clip-rule="evenodd" d="M221.308 218.665C223.169 215.624 224.077 217.252 224.122 216.053C222.67 217.851 219.629 216.395 220.582 218.665C221.127 216.909 220.446 215.581 222.761 217.765C223.305 216.01 220.763 218.579 220.491 217.765C220.763 217.337 221.626 217.337 221.626 217.337C221.626 217.337 219.356 215.624 221.717 217.38C219.402 214.811 219.039 217.851 220.037 218.236C220.037 218.236 218.721 217.979 220.854 218.365C219.765 217.894 222.307 219.65 224.122 217.508C222.715 217.979 221.308 219.735 223.623 220.163C222.261 217.894 221.807 217.765 221.308 218.665Z" fill="#FEFEFE"/>
<path fill-rule="evenodd" clip-rule="evenodd" d="M230.823 215.796C228.145 214.469 227.782 217.124 228.735 214.897C227.827 216.182 226.511 214.383 226.511 214.383C226.511 214.383 227.374 215.711 227.782 217.381C229.688 214.726 227.555 216.053 224.877 216.995C228.1 216.995 227.601 217.423 226.602 216.139C227.601 216.139 224.06 214.426 224.106 217.423C226.874 215.24 224.968 216.096 225.876 216.91C225.83 217.381 228.191 216.91 227.283 217.809C226.33 218.708 227.691 218.58 226.784 217.595C225.377 218.494 227.646 218.494 227.646 218.494C227.646 218.494 228.418 217.98 227.328 219.779C230.415 218.537 230.868 215.796 230.868 215.796H230.823Z" fill="#FEFEFE"/>
<path fill-rule="evenodd" clip-rule="evenodd" d="M233.184 180.596C231.323 180.596 230.415 179.739 232.276 179.739L230.37 179.225C230.37 179.225 228.827 180.039 228.509 181.281C228.328 182.565 227.238 180.339 226.875 180.767C226.875 182.094 229.235 181.238 228.782 179.91C227.828 181.195 228.736 181.067 226.921 181.837C229.235 184.449 229.19 183.079 226.83 185.263C230.007 183.764 229.054 182.865 229.644 184.407C231.323 182.779 233.184 180.553 233.184 180.553V180.596Z" fill="#FEFEFE"/>
<path fill-rule="evenodd" clip-rule="evenodd" d="M226.969 181.24C226.56 182.996 224.018 182.054 223.565 182.054C224.018 182.054 224.064 182.054 220.841 182.054C222.203 182.91 222.521 181.626 221.295 181.626C223.565 184.109 223.701 184.066 223.201 185.608C224.563 183.381 224.109 185.608 224.064 183.81C226.923 186.55 226.016 184.923 227.604 183.338C229.284 183.467 227.468 182.953 227.468 182.953C229.329 180.769 226.833 179.913 226.969 181.197V181.24Z" fill="#FEFEFE"/>
<path fill-rule="evenodd" clip-rule="evenodd" d="M216.677 181.624C218.22 181.624 213.591 179.184 213.591 179.184C213.591 179.184 213.999 182.309 213.455 184.451C216.132 184.793 217.766 184.665 214.952 182.995C216.768 184.75 217.676 184.493 216.178 181.881C215.27 181.967 216.178 181.196 217.539 181.624C216.178 181.624 215.724 181.624 216.722 181.624H216.677Z" fill="#FEFEFE"/>
<path fill-rule="evenodd" clip-rule="evenodd" d="M221.753 181.581C221.798 183.337 223.16 180.297 221.344 182.052C222.343 182.052 218.848 181.581 217.078 181.581C217.532 182.309 217.577 182.994 219.211 183.337C219.71 187.105 221.617 187.062 223.659 183.808C223.568 182.994 222.116 181.024 221.753 181.581Z" fill="#FEFEFE"/>
<path fill-rule="evenodd" clip-rule="evenodd" d="M237.496 178.457C237.406 180.298 237.678 178.971 237.678 178.971C237.678 178.971 232.594 178.928 232.685 180.127C233.003 182.568 233.003 184.152 233.003 184.152C233.003 184.152 231.233 182.097 232.231 180.898C231.778 180.341 230.461 183.638 230.098 184.066C232.413 185.265 232.867 182.611 233.321 183.467L233.638 187.15C233.638 187.15 231.278 182.182 232.231 181.54C233.502 184.452 234.319 189.59 232.685 191.218C232.685 191.218 236.679 190.061 237.496 184.752C236.452 182.225 236.997 181.883 237.451 178.414L237.496 178.457Z" fill="#FEFEFE"/>
<path fill-rule="evenodd" clip-rule="evenodd" d="M213.135 183.723C213.634 182.01 213.634 181.196 212.227 180.425C212.772 183.38 212.817 184.151 212.817 184.151C212.817 184.151 211.955 182.566 212.182 180.126C212.726 178.927 211.41 178.969 211.41 178.969C211.41 178.969 211.047 180.297 207.371 178.456C207.87 181.924 207.371 182.267 207.824 184.793C209.095 190.06 212.136 191.259 212.136 191.259C212.136 187.448 210.911 185.264 213.135 183.765V183.723Z" fill="#FEFEFE"/>
<path fill-rule="evenodd" clip-rule="evenodd" d="M204.097 175.927C204.097 175.927 208.136 179.182 208.5 179.096C209.362 179.824 208.227 182.265 208.5 180.081C208.182 180.21 205.459 178.54 207.864 178.54C206.82 179.61 209.453 181.751 206.639 181.237C206.639 181.537 208.454 185.648 209.861 185.905C207.138 186.162 209.68 189.159 208.273 193.998C208.636 194.641 208.726 192.028 208.726 192.028C208.726 192.028 212.221 195.368 210.406 199.822C209.77 203.59 209.135 211.469 210.406 212.497C208.726 210.656 208.409 211.641 209.816 197.338C210.633 197.338 210.633 200.293 210.633 201.449C210.633 200.464 210.633 206.93 210.542 208.6C208 204.532 209.634 199.351 208.726 200.379C211.041 199.222 210.633 196.696 209.816 196.782C208 195.154 208.953 192.2 208.136 191.472C205.912 191.986 207.002 186.247 204.278 185.263C204.823 183.036 204.278 176.399 204.142 176.013L204.097 175.927Z" fill="#737476"/>
<path fill-rule="evenodd" clip-rule="evenodd" d="M204.595 175.97C204.595 175.97 205.321 181.28 202.598 182.222C203.96 186.718 204.096 188.56 204.096 188.56C204.096 188.56 204.595 187.061 202.008 182.608C203.097 181.623 198.604 178.069 195.79 179.011C196.607 178.711 200.419 177.555 202.008 178.026C202.008 176.827 203.233 176.613 204.64 175.927L204.595 175.97Z" fill="#737476"/>
<path fill-rule="evenodd" clip-rule="evenodd" d="M204.767 198.026C205.584 198.925 208.625 199.953 208.625 199.953C208.625 199.953 205.539 198.925 205.266 198.24C204.767 198.24 207.309 199.31 207.309 199.31C207.309 199.31 207.354 199.182 205.221 196.784C205.085 196.27 206.9 197.041 206.9 197.041C206.9 197.041 206.401 197.212 206.129 193.958C203.995 192.459 201.408 189.718 202.271 187.534C203.269 188.476 203.269 189.847 203.269 189.847C203.269 189.847 200.228 186.721 196.688 181.454C196.688 181.454 200.455 186.721 203.042 188.434C202.316 191.474 203.542 193.615 205.675 196.784C205.312 195.028 204.585 192.288 202.498 191.817C201.771 191.902 204.041 197.555 205.675 196.955C202.18 196.57 202.271 195.157 199.593 197.212C201.181 194.985 203.269 194.985 203.859 197.212C203.496 199.096 202.044 196.827 198.867 196.827C199.502 199.096 203.178 196.056 205.675 200.081C205.448 199.824 208.625 200.595 206.764 202.265C206.764 200.595 207.763 198.754 204.767 198.026Z" fill="#737476"/>
<path fill-rule="evenodd" clip-rule="evenodd" d="M200.591 191.946C200.591 191.946 200.455 191.946 200.773 190.704C199.82 190.276 198.231 187.364 198.231 187.364C198.231 187.364 202.543 188.606 200.137 191.988C202.089 186.55 196.053 182.182 196.053 182.182C197.142 183.767 196.688 186.379 197.505 187.15C198.504 187.064 197.596 185.651 198.095 187.15C195.735 187.963 198.504 190.318 195.735 191.603C196.597 187.193 194.055 186.764 191.196 185.994C195.19 186.208 195.508 189.89 197.641 192.802C199.32 192.031 201.227 196.142 200.591 193.958C199.094 192.417 200.591 191.988 200.591 191.988V191.946Z" fill="#737476"/>
<path fill-rule="evenodd" clip-rule="evenodd" d="M241.183 175.97C241.183 175.97 240.911 181.28 242.772 182.222C241.319 186.718 239.64 188.56 239.64 188.56C239.64 188.56 241.183 187.061 243.816 182.608C244.179 181.623 247.174 178.069 247.901 179.011C249.625 178.711 244.905 177.555 243.816 178.026C242 176.827 242.59 176.613 241.183 175.927V175.97Z" fill="#737476"/>
<path fill-rule="evenodd" clip-rule="evenodd" d="M241.947 187.791C242.446 189.247 243.4 189.847 243.4 189.847C243.4 189.847 243.4 187.063 243.445 189.718C243.445 189.718 243.445 189.718 242.719 189.718C242.537 188.006 243.944 188.006 242.038 189.333C243.899 190.189 242.038 190.189 243.899 190.189C243.899 190.189 244.353 189.333 241.993 189.333C243.899 189.333 242.038 188.006 243.853 187.534H244.307C241.993 187.92 242.946 190.104 241.993 187.791C241.493 190.489 243.127 192.031 240.495 193.915C238.407 197.169 240.177 196.998 240.177 196.998C240.177 196.998 241.947 196.227 242.719 196.741C239.723 199.139 239.769 199.268 239.769 199.268C239.769 199.268 241.811 198.197 241.357 198.197C240.631 198.882 238.861 199.91 238.861 199.91C238.861 199.91 241.493 198.882 241.811 197.983C239.224 198.711 240.268 200.552 239.36 202.222C237.953 200.552 241.176 199.781 241.856 200.038C243.853 196.013 247.031 199.096 246.35 196.784C244.988 196.784 242.492 199.053 243.173 197.169C243.354 194.985 246.304 194.985 246.94 197.169C241.039 195.114 241.584 196.527 241.811 196.912C242.038 197.512 242.719 191.859 244.489 191.774C242.401 192.245 241.221 194.985 241.811 196.741C241.539 196.056 241.493 189.975 244.807 187.32C244.534 189.119 243.127 190.018 244.534 189.119C243.127 188.733 242.9 188.691 244.035 188.691C244.398 187.834 245.034 187.449 246.35 186.592C245.669 188.776 244.897 186.592 243.99 188.348C246.985 186.635 251.479 181.368 251.479 181.368H248.211H251.479C251.025 183.124 249.663 183.552 251.569 183.98C251.07 183.509 248.528 181.325 249.209 182.225C247.848 181.796 250.662 183.509 249.028 183.466C250.208 184.794 249.799 181.283 250.208 183.038C247.439 182.61 248.392 182.139 248.438 183.895C249.391 183.895 248.892 182.567 249.391 183.466C246.622 185.222 247.575 184.751 248.483 183.381C247.575 184.708 249.89 182.053 249.89 183.424C248.982 184.708 246.713 185.136 249.028 182.524C249.482 184.708 246.713 184.237 248.075 184.237C247.212 183.338 246.35 183.681 246.395 185.864C248.256 185.008 245.034 184.537 245.941 183.21C245.987 186.293 245.987 184.066 247.484 183.167C246.94 185.822 248.301 185.351 245.079 185.179C246.395 185.779 246.849 186.378 244.625 186.635L246.032 185.779C245.397 187.663 243.672 190.061 241.902 187.749H241.856L241.947 187.791Z" fill="#737476"/>
<path fill-rule="evenodd" clip-rule="evenodd" d="M249.72 182.653C249.72 182.653 250.673 182.653 251.127 185.308C248.358 182.182 250.219 182.225 251.626 182.61C248.858 184.066 251.127 183.937 248.812 182.61C249.765 182.61 247.905 183.509 249.765 183.038C250.719 185.222 249.539 184.366 247.905 182.567C248.858 182.567 250.265 182.61 247.496 182.139C248.404 184.323 249.402 182.096 250.809 183.424C248.041 185.136 250.809 182.952 248.495 182.952C250.809 182.053 249.947 184.237 248.54 182.91C247.133 184.623 248.54 183.766 247.133 185.95C249.947 183.338 249.539 185.522 249.493 184.623C246.724 183.295 248.131 185.479 246.724 184.151C249.992 185.479 248.268 182.867 249.584 184.151C247.723 183.295 249.13 182.824 247.269 184.151C247.723 185.051 247.768 183.252 248.222 182.824C249.175 185.864 246.407 185.008 247.768 183.209C249.175 184.537 246.407 186.293 247.36 184.066C247.814 186.25 247.814 186.25 247.859 186.25C245.59 185.736 246.724 184.323 246.724 185.993C246.225 185.094 245.817 185.051 246.815 188.134C244.455 188.134 244.455 185.65 244.5 185.65C245.408 186.764 246.861 185.864 247.768 184.965C247.768 187.62 247.768 187.62 247.768 187.62C246.452 188.434 243.683 189.633 244.682 187.748C244.682 189.932 245.136 189.932 245.136 189.461C244.546 187.706 243.32 190.318 244.727 188.134C245.181 190.275 245.681 188.091 244.818 187.62C243.366 190.618 245.681 189.633 242.912 191.817C244.228 188.434 248.495 187.192 248.495 187.192C248.495 187.192 246.498 190.061 245.59 190.532C246.361 191.774 246.271 191.774 246.271 191.774C246.271 191.774 247.768 192.202 242.503 193.743C246.543 195.97 248.404 191.859 250.083 192.587C248.177 189.59 250.9 190.104 250.809 188.305C249.584 189.419 249.856 189.033 251.717 189.89C248.994 188.605 250.809 189.932 251.263 188.177C249.902 189.932 252.171 187.748 248.903 186.892C249.856 188.648 251.218 187.363 250.9 187.791C248.858 188.262 248.858 188.691 250.31 186.935C248.903 188.691 252.126 186.978 251.672 186.078C252.08 188.691 251.218 187.834 250.673 188.733C250.673 187.406 250.219 189.162 250.673 186.121C252.761 186.549 250.628 186.121 250.174 188.348C250.628 186.592 250.219 187.063 250.174 186.335C252.489 187.963 250.628 187.106 250.219 187.534C251.989 188.862 251.536 186.25 251.944 187.577C252.897 188.005 249.629 187.62 251.036 187.577C250.537 186.207 250.582 184.965 250.083 186.293C253.306 185.008 251.717 186.293 252.806 187.021C252.307 185.479 250.219 185.907 250.9 186.764C252.307 186.335 252.262 185.479 252.262 185.051C251.354 185.051 250.9 185.479 253.26 185.95C251.672 186.335 252.443 186.421 254.077 184.665C251.989 185.136 250.809 186.849 253.623 185.094C253.124 185.522 250.809 185.136 252.625 185.094C252.126 185.565 254.44 186.849 252.579 183.809C254.894 186.892 252.534 186.036 253.941 185.136C252.988 185.136 253.079 186.892 252.534 185.565C253.896 186.464 255.257 184.708 251.989 185.179C255.257 184.965 253.896 185.65 252.943 184.751C252.897 184.366 252.171 185.179 253.805 183.466C253.351 186.121 253.805 185.222 255.666 186.078C256.12 182.995 256.12 185.265 255.62 184.366C254.667 185.222 252.806 185.222 256.074 185.693C253.26 183.895 255.62 185.222 253.306 186.121C254.667 185.265 256.074 185.265 254.713 185.265C254.213 186.121 253.805 184.794 255.076 185.693C255.666 185.565 254.259 183.509 252.897 183.038C252.398 185.222 255.257 186.078 254.803 183.937C253.396 186.121 251.989 186.121 254.304 184.066C253.805 186.121 252.943 185.693 252.443 183.895C254.803 183.038 252.943 186.078 254.758 184.366C251.989 185.222 252.443 186.121 252.988 185.179C253.896 185.179 253.896 185.179 254.803 184.323C254.849 186.935 253.941 184.323 253.487 185.607C254.894 184.751 254.713 184.28 253.669 186.935C253.987 186.464 251.399 186.036 253.487 184.708C251.672 184.237 250.719 184.237 252.579 185.565C251.989 185.565 251.218 183.809 253.987 186.849C252.579 185.993 250.764 185.522 252.579 186.849C252.126 185.522 252.126 185.094 252.126 186.806C253.987 185.95 251.218 185.479 252.625 184.151C251.263 186.764 249.902 185.864 252.716 186.293C252.716 186.293 252.716 186.293 252.716 185.822C249.902 186.721 249.947 184.066 251.309 185.822C252.716 186.678 250.446 185.35 251.445 185.35C250.9 186.25 250.401 184.922 252.761 185.779C250.946 187.492 249.992 185.308 251.808 184.879C250.401 185.779 249.539 187.963 250.855 186.164C251.399 184.837 251.853 186.164 250.038 187.92C252.353 185.308 250.946 187.021 250.038 186.078C251.399 187.021 249.584 185.265 250.537 187.449C251.036 187.406 248.676 186.549 248.722 188.691C250.129 186.507 250.129 187.834 250.129 186.078C251.536 186.978 249.72 188.691 251.082 186.935C249.72 187.406 248.767 185.607 251.989 185.65C252.035 187.406 249.675 185.607 250.265 187.834C248.767 188.691 251.082 188.262 249.72 186.078C250.673 186.978 251.581 188.691 248.358 187.834C251.127 187.791 249.312 189.119 251.581 189.162C249.266 186.935 249.72 188.262 250.673 186.507C248.812 187.363 251.172 188.262 249.72 189.119C248.903 188.691 250.219 187.791 248.903 188.648C250.219 187.32 251.172 189.504 249.175 187.32C249.811 188.605 247.905 187.277 248.858 187.706C250.764 189.033 249.584 188.605 247.451 188.819C247.496 187.663 247.451 188.562 250.764 187.235C249.357 186.764 247.995 187.663 247.496 187.192C249.402 188.262 249.13 190.275 248.903 189.376C247.541 189.376 249.856 188.091 247.995 188.947C247.995 188.947 249.584 188.905 250.764 188.947C248.449 189.804 247.541 189.376 248.449 190.232C249.402 189.932 249.856 188.048 250.764 187.577C249.902 188.99 249.448 188.776 247.587 191.345C247.678 190.061 247.587 187.706 248.948 186.892C249.856 185.393 247.632 186.806 249.539 186.892C249.902 186.121 247.95 183.552 250.537 181.925C250.537 181.925 250.537 184.194 249.675 182.396L249.72 182.653Z" fill="#737476"/>
<path fill-rule="evenodd" clip-rule="evenodd" d="M251.974 157.302C248.343 158.458 247.662 157.987 245.438 157.088C246.346 157.645 246.663 156.96 247.526 157.859C248.978 156.574 248.252 157.773 247.526 157.688C246.981 156.446 248.706 157.045 247.617 155.375C246.255 155.161 243.214 160.343 244.712 160.685C242.76 162.741 242.261 162.698 240.899 161.07C241.353 160.043 241.081 162.227 242.715 159.786C242.397 159.657 241.308 161.584 238.675 159.786C241.081 157.987 240.99 159.529 243.032 160.043C243.713 158.844 244.212 154.947 247.662 154.904H246.255C246.845 154.562 244.258 155.889 242.125 157.816C243.668 158.073 241.308 160.385 241.035 157.945C239.946 157.902 240.536 156.66 242.079 158.03C241.308 157.131 240.491 157.559 241.035 155.504C237.404 155.204 237.177 157.345 235.816 155.632C237.631 156.018 237.586 158.929 238.63 158.929C236.36 158.458 235.77 158.073 234.59 159.529C233.047 159.615 236.996 158.373 239.447 159.657C237.677 159.657 237.223 160.856 237.223 160.856C237.223 160.856 239.084 160.428 237.404 159.443C239.174 161.542 239.719 161.456 239.084 159.7C237.994 159.743 238.357 162.741 237.223 160.471C237.994 159.229 240.082 162.312 240.037 162.655C239.084 159.957 240.899 162.013 239.265 163.212C240.128 163.083 234.681 164.239 234.59 167.151C236.86 164.967 236.315 165.181 241.081 164.967C241.262 162.698 242.715 168.008 239.447 170.363C240.99 170.705 239.764 172.804 239.764 172.932C241.081 173.917 239.583 170.705 239.447 170.191C239.901 173.96 239.901 173.96 239.901 173.96C239.901 173.96 243.032 170.577 244.258 170.106C244.258 173.489 241.035 174.474 241.035 174.474C241.035 174.474 245.801 174.645 245.483 169.506C243.441 171.647 244.031 172.932 244.485 173.746C245.302 174.773 246.663 170.32 244.485 169.849C244.485 169.849 245.801 171.647 248.524 169.421C245.756 171.305 246.618 167.965 246.255 167.023C245.256 166.509 246.21 167.237 245.256 169.421C246.3 166.937 243.577 164.111 246.981 165.524C246.618 162.612 241.807 164.796 244.712 164.154C242.942 164.839 242.17 163.34 242.17 163.34C242.17 163.34 241.58 162.826 241.035 162.698C242.397 162.912 245.12 158.501 246.89 157.987C245.075 157.859 246.119 158.801 245.71 158.544C245.983 159.615 250.658 157.345 251.928 157.217L251.974 157.302Z" fill="#737476"/>
<path fill-rule="evenodd" clip-rule="evenodd" d="M254.706 146.168C254.706 146.168 254.933 147.753 255.114 147.624C253.117 148.052 252.709 147.753 252.709 147.753C252.709 147.753 253.889 149.68 254.161 152.848C253.98 155.503 248.17 157.516 248.669 156.66C247.535 156.574 249.622 155.418 251.756 155.246C251.438 157.559 251.12 157.901 249.486 155.717C249.214 157.816 249.622 156.916 249.577 156.959C252.119 156.488 249.668 159.7 244.902 159.957C249.668 160.556 250.803 157.944 248.896 157.944C250.167 159.7 253.208 159.743 252.618 158.715C252.482 159.057 255.114 161.498 255.614 162.869C254.57 159.357 253.299 159.015 251.619 160.085C249.94 157.644 249.895 159.785 252.028 159.785C250.53 157.644 252.663 159.443 252.073 159.314C251.937 159.186 254.615 159.7 254.615 159.7C254.615 159.7 253.344 159.015 253.889 159.914C252.754 156.874 254.751 158.201 256.567 156.403C258.019 158.244 255.296 157.002 255.296 157.002C255.296 157.002 258.791 157.473 258.473 159.1C262.376 160.214 257.293 160 258.065 162.911C258.065 162.911 258.927 161.584 259.653 161.413C260.879 165.181 263.647 166.551 264.964 166.551C260.788 165.481 260.788 164.025 260.833 162.911C260.016 158.672 258.745 161.284 258.745 161.284C258.745 161.284 263.829 160.513 266.643 158.672C269.412 159.015 268.912 158.158 268.912 158.158C269.139 159.4 263.284 157.216 263.647 159.143C261.514 157.345 266.688 158.586 265.1 157.345C264.691 159.143 261.559 158.801 260.516 156.617C259.88 157.987 258.564 156.874 259.018 155.289C261.106 155.717 260.516 155.675 262.467 153.063C260.924 154.047 257.111 154.561 256.521 152.806C256.294 154.262 258.745 151.649 262.195 153.833C262.376 153.491 258.473 153.02 258.473 153.02C258.473 153.02 260.334 152.163 262.603 149.979C262.921 148.224 268.186 151.221 271 149.851C266.597 148.866 261.514 148.866 262.195 146.34C265.145 149.808 267.914 147.581 269.048 146.382C266.688 149.808 262.467 147.624 260.425 148.224C260.742 145.74 255.296 144.712 254.751 146.34L254.706 146.168Z" fill="#737476"/>
<path fill-rule="evenodd" clip-rule="evenodd" d="M231.791 157.73C231.655 155.247 233.879 157.473 235.059 155.247C235.059 155.247 232.381 154.99 234.015 157.902C232.381 154.733 230.111 159.743 226.072 160.942C228.523 162.612 226.117 158.886 225.754 159.828C225.754 161.156 223.349 161.199 223.349 161.199L230.338 156.317C230.338 156.317 228.75 156.317 228.614 156.274C229.975 155.418 230.384 155.975 232.154 154.262C230.248 155.632 231.7 153.106 229.294 153.191C232.517 153.876 228.069 154.476 227.207 155.76C226.798 158.158 225.164 158.415 226.208 159.272C223.031 157.473 226.253 157.174 226.253 157.73C226.253 157.816 223.984 156.146 225.709 153.362C223.712 153.876 226.662 153.405 226.117 151.607C229.34 149.252 230.111 148.481 230.066 150.322C228.341 148.524 226.163 149.209 225.8 152.506C227.388 154.133 225.936 153.534 225.119 155.675C225.709 152.249 222.986 150.579 225.845 150.236C225.436 149.08 225.89 146.168 225.845 147.582C222.986 147.582 225.981 147.624 225.981 145.098C225.981 146.083 225.21 145.74 227.343 142.443C224.619 142.443 224.256 143.128 223.848 143.942C226.163 144.456 222.986 143.214 223.394 142.657C224.619 139.36 224.574 135.078 224.574 135.078C224.574 135.078 224.619 137.818 221.851 137.476C222.35 141.116 223.076 144.841 223.076 144.841C223.076 144.841 225.89 143.685 221.624 144.113C223.076 144.841 223.122 148.481 224.574 149.637C222.35 148.138 219.99 147.453 220.58 147.582C220.943 149.166 223.939 149.08 222.532 149.765C221.578 151.093 220.625 149.551 223.303 152.592C221.079 150.536 221.488 150.194 223.757 149.294C221.488 149.637 221.851 152.035 222.759 154.39C223.212 155.589 224.619 152.891 223.757 154.219C220.625 153.876 222.305 153.234 217.857 152.121C218.22 150.622 222.486 153.791 221.624 155.032C222.713 155.332 223.167 157.602 222.305 157.944C224.619 159.614 222.713 160.342 223.848 159.914C220.762 157.816 219.491 156.917 217.539 155.032C218.265 156.274 222.214 155.546 221.261 156.788C221.805 154.347 220.671 155.418 217.13 152.549C216.858 152.72 214.861 151.05 213.59 148.652C214.861 152.806 218.719 152.206 216.858 153.876C213.409 152.72 214.725 151.393 214.725 151.393C214.725 151.393 214.861 154.048 215.179 154.818C215.088 152.078 220.625 158.544 221.488 156.703C219.491 156.617 219.763 157.687 220.716 159.786C217.448 161.541 216.722 157.43 218.719 157.174C219.536 157.131 217.176 158.801 217.494 156.66C218.583 157.516 218.674 159.015 218.447 157.302C215.088 155.032 213.772 156.317 213 154.476C212.274 154.861 208.28 155.932 207.463 155.718C209.006 157.859 211.23 154.433 212.864 157.516C212.183 155.032 215.27 156.531 217.04 156.36C214.316 158.629 215.36 157.859 213.182 156.574C215.406 155.247 215.95 156.446 217.494 159.786C216.858 157.43 217.766 158.672 218.991 158.972C216.45 158.629 216.994 158.501 216.994 161.541C214.725 161.627 219.491 165.695 218.991 164.753C216.631 164.41 215.86 160.085 216.994 160.085C217.13 160.085 219.037 164.496 222.532 163.897C220.308 163.939 220.217 158.886 220.217 158.886C220.217 158.886 221.624 162.997 222.849 165.31C221.987 165.31 221.76 162.783 221.76 162.783C221.76 162.783 220.217 161.884 222.032 161.499C223.621 159.657 223.303 163.682 224.574 165.267C225.073 164.068 222.305 161.499 222.986 159.357C227.07 161.07 225.527 159.7 225.527 159.7C225.527 159.7 224.302 164.924 224.393 165.31C225.255 162.655 228.251 162.74 228.704 162.74C230.611 160.942 226.617 163.854 225.981 166.466C226.435 163.811 228.659 160.942 229.067 161.798C231.382 162.269 230.429 160.085 229.975 162.74C229.975 162.698 229.93 160.942 228.614 161.798C231.337 160.942 229.658 163.939 228.251 163.468C228.205 166.123 232.108 163.425 231.7 158.929C229.975 158.972 228.75 161.199 232.562 160.514C231.428 158.073 235.649 157.302 236.556 157.345C233.016 155.247 234.378 157.859 231.882 157.73H231.791Z" fill="#737476"/>
<path fill-rule="evenodd" clip-rule="evenodd" d="M207.581 174.217C207.581 174.217 208.126 174.002 211.167 174.474C210.985 176.486 215.66 179.013 216.659 179.826C214.888 176.101 210.94 175.244 211.484 172.761C211.984 176.529 213.255 175.116 213.255 175.116C213.255 175.116 207.99 171.99 207.581 174.174V174.217Z" fill="#737476" stroke="#737476" stroke-width="0.0185747" stroke-linejoin="round"/>
<path fill-rule="evenodd" clip-rule="evenodd" d="M205.547 165.053C205.547 165.053 205.41 170.663 208.542 174.26C208.406 173.917 205.547 170.62 205.547 165.053Z" fill="#CE1728" stroke="#737476" stroke-width="0.0185747" stroke-linejoin="round"/>
<path fill-rule="evenodd" clip-rule="evenodd" d="M253.531 142.099C253.531 142.099 256.299 142.528 255.028 141.414C257.525 142.784 255.982 144.326 251.17 142.356C256.254 142.356 252.759 139.444 252.759 139.444C252.759 139.444 256.662 140.301 255.618 140.215C256.572 140.729 256.299 139.487 256.299 139.487C256.299 139.487 256.209 140.044 259.794 139.23C261.02 141.371 259.567 140.301 259.567 140.301L259.113 139.145C259.113 139.145 263.425 139.059 260.52 142.784C262.064 141.243 260.747 143.041 259.749 142.999C261.837 144.283 262.381 143.084 262.472 144.54C261.837 146.467 263.425 146.467 263.425 146.467C263.425 146.467 262.654 147.323 262.381 146.895C264.061 145.482 264.061 148.437 263.834 148.437C264.015 147.923 261.519 146.638 258.387 145.611C254.484 144.112 254.075 144.026 254.075 144.026C254.075 144.026 255.392 142.399 258.659 145.397C255.165 143.727 251.397 142.442 251.715 143.641C251.08 143.769 253.213 143.769 253.213 143.769C253.213 143.769 252.033 142.356 253.485 142.057L253.531 142.099Z" fill="#737476"/>
<path fill-rule="evenodd" clip-rule="evenodd" d="M217.214 216.609C216.896 215.239 219.483 217.465 219.12 217.465C218.712 215.667 218.031 217.894 215.762 214.853C216.579 216.138 218.848 217.037 218.848 217.037C218.848 217.037 216.125 215.753 218.031 214.896C216.669 217.123 215.399 214.468 217.305 214.939C217.305 214.939 214.082 218.579 216.715 217.68C219.347 217.551 220.573 217.637 220.573 217.637C220.573 217.637 219.166 218.108 217.713 218.322C218.848 216.095 218.167 218.707 220.527 216.952C219.574 217.423 218.167 216.952 218.939 216.052C219.529 215.667 220.89 215.239 220.391 217.894C219.529 217.123 218.712 216.609 217.214 216.609Z" fill="#FEFEFE"/>
<path fill-rule="evenodd" clip-rule="evenodd" d="M239.224 175.588C239.224 175.588 238.135 179.227 238.226 179.613C235.775 179.484 237.454 181.497 238.226 180.127C238.135 180.255 237.59 178.585 237.999 178.585C239.905 179.827 236.819 182.268 236.41 181.754C235.956 181.411 237.409 184.366 236.455 185.95C237.227 187.535 236.637 188.348 234.731 194.6C237.636 191.646 234.322 192.031 234.322 192.031C234.322 192.031 234.095 193.958 236.365 197.212C236.955 202.694 234.368 211.429 236.365 212.5C235.775 209.288 237.454 210.787 236.501 199.482C236.138 199.482 236.138 198.026 236.138 199.696C236.138 201.752 236.138 206.505 236.728 204.663C235.048 206.291 236.047 198.84 234.322 196.827C235.23 197.855 236.138 196.656 236.501 195.757C237.272 196.399 236.909 192.588 238.18 191.86C240.813 191.56 239.269 185.351 241.993 185.222C241.493 182.91 241.993 177.686 239.179 175.588H239.224Z" fill="#737476"/>
<path fill-rule="evenodd" clip-rule="evenodd" d="M193.798 158.629C195.931 157.601 197.61 156.659 199.834 157.943C198.927 158.928 198.155 155.631 197.747 156.53C196.294 155.246 199.789 155.588 201.015 158.543C198.564 158.629 199.381 154.86 197.202 156.702C199.017 156.959 201.151 161.669 202.649 161.583C201.332 161.069 206.234 160.085 203.874 159.785C202.966 161.412 204.146 160.085 202.512 161.112C202.422 161.455 203.919 162.911 206.143 161.112C207.868 156.659 203.783 158.2 204.146 157.858C202.422 156.659 200.969 156.273 198.019 153.618L198.518 156.273C198.791 155.931 200.515 154.946 203.102 156.53C202.013 155.931 203.012 159.571 204.192 156.659C205.281 157.044 203.511 157.558 203.148 155.888C203.919 158.029 204.282 158.928 207.914 157.344C207.369 156.102 207.641 155.203 209.411 157.001C207.142 157.173 207.641 156.787 206.643 157.644C208.912 158.5 209.048 155.931 213.179 160.898C211.726 158.543 208.731 159.742 209.048 157.943C206.688 158.543 207.596 159.1 207.596 159.1C207.596 159.1 206.416 159.571 207.414 160.812C205.599 160.727 205.553 159.785 206.416 161.069C207.278 161.112 209.003 161.027 207.596 161.84C207.278 159.742 206.733 162.354 205.236 160.042C205.69 161.326 204.328 161.155 205.099 161.54C206.325 164.923 210.364 166.08 210.274 168.52C207.959 166.636 210.183 163.039 205.326 162.825C203.556 164.538 201.468 167.193 205.372 171.732C204.282 172.075 205.508 171.518 205.508 170.833C207.914 173.102 205.735 172.075 205.372 171.047C205.372 173.059 205.372 173.059 205.372 173.059C205.372 173.059 204.192 173.188 202.694 171.389C202.694 171.732 203.829 176.956 203.829 176.956C203.829 176.956 199.517 172.417 200.606 171.261C201.423 169.42 201.332 173.787 201.332 175.029C200.016 173.017 202.422 168.949 201.332 167.621C201.332 167.621 201.559 169.42 196.839 171.561C201.559 169.077 199.244 167.064 199.108 164.795C199.608 168.263 202.422 168.991 199.608 168.392C201.877 165.566 201.287 166.251 197.883 162.868C202.422 164.195 201.695 163.467 202.785 166.336C202.422 162.654 203.193 161.155 203.193 161.155C203.193 161.155 202.921 163.682 203.42 163.168C202.512 160.727 203.511 159.357 199.971 155.802C200.288 159.656 198.791 157.772 199.199 159.87C198.927 157.43 198.019 158.671 193.934 158.543L193.798 158.629Z" fill="#737476"/>
<path fill-rule="evenodd" clip-rule="evenodd" d="M190.612 144.842C190.612 144.842 189.931 145.527 190.794 148.097C192.201 145.87 192.201 145.57 192.201 145.57C192.201 145.57 190.567 150.538 191.202 150.666C191.384 155.162 196.422 156.19 196.694 154.477C196.921 157.946 195.786 153.663 193.154 153.749C196.739 155.805 197.057 156.533 195.423 157.86C196.059 155.59 195.786 158.203 195.832 158.245C195.786 157.774 196.785 157.475 200.461 161.243C196.739 159.616 197.874 159.616 194.742 160.558C195.242 160.558 192.654 157.517 192.337 160.857C192.427 160.986 193.562 161.928 189.296 161.114C192.246 159.83 192.11 160.301 192.836 157.86C194.969 159.402 193.834 158.631 196.603 158.631C194.833 159.402 192.291 157.218 194.243 157.56C193.426 160.943 192.246 160.986 192.246 160.986C192.246 160.986 192.11 157.946 191.111 158.545C192.201 158.16 189.75 155.976 188.388 157.689C190.657 156.019 190.567 158.288 190.567 158.288C190.567 158.288 190.34 156.147 186.936 157.732C186.345 157.988 187.253 161.286 186.255 161.072C186.89 161.072 186.028 162.014 185.755 162.699C184.893 162.956 185.483 164.326 179.991 164.326C184.666 163.255 184.666 162.656 184.893 161.072C184.938 159.915 187.072 159.059 187.072 159.059C187.072 159.059 181.534 159.616 178.312 159.958C175.997 160.301 176.496 156.789 176.496 156.789C179.991 158.031 182.124 158.074 185.483 156.918C183.441 155.976 178.312 156.832 179.855 155.976C182.261 156.918 183.35 157.86 183.94 157.903C185.075 156.233 186.345 155.077 188.433 156.104C184.303 155.034 184.802 155.248 184.984 154.349C184.439 153.107 187.843 152.336 187.526 154.948C188.615 152.464 187.026 153.192 185.982 152.636C186.255 151.265 186.89 150.794 186.89 150.794C186.89 150.794 185.529 150.923 182.76 150.409C181.625 149.51 176.769 148.996 174 147.626C181.671 148.354 183.486 148.354 183.214 147.197C183.985 146.726 180.763 149.724 179.628 147.711C179.038 147.626 182.805 148.097 184.938 146.041C187.889 144.414 189.659 142.53 190.612 145.014V144.842Z" fill="#737476"/>
<path fill-rule="evenodd" clip-rule="evenodd" d="M195.057 143.426C195.057 143.426 189.02 143.854 189.383 140.557C191.517 142.27 193.06 142.313 193.695 140.643C192.379 141.242 191.698 141.628 191.698 141.628C191.698 141.628 188.249 142.484 190.2 142.399C190.064 139.401 192.742 141.242 192.742 141.242C192.742 141.242 188.203 138.759 185.071 139.701C184.345 138.33 185.752 140.429 185.752 140.429L186.206 141.328C186.206 141.328 183.301 141.242 184.3 142.27C183.211 140.129 184.89 141.671 185.979 144.283C183.438 142.912 184.981 143.897 182.757 142.313C181.804 144.24 180.987 144.24 180.987 144.24C180.987 144.24 182.212 144.625 182.802 145.524C181.304 146.98 181.304 147.537 181.032 147.537C181.304 145.696 183.347 147.066 186.932 146.038C189.156 142.356 191.244 145.353 191.244 145.353C191.244 145.353 189.474 144.582 190.382 144.069C189.701 142.827 193.922 143.298 193.196 144.968C193.831 144.625 192.561 142.912 192.561 142.912C192.561 142.912 191.925 142.87 195.102 143.383L195.057 143.426Z" fill="#737476"/>
<path fill-rule="evenodd" clip-rule="evenodd" d="M213.668 153.277C213.668 153.277 211.761 151.136 209.537 150.45C208.493 151.521 203.228 142.828 200.687 144.627C202.865 142.871 201.322 143.77 205.362 143.984C202.411 142.443 201.776 143.128 198.508 144.755C195.195 142.871 193.561 143.856 195.059 142.229C193.561 144.712 194.786 144.241 194.786 144.241C194.786 144.241 194.06 142.914 194.196 144.07C194.922 145.44 193.833 145.44 196.012 144.884C197.873 144.884 196.556 145.783 196.102 146.168C196.919 144.884 194.968 145.954 197.237 147.282C197.555 144.712 194.65 147.753 195.649 146.425C197.464 147.753 197.328 147.325 195.83 145.826C197.192 146.982 201.504 152.506 200.142 151.178C203.001 150.707 205.498 150.879 205.679 150.408C205.089 151.307 205.589 150.365 205.044 152.891C207.813 151.521 205.906 154.818 206.723 155.289C207.223 154.775 207.631 156.317 206.814 155.76C208.403 154.99 205.725 155.503 208.357 154.176C209.628 156.831 208.72 153.534 209.22 154.904C210.854 154.005 214.938 153.791 215.165 153.748C214.802 154.775 214.258 152.763 212.578 153.662C213.441 152.377 215.029 152.249 213.713 153.405L213.668 153.277Z" fill="#737476"/>
<path fill-rule="evenodd" clip-rule="evenodd" d="M234.818 152.805C234.818 152.805 234.001 151.992 238.04 152.591C235.998 148.823 244.395 145.312 243.623 145.44C241.898 142.357 243.941 145.483 239.856 143.727C244.259 142.956 245.348 143.085 248.117 142.956C250.477 142.4 252.111 144.027 252.928 141.329C253.064 143.342 251.884 142.914 251.884 142.914C251.884 142.914 251.158 144.241 252.474 145.397C252.655 144.798 249.751 144.498 249.705 146.596C248.253 146.596 250.068 146.168 250.522 144.798C248.752 146.553 250.25 145.14 250.749 146.896C248.843 145.097 249.206 146.425 251.021 146.767C249.206 145.911 248.888 147.196 248.071 148.352C248.525 148.181 247.89 150.236 244.576 151.092C241.717 152.334 240.038 151.306 241.036 150.236C242.035 152.42 240.219 152.848 240.264 151.007C240.264 153.533 238.903 155.118 238.585 153.79C239.992 155.46 237.632 156.102 240.31 154.732C236.86 156.188 239.221 154.903 237.36 155.332C235.635 156.188 236.043 153.362 236.043 153.191C236.497 154.689 231.232 155.118 230.597 155.289C230.052 154.133 234.001 153.747 236.407 153.833C232.775 151.692 232.549 151.306 234.773 152.72L234.818 152.805Z" fill="#737476"/>
<path fill-rule="evenodd" clip-rule="evenodd" d="M222.327 195.369C222.327 195.369 221.283 195.369 217.743 195.07C216.79 195.155 213.658 197.211 216.2 197.382C214.929 200.208 212.206 202.82 212.705 204.062C214.521 207.959 216.382 208.344 216.699 210.785C219.786 210.571 222.6 209.415 222.827 210.314C223.961 208.558 227.683 210.657 227.502 208.944C228.319 208.516 233.674 207.145 232.721 205.818C232.676 203.634 231.995 195.369 230.361 196.311C226.775 193.913 226.639 195.327 222.373 195.412L222.327 195.369Z" fill="#CE1728"/>
<path fill-rule="evenodd" clip-rule="evenodd" d="M220.9 197.597C220.9 197.597 223.215 208.516 223.714 207.874C221.4 206.932 218.086 209.458 217.859 209.158C218.586 208.002 217.269 206.718 217.269 206.718C217.269 206.718 218.222 209.544 218.313 209.972C219.629 209.458 222.126 207.702 220.583 207.317C222.262 209.587 222.171 207.66 222.897 208.216C227.345 207.702 226.075 210.743 229.116 208.687C226.982 208.602 225.439 209.415 223.76 206.932C223.941 206.974 223.624 206.546 223.624 206.546C223.624 206.546 223.124 198.367 220.9 197.511V197.597Z" fill="#201E1E"/>
<path fill-rule="evenodd" clip-rule="evenodd" d="M231.279 164.711C230.416 166.039 228.283 165.396 227.058 165.311C228.056 166.681 229.236 163.555 229.236 163.555L222.837 165.311C222.837 164.155 223.381 164.197 222.111 165.996C222.201 165.996 221.384 165.867 221.884 166.638C218.979 165.097 218.661 164.84 218.661 164.84C218.661 164.84 219.024 165.311 218.888 166.51C219.342 165.953 216.664 164.369 216.301 164.583C215.983 165.354 214.667 168.951 215.665 171.434C215.802 172.804 219.07 173.49 220.794 174.774C219.251 176.915 222.791 175.545 223.654 175.545C223.654 175.545 223.654 175.545 223.472 175.545H222.973C223.699 175.545 224.425 176.915 226.15 174.774C228.329 173.49 231.642 172.804 230.553 171.434C232.277 168.951 230.553 164.54 231.233 164.668L231.279 164.711Z" fill="#737476"/>
<path fill-rule="evenodd" clip-rule="evenodd" d="M224.108 174.216C224.108 174.216 224.017 175.158 227.285 172.632C224.925 173.574 227.557 172.289 227.557 171.604C227.557 170.919 229.146 167.964 229.237 169.078C227.421 170.534 226.059 171.304 226.059 171.304C226.059 171.304 230.507 169.72 231.097 170.191C230.462 169.335 228.193 170.534 230.099 170.448C228.193 168.692 227.194 172.375 227.83 172.632C228.737 171.433 226.876 170.191 226.876 170.191C226.876 170.191 228.465 172.375 226.014 173.617C228.873 170.876 227.512 175.115 226.74 173.317C225.379 174.173 224.108 174.216 224.108 174.216Z" fill="#201E1E"/>
<path fill-rule="evenodd" clip-rule="evenodd" d="M222.89 174.216C222.89 174.216 219.304 175.158 220.167 172.632C220.666 173.574 220.439 172.289 219.894 171.604C218.987 170.919 218.306 167.964 218.896 169.078C219.985 170.534 220.53 171.304 220.53 171.304C220.53 171.304 216.536 169.72 216.4 170.191C216.263 169.335 218.85 170.534 216.445 170.448C218.805 168.692 219.35 172.375 219.168 172.632C217.353 171.433 219.667 170.191 219.667 170.191C219.667 170.191 220.53 172.375 218.714 173.617C217.67 170.876 218.033 175.115 219.804 173.317C221.574 174.173 222.845 174.216 222.845 174.216H222.89Z" fill="#201E1E"/>
<path fill-rule="evenodd" clip-rule="evenodd" d="M197.018 145.87L197.2 144.414C197.881 144.714 199.923 147.711 198.97 148.525C197.064 149.638 198.788 148.054 200.059 150.495C200.422 149.895 200.74 153.321 201.466 150.238C204.507 153.321 203.917 152.208 205.188 151.694C205.642 150.409 207.775 151.009 206.459 154.434C209.772 151.737 209.636 152.85 210.998 152.036C208.683 149.895 206.913 149.595 204.916 147.454C204.28 145.784 205.007 147.711 203.418 144.714C203.282 145.656 201.829 143.6 199.424 144.5C201.784 145.399 200.332 144.114 200.377 144.585C200.014 143.729 200.286 144.029 197.971 144.029C198.516 144.029 197.064 145.827 197.064 145.827L197.018 145.87Z" fill="#201E1E" stroke="#201E1E" stroke-width="0.0143975" stroke-linejoin="round"/>
<path fill-rule="evenodd" clip-rule="evenodd" d="M247.538 143.642C248.083 145.783 248.083 146.04 249.082 144.584C246.313 145.783 246.903 148.609 248.809 149.808C246.994 151.007 246.222 151.307 247.221 151.007C243.136 151.607 243.862 152.035 240.503 151.607C242.5 151.564 239.142 151.179 239.187 149.894C240.639 151.007 237.916 152.121 239.777 152.035C239.323 152.806 238.415 153.106 238.96 153.106C239.051 153.106 235.919 152.249 234.648 152.249C237.553 152.249 234.376 151.992 237.553 152.806C237.462 153.32 239.051 150.151 238.279 148.395C238.552 148.438 241.184 148.138 239.187 148.267C240.004 148.353 241.683 147.196 240.503 145.569C242.818 144.028 246.086 143.599 247.13 143.599C246.177 143.599 243.136 144.028 243.136 144.028C243.136 144.028 246.676 144.156 248.31 144.584C249.036 143.471 250.216 143.214 249.218 144.927C249.626 142.743 251.124 145.826 247.493 143.599L247.538 143.642Z" fill="#201E1E"/>
<path fill-rule="evenodd" clip-rule="evenodd" d="M201.015 146.211C201.015 146.211 199.835 146.553 202.967 146.511C201.923 147.324 204.192 147.624 204.555 148.009C204.964 147.538 203.466 148.138 204.283 149.936C206.915 148.009 207.823 149.337 207.823 149.337C207.823 149.337 205.281 150.236 200.152 150.022C199.199 148.009 201.06 144.584 201.242 146.853C201.106 146.81 201.923 145.825 201.923 145.825C201.923 145.825 200.743 147.752 201.923 149.808C203.057 150.108 205.735 146.853 205.735 146.853C205.735 146.853 204.51 148.78 203.239 147.11C203.239 148.437 203.33 144.541 200.879 147.239C201.196 146.425 200.561 146.511 201.06 146.168L201.015 146.211Z" fill="#FFF212"/>
<path fill-rule="evenodd" clip-rule="evenodd" d="M245.631 145.311C245.631 145.311 244.905 146.596 244.133 143.898C242.862 144.712 243.861 146.81 242.908 147.195C241.228 147.581 240.865 146.21 241.909 146.467C242.045 149.85 240.185 150.321 240.185 150.321C240.185 150.321 242.227 152.505 243.18 150.535C247.81 149.422 246.675 146.853 243.997 147.367C245.086 144.669 242.862 145.868 242.862 145.868C242.862 145.868 246.403 146.896 242.409 148.137C242.182 149.294 242.318 148.694 242.318 148.694C242.318 148.694 241.728 145.397 245.268 147.195C244.406 147.666 244.769 144.626 243.725 145.183C245.54 146.596 245.268 146.682 245.677 145.354L245.631 145.311Z" fill="#FFF212"/>
<g filter="url(#filter0_d)">
<path d="M60.3214 322.672C56.6492 322.672 53.2866 322.185 50.2338 321.212C47.2252 320.238 44.6148 318.778 42.4026 316.832L44.8581 311.788C47.1588 313.646 49.548 314.996 52.0257 315.836C54.5033 316.677 57.2907 317.097 60.3878 317.097C63.9273 317.097 66.6704 316.433 68.6172 315.106C70.5639 313.779 71.5373 311.898 71.5373 309.465C71.5373 307.43 70.6303 305.903 68.8163 304.886C67.0023 303.824 64.1264 302.851 60.1887 301.966C56.4279 301.169 53.353 300.262 50.9638 299.245C48.5746 298.183 46.6943 296.789 45.3227 295.064C43.9511 293.294 43.2653 291.037 43.2653 288.294C43.2653 285.551 43.9954 283.14 45.4554 281.06C46.9155 278.937 48.9728 277.3 51.6275 276.149C54.3264 274.955 57.4234 274.357 60.9187 274.357C64.237 274.357 67.3341 274.866 70.21 275.884C73.1301 276.901 75.5635 278.339 77.5102 280.198L75.0547 285.241C72.8867 283.427 70.6524 282.1 68.3517 281.259C66.051 280.375 63.5955 279.932 60.9851 279.932C57.5783 279.932 54.9015 280.662 52.9548 282.122C51.0081 283.538 50.0347 285.485 50.0347 287.962C50.0347 290.086 50.8753 291.701 52.5566 292.807C54.2821 293.913 57.0252 294.909 60.786 295.794C64.7237 296.679 67.9093 297.608 70.3427 298.581C72.7761 299.554 74.7229 300.882 76.1829 302.563C77.643 304.244 78.373 306.412 78.373 309.067C78.373 311.81 77.643 314.199 76.1829 316.234C74.7229 318.27 72.6213 319.862 69.8781 321.013C67.1792 322.119 63.9937 322.672 60.3214 322.672Z" fill="white"/>
<path d="M107.163 322.672C102.695 322.672 98.8013 321.698 95.483 319.752C92.2089 317.761 89.6649 314.951 87.8509 311.323C86.0811 307.695 85.1962 303.426 85.1962 298.515C85.1962 293.559 86.0811 289.268 87.8509 285.64C89.6206 282.012 92.1647 279.224 95.483 277.278C98.8013 275.331 102.695 274.357 107.163 274.357C111.676 274.357 115.57 275.331 118.844 277.278C122.162 279.224 124.706 282.012 126.476 285.64C128.246 289.268 129.131 293.537 129.131 298.448C129.131 303.404 128.246 307.695 126.476 311.323C124.706 314.951 122.162 317.761 118.844 319.752C115.526 321.698 111.632 322.672 107.163 322.672ZM107.163 317.097C111.898 317.097 115.57 315.482 118.18 312.252C120.835 309.023 122.162 304.421 122.162 298.448C122.162 292.52 120.835 287.962 118.18 284.777C115.57 281.547 111.898 279.932 107.163 279.932C102.429 279.932 98.757 281.547 96.1466 284.777C93.5362 287.962 92.231 292.52 92.231 298.448C92.231 304.421 93.5362 309.023 96.1466 312.252C98.8013 315.482 102.474 317.097 107.163 317.097Z" fill="white"/>
<path d="M138.574 274.888H145.41V316.433H168.373V322.141H138.574V274.888Z" fill="white"/>
<path d="M192.227 322.672C185.944 322.672 181.166 321.035 177.892 317.761C174.662 314.487 173.047 309.686 173.047 303.359V274.888H179.75V303.824C179.75 308.204 180.79 311.522 182.869 313.779C184.993 315.991 188.112 317.097 192.227 317.097C196.298 317.097 199.372 315.969 201.452 313.712C203.576 311.456 204.638 308.16 204.638 303.824V274.888H211.407V303.359C211.407 309.686 209.77 314.487 206.496 317.761C203.266 321.035 198.51 322.672 192.227 322.672Z" fill="white"/>
<path d="M233.397 280.596H217.403V274.888H256.294V280.596H240.299V322.141H233.397V280.596Z" fill="white"/>
<path d="M262.622 274.888H269.457V322.141H262.622V274.888Z" fill="white"/>
<path d="M300.753 322.672C296.284 322.672 292.391 321.698 289.072 319.752C285.798 317.761 283.254 314.951 281.44 311.323C279.67 307.695 278.786 303.426 278.786 298.515C278.786 293.559 279.67 289.268 281.44 285.64C283.21 282.012 285.754 279.224 289.072 277.278C292.391 275.331 296.284 274.357 300.753 274.357C305.266 274.357 309.159 275.331 312.433 277.278C315.751 279.224 318.295 282.012 320.065 285.64C321.835 289.268 322.72 293.537 322.72 298.448C322.72 303.404 321.835 307.695 320.065 311.323C318.295 314.951 315.751 317.761 312.433 319.752C309.115 321.698 305.221 322.672 300.753 322.672ZM300.753 317.097C305.487 317.097 309.159 315.482 311.769 312.252C314.424 309.023 315.751 304.421 315.751 298.448C315.751 292.52 314.424 287.962 311.769 284.777C309.159 281.547 305.487 279.932 300.753 279.932C296.019 279.932 292.346 281.547 289.736 284.777C287.126 287.962 285.82 292.52 285.82 298.448C285.82 304.421 287.126 309.023 289.736 312.252C292.391 315.482 296.063 317.097 300.753 317.097Z" fill="white"/>
<path d="M370.921 274.888V322.141H365.678L338.601 286.436V322.141H332.164V274.888H337.34L364.484 310.66V274.888H370.921Z" fill="white"/>
<path d="M397.401 322.672C393.729 322.672 390.367 322.185 387.314 321.212C384.305 320.238 381.695 318.778 379.482 316.832L381.938 311.788C384.239 313.646 386.628 314.996 389.106 315.836C391.583 316.677 394.371 317.097 397.468 317.097C401.007 317.097 403.75 316.433 405.697 315.106C407.644 313.779 408.617 311.898 408.617 309.465C408.617 307.43 407.71 305.903 405.896 304.886C404.082 303.824 401.206 302.851 397.269 301.966C393.508 301.169 390.433 300.262 388.044 299.245C385.655 298.183 383.774 296.789 382.403 295.064C381.031 293.294 380.345 291.037 380.345 288.294C380.345 285.551 381.075 283.14 382.535 281.06C383.995 278.937 386.053 277.3 388.707 276.149C391.406 274.955 394.503 274.357 397.999 274.357C401.317 274.357 404.414 274.866 407.29 275.884C410.21 276.901 412.643 278.339 414.59 280.198L412.135 285.241C409.967 283.427 407.732 282.1 405.432 281.259C403.131 280.375 400.675 279.932 398.065 279.932C394.658 279.932 391.981 280.662 390.035 282.122C388.088 283.538 387.115 285.485 387.115 287.962C387.115 290.086 387.955 291.701 389.636 292.807C391.362 293.913 394.105 294.909 397.866 295.794C401.804 296.679 404.989 297.608 407.423 298.581C409.856 299.554 411.803 300.882 413.263 302.563C414.723 304.244 415.453 306.412 415.453 309.067C415.453 311.81 414.723 314.199 413.263 316.234C411.803 318.27 409.701 319.862 406.958 321.013C404.259 322.119 401.074 322.672 397.401 322.672Z" fill="white"/>
</g>
<defs>
<filter id="filter0_d" x="41.4026" y="274.357" width="374.05" height="50.3144" filterUnits="userSpaceOnUse" color-interpolation-filters="sRGB">
<feFlood flood-opacity="0" result="BackgroundImageFix"/>
<feColorMatrix in="SourceAlpha" type="matrix" values="0 0 0 0 0 0 0 0 0 0 0 0 0 0 0 0 0 0 127 0"/>
<feOffset dx="-1" dy="2"/>
<feColorMatrix type="matrix" values="0 0 0 0 0 0 0 0 0 0 0 0 0 0 0 0 0 0 0.9 0"/>
<feBlend mode="normal" in2="BackgroundImageFix" result="effect1_dropShadow"/>
<feBlend mode="normal" in="SourceGraphic" in2="effect1_dropShadow" result="shape"/>
</filter>
</defs>
</svg>
