<svg width="164" height="93" viewBox="0 0 164 93" fill="none" xmlns="http://www.w3.org/2000/svg">
<g clip-path="url(#clip0)">
<path opacity="0.1" d="M58.9766 69.581C89.8922 69.581 114.954 68.9097 114.954 68.0816C114.954 67.2535 89.8922 66.5822 58.9766 66.5822C28.0611 66.5822 2.99902 67.2535 2.99902 68.0816C2.99902 68.9097 28.0611 69.581 58.9766 69.581Z" fill="#A7001E"/>
<g opacity="0.7">
<path opacity="0.7" d="M38.1283 57.0147H20.2783V66.8679H38.1283V57.0147Z" fill="#65617D"/>
<path opacity="0.1" d="M31.9879 58.7284H26.5615V59.8708H31.9879V58.7284Z" fill="black"/>
<path opacity="0.1" d="M31.3101 58.8712H27.2402V59.7279H31.3101V58.8712Z" fill="black"/>
<path opacity="0.7" d="M56.2641 57.0147H38.4141V66.8679H56.2641V57.0147Z" fill="#65617D"/>
<path opacity="0.1" d="M50.1237 58.7284H44.6973V59.8708H50.1237V58.7284Z" fill="black"/>
<path opacity="0.1" d="M49.4448 58.8712H45.375V59.7279H49.4448V58.8712Z" fill="black"/>
<path opacity="0.7" d="M38.1283 46.876H20.2783V56.7292H38.1283V46.876Z" fill="#65617D"/>
<path opacity="0.1" d="M31.9879 48.5895H26.5615V49.7319H31.9879V48.5895Z" fill="black"/>
<path opacity="0.1" d="M31.3101 48.7323H27.2402V49.5891H31.3101V48.7323Z" fill="black"/>
<path opacity="0.7" d="M56.2641 46.876H38.4141V56.7292H56.2641V46.876Z" fill="#65617D"/>
<path opacity="0.1" d="M50.1237 48.5895H44.6973V49.7319H50.1237V48.5895Z" fill="black"/>
<path opacity="0.1" d="M49.4448 48.7323H45.375V49.5891H49.4448V48.7323Z" fill="black"/>
<path opacity="0.7" d="M38.1283 36.5942H20.2783V46.4474H38.1283V36.5942Z" fill="#65617D"/>
<path opacity="0.1" d="M31.9879 38.3079H26.5615V39.4503H31.9879V38.3079Z" fill="black"/>
<path opacity="0.1" d="M31.3101 38.4509H27.2402V39.3076H31.3101V38.4509Z" fill="black"/>
<path opacity="0.7" d="M56.2641 36.5942H38.4141V46.4474H56.2641V36.5942Z" fill="#65617D"/>
<path opacity="0.1" d="M50.1237 38.3079H44.6973V39.4503H50.1237V38.3079Z" fill="black"/>
<path opacity="0.1" d="M49.4448 38.4509H45.375V39.3076H49.4448V38.4509Z" fill="black"/>
<path opacity="0.7" d="M56.2641 26.3127H38.4141V36.1659H56.2641V26.3127Z" fill="#65617D"/>
<path opacity="0.1" d="M50.1237 28.0262H44.6973V29.1686H50.1237V28.0262Z" fill="black"/>
<path opacity="0.1" d="M49.4448 28.1689H45.375V29.0257H49.4448V28.1689Z" fill="black"/>
</g>
<g opacity="0.7">
<path opacity="0.7" d="M74.3988 56.8721H56.5488V66.7253H74.3988V56.8721Z" fill="#65617D"/>
<path opacity="0.1" d="M68.2584 58.5857H62.832V59.7282H68.2584V58.5857Z" fill="black"/>
<path opacity="0.1" d="M67.5806 58.7284H63.5107V59.5853H67.5806V58.7284Z" fill="black"/>
<path opacity="0.7" d="M92.5346 56.8721H74.6846V66.7253H92.5346V56.8721Z" fill="#65617D"/>
<path opacity="0.1" d="M86.3942 58.5857H80.9678V59.7282H86.3942V58.5857Z" fill="black"/>
<path opacity="0.1" d="M85.7152 58.7284H81.6455V59.5853H85.7152V58.7284Z" fill="black"/>
<path opacity="0.7" d="M74.3988 46.7332H56.5488V56.5865H74.3988V46.7332Z" fill="#65617D"/>
<path opacity="0.1" d="M68.2584 48.4467H62.832V49.5891H68.2584V48.4467Z" fill="black"/>
<path opacity="0.1" d="M67.5806 48.5897H63.5107V49.4465H67.5806V48.5897Z" fill="black"/>
<path opacity="0.7" d="M92.5346 46.7332H74.6846V56.5865H92.5346V46.7332Z" fill="#65617D"/>
<path opacity="0.1" d="M86.3942 48.4467H80.9678V49.5891H86.3942V48.4467Z" fill="black"/>
<path opacity="0.1" d="M85.7152 48.5897H81.6455V49.4465H85.7152V48.5897Z" fill="black"/>
<path opacity="0.7" d="M74.3988 36.4517H56.5488V46.3048H74.3988V36.4517Z" fill="#65617D"/>
<path opacity="0.1" d="M68.2584 38.1652H62.832V39.3076H68.2584V38.1652Z" fill="black"/>
<path opacity="0.1" d="M67.5806 38.3082H63.5107V39.165H67.5806V38.3082Z" fill="black"/>
<path opacity="0.7" d="M92.5346 36.4517H74.6846V46.3048H92.5346V36.4517Z" fill="#65617D"/>
<path opacity="0.1" d="M86.3942 38.1652H80.9678V39.3076H86.3942V38.1652Z" fill="black"/>
<path opacity="0.1" d="M85.7152 38.3082H81.6455V39.165H85.7152V38.3082Z" fill="black"/>
<path opacity="0.7" d="M92.5346 26.17H74.6846V36.0232H92.5346V26.17Z" fill="#65617D"/>
<path opacity="0.1" d="M86.3942 27.8835H80.9678V29.0259H86.3942V27.8835Z" fill="black"/>
<path opacity="0.1" d="M85.7152 28.0263H81.6455V28.8831H85.7152V28.0263Z" fill="black"/>
</g>
<path d="M102.439 48.8391C102.427 48.7309 102.389 48.6275 102.327 48.5381C102.265 48.4488 102.181 48.3765 102.084 48.3279C102.002 48.293 101.914 48.2749 101.824 48.2747C101.735 48.2746 101.647 48.2923 101.565 48.327C101.483 48.3616 101.409 48.4124 101.347 48.4764C101.285 48.5403 101.236 48.6161 101.204 48.6992L98.0324 55.3722L97.3184 81.6474H98.4608L98.8892 55.4308L102.379 49.2532C102.442 49.125 102.463 48.98 102.439 48.8391V48.8391Z" fill="#3F3D56"/>
<path opacity="0.1" d="M153.591 87.5822C152.655 88.3999 151.647 89.1317 150.58 89.7684C150.564 89.7919 150.545 89.8139 150.525 89.8341C150.411 89.9302 150.277 89.9978 150.132 90.0312V90.0312C146.593 92.0034 142.605 93.0275 138.554 93.0043H60.0394C51.0429 92.0789 45.5537 90.8523 45.5537 89.5057C45.5537 88.4618 48.8495 87.4894 54.5244 86.6754C55.1128 86.5897 55.7263 86.5069 56.3651 86.4269C56.7583 86.3774 57.1605 86.3298 57.5718 86.2841L58.2701 86.2027C58.7879 86.1437 59.3196 86.0861 59.8651 86.0299H59.9094L60.4806 85.9728C60.9633 85.9228 61.4559 85.8757 61.9586 85.83L62.3242 85.7972L63.2566 85.7144C63.8621 85.6601 64.4809 85.6082 65.113 85.5587C65.6376 85.5178 66.1707 85.4768 66.7124 85.4359C72.2045 85.0289 78.5362 84.7219 85.4263 84.5234L87.3941 84.4563L88.0567 84.442L89.4562 84.4106L90.0174 84.3992L90.6071 84.3878L91.027 84.3806L92.9976 84.3492L94.0101 84.3349H94.2171C96.6114 84.3064 99.0504 84.2916 101.534 84.2906C106.444 84.2906 111.205 84.3492 115.741 84.4606C118.346 84.5234 120.871 84.6034 123.317 84.7005H123.34C130.391 84.9775 136.703 85.3859 141.927 85.8929L142.022 85.9029C143.363 86.0328 144.633 86.1713 145.824 86.3141C146.945 86.4483 147.997 86.5897 148.974 86.7339C149.312 86.7839 149.641 86.8353 149.961 86.8853L150.042 86.8996C151.396 87.1181 152.584 87.3408 153.591 87.5822Z" fill="#A7001E"/>
<path d="M150.58 89.7682C150.564 89.7917 150.545 89.8137 150.525 89.8339C150.411 89.9301 150.277 89.9976 150.132 90.031V90.031C149.843 90.112 149.546 90.1599 149.246 90.1738H149.157C148.985 90.1795 148.814 90.1738 148.644 90.1567C148.52 90.1387 148.394 90.1306 148.268 90.1324H148.251C148.069 90.158 147.889 90.2025 147.716 90.2652C147.329 90.3711 146.931 90.4277 146.53 90.4337H146.388C145.939 90.4337 145.485 90.418 145.035 90.4208C144.962 90.4208 144.893 90.4208 144.817 90.4208C144.046 90.4408 143.279 90.5636 142.508 90.5765H142.261C141.505 90.5579 140.733 90.3966 140.132 89.9396C140.01 89.8594 139.912 89.7492 139.846 89.6197C139.795 89.4831 139.778 89.3361 139.796 89.1913C139.81 88.9329 139.86 88.6516 140.054 88.4773C140.176 88.3837 140.316 88.3162 140.466 88.2788C140.727 88.1946 140.99 88.1132 141.251 88.0318C141.512 87.9504 141.811 87.8633 142.092 87.7805L142.146 87.7633L142.304 87.7162L142.405 87.6819C142.528 87.6425 142.646 87.5888 142.756 87.522C142.902 87.4298 143.025 87.3064 143.117 87.1607C143.133 87.135 143.15 87.1079 143.165 87.0807C143.179 87.0536 143.165 87.0365 143.155 87.0136C143.13 86.8351 143.112 86.6524 143.08 86.4781C142.678 86.3849 142.312 86.1777 142.025 85.8812C141.779 85.6368 141.571 85.3561 141.41 85.0487C141.054 84.3804 140.871 83.6336 140.606 82.9238C140.199 81.8443 139.606 80.8475 139.009 79.8593C138.464 78.9483 137.915 78.0344 137.296 77.1733C136.883 76.6021 136.439 76.058 136.03 75.4854C134.875 73.8875 134.046 72.0775 133.591 70.1589C133.522 69.7908 133.423 69.4289 133.296 69.0765C133.05 68.4767 132.6 67.9884 132.252 67.44C131.877 66.8489 131.621 66.1909 131.496 65.5022C131.425 65.111 131.305 64.6883 130.915 64.6454L130.874 64.7268C130.066 66.2976 129.236 67.897 128.018 69.1793C127.823 69.3678 127.645 69.5728 127.485 69.7919C127.357 70.0044 127.243 70.2248 127.142 70.4517C126.95 70.8591 126.694 71.2336 126.384 71.5612C126.292 71.6544 126.192 71.739 126.084 71.814C125.942 71.9177 125.783 71.9973 125.614 72.0496V72.0496C125.548 72.0699 125.48 72.0852 125.412 72.0953C125.412 72.1124 125.419 72.1282 125.42 72.1453C125.422 72.1624 125.429 72.1824 125.432 72.201C125.642 73.3435 125.552 74.5209 125.17 75.6182C125.16 75.6525 125.149 75.6853 125.136 75.7196C125.077 75.8795 125.013 76.0366 124.943 76.1908C124.769 76.5692 124.562 76.9319 124.399 77.3161C124.372 77.3818 124.345 77.4475 124.321 77.5131C123.749 79.0425 123.892 80.7504 123.818 82.394C123.811 82.7534 123.769 83.1113 123.691 83.4622C123.594 83.8578 123.438 84.2662 123.352 84.6746C123.274 84.9808 123.268 85.3009 123.334 85.6099L123.3 85.6228C123.147 85.6799 122.991 85.7313 122.836 85.7798V85.8013C122.891 86.1211 122.946 86.441 123.001 86.7594C123.048 87.0336 123.104 87.3306 123.295 87.5249C123.347 87.5677 123.395 87.6156 123.438 87.6677C123.551 87.8447 123.451 88.0789 123.472 88.2888C123.504 88.5859 123.778 88.8386 123.735 89.1342C123.716 89.2225 123.675 89.3048 123.617 89.374C123.559 89.4432 123.485 89.4971 123.401 89.5312C123.331 89.563 123.257 89.5865 123.181 89.6012L123.134 89.6112C123.048 89.6269 122.963 89.6354 122.877 89.644C121.813 89.7497 120.735 89.8553 119.681 89.6754C119.473 89.6397 119.266 89.5926 119.054 89.5755C118.787 89.5636 118.52 89.5745 118.255 89.6083C116.299 89.7934 114.333 89.8316 112.373 89.7225C111.863 89.694 111.277 89.6112 111.007 89.1756C110.783 88.8143 110.865 88.3474 110.977 87.9347C111.01 87.7829 111.068 87.638 111.15 87.5063C111.159 87.492 111.17 87.4786 111.182 87.4663C111.444 87.1393 111.938 87.1193 112.364 87.1322L113.755 87.1736C113.892 87.1847 114.03 87.1741 114.163 87.1421C114.389 87.0765 114.56 86.8965 114.772 86.7951C115.037 86.6681 115.371 86.6523 115.563 86.4353L115.587 86.4039C115.621 86.3579 115.652 86.3102 115.681 86.2611C115.681 86.2511 115.694 86.2411 115.701 86.2311C115.706 86.2222 115.712 86.2136 115.718 86.2054C115.894 85.974 116.201 85.8969 116.451 85.7498C116.489 85.7278 116.525 85.7025 116.558 85.6742L116.587 85.6485C116.318 85.4565 116.083 85.2204 115.893 84.9502C115.819 84.8712 115.765 84.7764 115.734 84.6731C115.717 84.5956 115.723 84.5146 115.751 84.4404C115.757 84.4222 115.765 84.4045 115.774 84.3875L115.781 84.3733C115.878 84.1819 116.078 84.0091 116.188 83.8135C116.192 83.8073 116.196 83.8006 116.198 83.7935C116.35 83.5079 116.38 83.0652 116.155 82.8353C116.27 80.9546 116.787 79.1225 116.901 77.2361C116.946 76.4893 116.928 75.7396 116.962 74.9899C116.996 74.2402 117.076 73.5133 117.161 72.7779C117.349 71.0971 117.806 69.4507 117.742 67.7628C117.736 67.6054 117.743 67.4478 117.762 67.2915C117.761 67.2801 117.761 67.2687 117.762 67.2572C117.808 66.9114 117.915 66.5766 118.08 66.2691C118.287 65.9215 118.522 65.5911 118.781 65.2809C119.66 64.1385 120.715 62.9961 121.028 61.5909C121.189 60.8655 121.546 60.2015 121.902 59.5489C122.112 59.1605 122.33 58.7621 122.666 58.4765C122.847 58.3506 123.016 58.2071 123.17 58.0481C123.404 57.7453 123.412 57.3269 123.551 56.9671C123.622 56.78 123.732 56.6086 123.787 56.4159C123.787 56.3959 123.797 56.3773 123.801 56.3573C123.833 56.1628 123.849 55.9661 123.851 55.769C123.851 55.7119 123.859 55.6562 123.867 55.6005C123.95 55.0359 124.114 54.4862 124.354 53.9683C124.384 53.9026 124.412 53.8355 124.441 53.7698C123.782 53.3854 123.201 52.8812 122.727 52.2832C122.566 52.0897 122.427 51.8796 122.311 51.6563C122.017 51.0723 121.95 50.4068 121.812 49.7671C121.48 48.242 120.722 46.8054 120.616 45.246C120.585 44.7705 120.616 44.2793 120.451 43.8295C120.405 43.7078 120.351 43.5895 120.289 43.4753C120.264 43.4268 120.239 43.3782 120.214 43.3325L120.185 43.2783L120.112 43.1355L119.995 43.2268C117.074 45.5144 114.007 47.6094 110.813 49.4986L110.539 49.6614C110.396 49.7303 110.272 49.8321 110.176 49.9584C110.165 49.977 110.155 49.9956 110.145 50.0141C110.079 50.1498 110.062 50.2997 110.002 50.4425C109.874 50.7695 109.544 50.978 109.207 51.0751C108.597 51.2319 107.95 51.1486 107.4 50.8424C107.33 50.8067 107.257 50.7695 107.195 50.7281C107.028 50.8207 106.852 50.8958 106.669 50.9523C106.098 51.118 105.5 51.1108 104.908 51.1094C104.317 51.108 103.713 51.1094 103.153 51.3036C102.779 51.4307 102.417 51.6406 102.028 51.6606C101.983 51.6635 101.939 51.6635 101.894 51.6606C101.672 51.6352 101.457 51.5719 101.257 51.4735L101.14 51.4207C101.079 51.3919 101.02 51.36 100.963 51.325C100.9 51.2865 100.842 51.2409 100.79 51.1894C100.714 51.1135 100.659 51.0196 100.63 50.9166C100.611 50.8422 100.611 50.764 100.63 50.6896C100.636 50.6562 100.653 50.6258 100.679 50.6039C100.704 50.5888 100.733 50.5814 100.763 50.5825C100.927 50.5807 101.09 50.5946 101.251 50.6239C101.346 50.6369 101.441 50.6421 101.537 50.6396H101.588C101.672 50.6305 101.754 50.6043 101.828 50.5626C101.901 50.5208 101.966 50.4644 102.017 50.3968C102.032 50.3759 102.045 50.3528 102.054 50.3283V50.3283C102.071 50.2882 102.08 50.2449 102.08 50.2012C102.08 50.1903 102.08 50.1793 102.08 50.1684C102.02 50.1412 101.96 50.1141 101.902 50.0812C101.872 50.0655 101.844 50.0484 101.815 50.0313L101.798 50.0198C101.747 49.985 101.699 49.9453 101.655 49.9013C101.628 49.8738 101.603 49.8431 101.583 49.8099C101.545 49.7582 101.516 49.7002 101.498 49.6386V49.6386C101.381 49.614 101.259 49.6174 101.143 49.6486C100.987 49.6914 100.83 49.7828 100.676 49.8142C100.598 49.8338 100.516 49.8303 100.44 49.8042C100.217 49.7242 100.139 49.4529 100.092 49.2202C100.083 49.1759 100.073 49.1302 100.066 49.0845C100.05 48.9967 100.05 48.9067 100.066 48.8189C100.135 48.6194 100.267 48.4475 100.442 48.3291L100.91 47.9364L100.944 47.9078C100.944 47.8693 100.929 47.8307 100.923 47.7922C100.906 47.7039 100.906 47.6134 100.923 47.5251C100.992 47.326 101.124 47.1546 101.298 47.0368L102.335 46.1642C102.529 46.0014 102.741 45.8301 102.993 45.813C103.369 45.7872 103.669 46.0986 103.95 46.3485C104.304 46.6626 104.734 46.9197 105.207 46.9511C105.432 46.9614 105.657 46.9304 105.871 46.8597L105.992 46.8197C105.967 46.7669 105.941 46.714 105.917 46.6612C105.875 46.5741 105.834 46.4855 105.794 46.397C106.402 46.3584 106.955 46.0243 107.416 45.6245C107.877 45.2246 108.273 44.7519 108.738 44.3592C109.241 43.9308 109.818 43.6124 110.328 43.1997C111.513 42.2387 112.3 40.8264 113.568 39.9796C114.008 39.684 114.516 39.4484 114.816 39.0085C114.909 38.8657 114.979 38.7229 115.074 38.5801C115.379 38.1517 115.9 37.9547 116.33 37.6576C116.759 37.3606 117.134 36.9251 117.483 36.5067C117.732 36.2082 117.982 35.9098 118.219 35.6027C118.437 35.1958 118.622 34.7702 118.85 34.369C119.044 34.03 119.27 33.7105 119.525 33.4151C119.584 33.3008 119.644 33.1866 119.708 33.0752C119.772 32.9638 119.82 32.8881 119.88 32.7896C119.921 32.7253 119.964 32.6639 120.008 32.6011C119.878 32.3712 119.754 32.1727 119.695 32.0856L119.667 32.047C119.541 31.9128 119.406 31.7869 119.264 31.67C119.115 31.6474 118.967 31.616 118.821 31.5758C117.94 31.3343 117.163 30.8096 116.609 30.0827C116.055 29.3558 115.756 28.4669 115.757 27.5531C115.756 27.5489 115.756 27.5445 115.757 27.5403C115.757 26.8858 115.913 26.2408 116.211 25.6581C116.271 25.5411 116.335 25.4282 116.405 25.3183C116.34 25.2977 116.276 25.2719 116.215 25.2412C116.111 25.1898 116.02 25.115 115.95 25.0227C115.892 24.9404 115.854 24.8454 115.84 24.7457C115.816 24.5103 115.851 24.2726 115.943 24.0545C115.982 23.9495 116.026 23.8465 116.075 23.7461C116.079 23.7402 116.083 23.734 116.085 23.7275C116.724 22.4423 118.085 21.6526 119.444 21.5969C120.911 21.5384 122.339 22.2267 123.495 23.212C123.84 23.4952 124.149 23.8199 124.415 24.1787C125.019 25.0184 125.292 26.0923 125.372 27.1561C125.402 27.4852 125.396 27.8165 125.355 28.1443C125.339 28.2611 125.316 28.3766 125.283 28.4899C125.265 28.557 125.24 28.6241 125.215 28.6912C125.189 28.7583 125.173 28.7883 125.15 28.834V28.8412C125.129 28.8869 125.105 28.9297 125.08 28.9725L125.068 28.9911L125.049 29.0211C125.06 29.0482 125.073 29.0768 125.086 29.1039C125.099 29.131 125.11 29.1568 125.125 29.1825H125.142C125.427 29.2053 125.692 29.2453 125.983 29.2681C126.12 29.2746 126.256 29.2957 126.388 29.331C126.674 29.4166 126.89 29.6251 127.13 29.7936C127.724 30.2135 128.455 30.4091 129.039 30.8432C129.896 31.483 130.324 32.5397 130.844 33.4865C131.529 34.7545 132.646 35.8341 133.139 37.1907C133.361 37.8066 133.585 38.4216 133.81 39.0357C134.248 40.2395 134.687 41.449 135.282 42.5842C136.11 44.1636 137.231 45.583 137.895 47.2424C137.961 47.4087 138.085 47.5456 138.244 47.6279C139.149 48.9056 139.953 50.2515 140.65 51.6535C141.017 52.3946 141.364 53.1643 141.471 53.9854C141.555 54.7165 141.494 55.4568 141.293 56.1645C141.179 56.585 141.039 56.998 140.874 57.4012C140.81 57.5424 140.762 57.6904 140.731 57.8424C140.731 57.8581 140.731 57.8738 140.731 57.8896C140.703 58.1637 140.807 58.4351 140.836 58.7092C140.859 58.9299 140.835 59.1532 140.763 59.3633C140.751 59.3961 140.738 59.4289 140.726 59.4618C140.637 59.6288 140.562 59.8026 140.501 59.9816C140.496 60.0032 140.492 60.0251 140.49 60.0473C140.443 60.3571 140.566 60.6699 140.633 60.9798C140.884 62.0993 140.838 63.2646 140.776 64.407C140.743 64.9782 141.204 65.4365 141.59 65.8578C142.304 66.6475 142.862 67.5714 143.4 68.491C143.694 68.9579 143.941 69.4525 144.139 69.9676C144.343 70.5559 144.424 71.1785 144.537 71.7883C144.901 73.6733 146.091 75.3383 146.413 77.2275C146.563 78.0927 146.945 78.9011 147.517 79.5666C147.69 79.7449 147.849 79.9358 147.993 80.1378C148.092 80.2988 148.171 80.4715 148.228 80.6519C148.369 81.0718 148.435 81.513 148.424 81.9556C148.401 82.1675 148.413 82.3817 148.46 82.5897C148.594 83.0281 149.074 83.2694 149.272 83.6821C149.471 84.0948 149.334 84.6232 149.415 85.0915C149.479 85.4692 149.683 85.8088 149.986 86.0426C149.872 86.1425 149.752 86.2339 149.629 86.3282C149.743 86.4165 149.843 86.5214 149.925 86.6395C149.981 86.7186 150.029 86.8033 150.068 86.8922C150.256 87.3306 150.262 87.8519 150.416 88.3203C150.482 88.5145 150.575 88.7201 150.517 88.9172C150.493 88.9736 150.477 89.0332 150.469 89.0942C150.469 89.2228 150.603 89.307 150.655 89.4241C150.673 89.483 150.676 89.5457 150.663 89.6061C150.65 89.6664 150.622 89.7223 150.58 89.7682V89.7682Z" fill="url(#paint0_linear)"/>
<path d="M120.358 34.0763C121.232 33.8407 122.011 33.3481 122.773 32.8611L125.431 31.1689C124.709 31.1118 124.087 30.5977 123.717 29.9751C123.347 29.3525 123.194 28.6285 123.069 27.9174C121.926 28.3629 120.937 29.1183 120.014 29.9166C119.649 30.2322 118.872 30.7091 118.759 31.2018C118.646 31.6944 119.366 32.0943 119.644 32.4241C119.74 32.5341 120.641 33.9978 120.358 34.0763Z" fill="#FBBEBE"/>
<path opacity="0.1" d="M120.358 34.0763C121.232 33.8407 122.011 33.3481 122.773 32.8611L125.431 31.1689C124.709 31.1118 124.087 30.5977 123.717 29.9751C123.347 29.3525 123.194 28.6285 123.069 27.9174C121.926 28.3629 120.937 29.1183 120.014 29.9166C119.649 30.2322 118.872 30.7091 118.759 31.2018C118.646 31.6944 119.366 32.0943 119.644 32.4241C119.74 32.5341 120.641 33.9978 120.358 34.0763Z" fill="black"/>
<path d="M105.836 48.0541C105.367 48.294 104.869 48.5396 104.345 48.5053C103.874 48.4753 103.444 48.2197 103.09 47.907C102.804 47.6585 102.51 47.3487 102.134 47.3744C101.883 47.3915 101.672 47.5614 101.477 47.7228L100.442 48.5896C100.268 48.7067 100.136 48.877 100.067 49.0751C100.046 49.2095 100.054 49.3468 100.091 49.4778C100.138 49.7091 100.217 49.979 100.439 50.0575C100.662 50.1361 100.905 49.9676 101.14 49.9033C101.284 49.8665 101.436 49.8692 101.578 49.9112C101.721 49.9532 101.849 50.0328 101.95 50.1418C102.034 50.2245 102.085 50.3353 102.093 50.4531C102.093 50.7115 101.807 50.8815 101.545 50.8943C101.282 50.9072 101.031 50.8215 100.771 50.8372C100.755 50.8352 100.739 50.8364 100.724 50.8407C100.709 50.8449 100.694 50.8522 100.682 50.862C100.67 50.8719 100.659 50.8841 100.652 50.898C100.644 50.9119 100.639 50.9271 100.638 50.9429C100.622 51.0331 100.629 51.1259 100.658 51.2127C100.687 51.2996 100.738 51.3777 100.805 51.4398C100.941 51.5636 101.099 51.6606 101.27 51.7254C101.47 51.8242 101.686 51.887 101.907 51.911C102.346 51.9396 102.748 51.6968 103.164 51.5555C103.724 51.367 104.326 51.3613 104.918 51.3627C105.509 51.3641 106.109 51.3727 106.675 51.207C107.242 51.0414 107.781 50.6744 108.002 50.1275C108.028 50.0765 108.037 50.0182 108.026 49.9619C108.004 49.9017 107.962 49.8512 107.906 49.8191C107.11 49.2293 106.787 48.5125 105.89 48.0884L105.836 48.0541Z" fill="#FBBEBE"/>
<path opacity="0.1" d="M105.836 48.0541C105.367 48.294 104.869 48.5396 104.345 48.5053C103.874 48.4753 103.444 48.2197 103.09 47.907C102.804 47.6585 102.51 47.3487 102.134 47.3744C101.883 47.3915 101.672 47.5614 101.477 47.7228L100.442 48.5896C100.268 48.7067 100.136 48.877 100.067 49.0751C100.046 49.2095 100.054 49.3468 100.091 49.4778C100.138 49.7091 100.217 49.979 100.439 50.0575C100.662 50.1361 100.905 49.9676 101.14 49.9033C101.284 49.8665 101.436 49.8692 101.578 49.9112C101.721 49.9532 101.849 50.0328 101.95 50.1418C102.034 50.2245 102.085 50.3353 102.093 50.4531C102.093 50.7115 101.807 50.8815 101.545 50.8943C101.282 50.9072 101.031 50.8215 100.771 50.8372C100.755 50.8352 100.739 50.8364 100.724 50.8407C100.709 50.8449 100.694 50.8522 100.682 50.862C100.67 50.8719 100.659 50.8841 100.652 50.898C100.644 50.9119 100.639 50.9271 100.638 50.9429C100.622 51.0331 100.629 51.1259 100.658 51.2127C100.687 51.2996 100.738 51.3777 100.805 51.4398C100.941 51.5636 101.099 51.6606 101.27 51.7254C101.47 51.8242 101.686 51.887 101.907 51.911C102.346 51.9396 102.748 51.6968 103.164 51.5555C103.724 51.367 104.326 51.3613 104.918 51.3627C105.509 51.3641 106.109 51.3727 106.675 51.207C107.242 51.0414 107.781 50.6744 108.002 50.1275C108.028 50.0765 108.037 50.0182 108.026 49.9619C108.004 49.9017 107.962 49.8512 107.906 49.8191C107.11 49.2293 106.787 48.5125 105.89 48.0884L105.836 48.0541Z" fill="black"/>
<path d="M122.557 32.8239C122.336 32.6809 122.084 32.5907 121.823 32.5603C121.561 32.5298 121.295 32.5599 121.047 32.6483C120.549 32.8275 120.103 33.125 119.746 33.5151C119.389 33.8785 119.081 34.2859 118.828 34.7275C118.585 35.1559 118.399 35.6043 118.156 36.0312C117.728 36.7952 117.168 37.4692 116.606 38.1375C116.256 38.5531 115.902 38.9744 115.453 39.2799C115.005 39.5855 114.504 39.7726 114.199 40.1967C114.104 40.331 114.035 40.4823 113.941 40.618C113.642 41.055 113.136 41.2891 112.694 41.5819C111.429 42.4244 110.642 43.8267 109.46 44.782C108.95 45.1933 108.375 45.516 107.873 45.9359C107.406 46.3257 107.017 46.7927 106.551 47.1925C106.085 47.5924 105.539 47.9222 104.932 47.9593C105.337 48.8633 105.821 49.7501 106.517 50.4541C107.212 51.1581 108.255 51.6079 109.204 51.3323C109.541 51.2352 109.871 51.0296 110 50.704C110.04 50.5366 110.096 50.3736 110.168 50.217C110.264 50.0914 110.387 49.9901 110.529 49.9214C114.341 47.6962 117.975 45.1787 121.398 42.3916C122.316 41.6433 123.227 40.9736 124.17 40.2496C124.508 40.0099 124.82 39.7362 125.102 39.4327C125.495 38.9634 125.741 38.3882 125.808 37.7797C125.875 37.1712 125.761 36.5564 125.479 36.0127C125.226 35.5967 124.937 35.2043 124.614 34.8403C124.026 34.0752 123.334 33.3965 122.557 32.8239V32.8239Z" fill="#A7001E"/>
<path opacity="0.1" d="M122.557 32.8239C122.336 32.6809 122.084 32.5907 121.823 32.5603C121.561 32.5298 121.295 32.5599 121.047 32.6483C120.549 32.8275 120.103 33.125 119.746 33.5151C119.389 33.8785 119.081 34.2859 118.828 34.7275C118.585 35.1559 118.399 35.6043 118.156 36.0312C117.728 36.7952 117.168 37.4692 116.606 38.1375C116.256 38.5531 115.902 38.9744 115.453 39.2799C115.005 39.5855 114.504 39.7726 114.199 40.1967C114.104 40.331 114.035 40.4823 113.941 40.618C113.642 41.055 113.136 41.2891 112.694 41.5819C111.429 42.4244 110.642 43.8267 109.46 44.782C108.95 45.1933 108.375 45.516 107.873 45.9359C107.406 46.3257 107.017 46.7927 106.551 47.1925C106.085 47.5924 105.539 47.9222 104.932 47.9593C105.337 48.8633 105.821 49.7501 106.517 50.4541C107.212 51.1581 108.255 51.6079 109.204 51.3323C109.541 51.2352 109.871 51.0296 110 50.704C110.04 50.5366 110.096 50.3736 110.168 50.217C110.264 50.0914 110.387 49.9901 110.529 49.9214C114.341 47.6962 117.975 45.1787 121.398 42.3916C122.316 41.6433 123.227 40.9736 124.17 40.2496C124.508 40.0099 124.82 39.7362 125.102 39.4327C125.495 38.9634 125.741 38.3882 125.808 37.7797C125.875 37.1712 125.761 36.5564 125.479 36.0127C125.226 35.5967 124.937 35.2043 124.614 34.8403C124.026 34.0752 123.334 33.3965 122.557 32.8239V32.8239Z" fill="black"/>
<path d="M116.422 85.7988C116.172 85.9416 115.865 86.0215 115.689 86.2529C115.632 86.3271 115.593 86.4142 115.532 86.4856C115.342 86.7084 115.005 86.7184 114.741 86.8455C114.53 86.9454 114.358 87.1311 114.134 87.1896C114 87.2215 113.862 87.2321 113.724 87.221L112.336 87.1796C111.896 87.1668 111.381 87.1896 111.125 87.5481C111.042 87.6794 110.983 87.8244 110.951 87.9765C110.844 88.3863 110.757 88.8504 110.981 89.2103C111.249 89.6387 111.838 89.7258 112.345 89.7543C114.303 89.8627 116.267 89.8245 118.22 89.6401C118.484 89.6063 118.75 89.5953 119.016 89.6072C119.228 89.6244 119.435 89.6715 119.643 89.7072C120.696 89.8857 121.772 89.7815 122.835 89.6758C123.014 89.6671 123.191 89.6295 123.359 89.5644C123.442 89.5304 123.516 89.4766 123.574 89.4077C123.632 89.3388 123.672 89.2568 123.692 89.1688C123.736 88.8747 123.46 88.6248 123.43 88.3292C123.409 88.1207 123.509 87.8879 123.395 87.7109C123.352 87.6587 123.304 87.6108 123.252 87.5681C123.06 87.3696 123.005 87.0797 122.958 86.8084L122.708 85.3418C122.701 85.2384 122.658 85.1406 122.588 85.0648C122.535 85.0269 122.475 85.002 122.411 84.9919C121.323 84.7463 120.207 84.9705 119.126 85.1076C118.57 85.1891 118.007 85.2174 117.446 85.1919C117.203 85.1761 117.109 85.1476 116.927 85.3061C116.746 85.4646 116.649 85.6659 116.422 85.7988Z" fill="#3F3D56"/>
<path d="M142.699 87.564C142.508 87.6707 142.304 87.751 142.091 87.8025C141.53 87.9662 140.971 88.1371 140.412 88.3151C140.263 88.3519 140.124 88.419 140.002 88.5122C139.808 88.6835 139.758 88.9634 139.744 89.2262C139.725 89.3709 139.742 89.518 139.794 89.6546C139.86 89.7826 139.959 89.8917 140.079 89.9716C140.719 90.4557 141.554 90.6056 142.357 90.6056C143.159 90.6056 143.956 90.47 144.759 90.4485C145.728 90.4228 146.724 90.5599 147.656 90.2886C147.834 90.2228 148.019 90.1778 148.207 90.1544C148.332 90.1525 148.457 90.1606 148.581 90.1787C149.081 90.2281 149.586 90.182 150.069 90.043C150.215 90.0108 150.35 89.9436 150.463 89.8474C150.52 89.7987 150.56 89.7342 150.579 89.6624C150.597 89.5905 150.594 89.5146 150.569 89.4447C150.518 89.329 150.386 89.2447 150.385 89.1176C150.392 89.0566 150.408 88.9969 150.432 88.9406C150.491 88.7449 150.396 88.5407 150.331 88.348C150.146 87.7967 150.176 87.1627 149.847 86.6843C149.517 86.206 148.911 86.0089 148.336 85.9332C147.868 85.8671 147.392 85.8807 146.929 85.9732C146.408 86.0846 145.921 86.3173 145.41 86.4658C144.817 86.6365 144.197 86.6951 143.582 86.6386C143.174 86.6044 143.314 86.6686 143.175 87.0113C143.077 87.2399 142.911 87.4328 142.699 87.564V87.564Z" fill="#3F3D56"/>
<path d="M119.881 32.096C122.168 32.096 124.022 30.2419 124.022 27.9548C124.022 25.6677 122.168 23.8136 119.881 23.8136C117.593 23.8136 115.739 25.6677 115.739 27.9548C115.739 30.2419 117.593 32.096 119.881 32.096Z" fill="#FBBEBE"/>
<path d="M149.902 86.0826C148.617 87.1865 146.882 87.6691 145.19 87.6863C144.476 87.6934 143.735 87.6163 143.126 87.2465C143.083 87.0123 143.066 86.7595 143.023 86.5253C142.285 86.3711 141.713 85.7699 141.356 85.1045C140.999 84.439 140.817 83.6993 140.552 82.9939C140.146 81.92 139.552 80.9304 138.958 79.9479C138.412 79.0426 137.866 78.1344 137.244 77.279C136.833 76.7078 136.388 76.1709 135.981 75.6011C134.828 74.0151 134 72.2164 133.546 70.3089C133.476 69.9431 133.378 69.5835 133.25 69.2336C133.005 68.6367 132.555 68.1512 132.208 67.6071C131.834 67.02 131.577 66.3658 131.452 65.6808C131.382 65.2924 131.262 64.8725 130.873 64.8325C130.053 66.4248 129.218 68.0427 127.978 69.3379C127.783 69.5249 127.605 69.7284 127.445 69.9462C127.317 70.1577 127.203 70.3771 127.103 70.6031C126.91 71.0083 126.655 71.3805 126.346 71.7055C126.087 71.9827 125.745 72.1689 125.372 72.2367C125.647 73.6088 125.483 75.0328 124.904 76.3065C124.731 76.6835 124.524 77.0434 124.361 77.4247C123.696 78.9955 123.85 80.7676 123.78 82.4712C123.774 82.8282 123.732 83.1837 123.654 83.5322C123.481 84.2291 123.124 84.9702 123.297 85.6671C121.506 86.3511 119.517 86.3083 117.621 86.0198C117.25 85.9859 116.89 85.8765 116.563 85.6985C116.294 85.5081 116.059 85.2734 115.869 85.0045C115.795 84.9261 115.741 84.8318 115.71 84.7289C115.636 84.4033 115.996 84.1577 116.163 83.8721C116.33 83.5865 116.36 83.1338 116.13 82.8996C116.244 81.0304 116.761 79.2054 116.875 77.3304C116.921 76.5878 116.903 75.8424 116.937 75.0984C116.971 74.3545 117.051 73.6305 117.134 72.8993C117.322 71.23 117.779 69.5935 117.715 67.9156C117.695 67.3992 117.814 66.8869 118.059 66.4319C118.266 66.0861 118.5 65.7576 118.759 65.4494C119.636 64.317 120.69 63.1818 121.002 61.7838C121.164 61.0626 121.521 60.4029 121.875 59.7546C122.085 59.3676 122.303 58.972 122.637 58.6878C122.819 58.5621 122.988 58.4186 123.141 58.2594C123.376 57.9581 123.384 57.5454 123.523 57.1856C123.594 56.9999 123.704 56.8286 123.757 56.6372C123.8 56.4258 123.822 56.2105 123.821 55.9946C123.867 55.3035 124.132 54.6352 124.412 54.0026C123.754 53.6215 123.173 53.1207 122.699 52.526C122.539 52.3329 122.401 52.1238 122.285 51.902C121.99 51.3222 121.923 50.661 121.785 50.0256C121.455 48.509 120.697 47.0825 120.591 45.5331C120.56 45.0604 120.591 44.572 120.427 44.1251C120.351 43.9359 120.262 43.7522 120.161 43.5753C120.062 43.4015 119.986 43.2152 119.936 43.0212C119.844 42.6 119.97 42.1644 119.936 41.736C119.901 41.3576 119.74 41.0035 119.66 40.6336C119.578 40.1524 119.564 39.6621 119.619 39.1771C119.654 38.6059 119.779 38.0161 119.73 37.452C119.651 36.5187 119.77 35.5792 120.079 34.6949C120.388 33.8106 120.879 33.0013 121.522 32.3198L121.555 32.2869C121.828 32.0013 122.126 31.7486 122.372 31.4459C122.706 31.0403 122.943 30.5634 123.296 30.1692C123.45 29.9936 123.624 29.8365 123.777 29.6594C123.917 29.4737 124.072 29.2998 124.241 29.1396C124.326 29.0604 124.43 29.0032 124.542 28.9731C124.655 28.943 124.773 28.9408 124.886 28.9668C124.915 29.1798 124.982 29.3859 125.084 29.5752C125.381 29.598 125.645 29.6394 125.94 29.6623C126.077 29.6688 126.213 29.6899 126.346 29.7251C126.624 29.8094 126.847 30.0107 127.086 30.1835C127.68 30.6019 128.409 30.7961 128.993 31.2274C129.85 31.8628 130.279 32.9124 130.796 33.8535C131.48 35.1144 132.595 36.1868 133.08 37.5349L133.75 39.3684C134.188 40.5651 134.627 41.766 135.221 42.8941C136.048 44.4649 137.167 45.8801 137.831 47.5237C137.898 47.6886 138.021 47.8243 138.178 47.9064C139.082 49.1745 139.886 50.5114 140.582 51.9048C140.949 52.6417 141.296 53.4071 141.401 54.2225C141.557 55.3749 141.243 56.5401 140.806 57.6168C140.735 57.771 140.687 57.9345 140.663 58.1024C140.634 58.3751 140.739 58.6436 140.767 58.9163C140.795 59.171 140.757 59.4286 140.657 59.6646C140.568 59.8305 140.493 60.0034 140.433 60.1815C140.356 60.51 140.493 60.8441 140.567 61.1726C140.819 62.285 140.773 63.4374 140.71 64.5769C140.677 65.1481 141.138 65.6008 141.523 66.0192C142.237 66.8032 142.794 67.72 143.332 68.6353C143.625 69.0996 143.871 69.5912 144.069 70.1033C144.273 70.6873 144.354 71.3057 144.467 71.9126C144.83 73.7847 146.018 75.4397 146.341 77.3176C146.49 78.1778 146.871 78.9811 147.443 79.6409C147.615 79.8194 147.774 80.0103 147.919 80.2121C148.017 80.3723 148.096 80.544 148.153 80.7233C148.293 81.1403 148.359 81.5787 148.348 82.0185C148.326 82.229 148.338 82.4417 148.384 82.6483C148.518 83.0838 148.998 83.3237 149.195 83.7336C149.392 84.1434 149.257 84.6689 149.338 85.1344C149.4 85.5104 149.601 85.8492 149.902 86.0826V86.0826Z" fill="#A7001E"/>
<path d="M106.693 46.7686C106.225 47.0085 105.726 47.2541 105.202 47.2198C104.731 47.1898 104.301 46.9342 103.947 46.6215C103.662 46.373 103.367 46.0631 102.992 46.0888C102.74 46.106 102.529 46.2759 102.335 46.4373L101.3 47.3041C101.125 47.4212 100.994 47.5915 100.924 47.7896C100.904 47.924 100.912 48.0613 100.948 48.1923C100.995 48.4236 101.074 48.6935 101.297 48.7721C101.52 48.8506 101.762 48.6821 101.998 48.6178C102.142 48.5811 102.293 48.5838 102.436 48.6258C102.578 48.6677 102.707 48.7474 102.808 48.8563C102.892 48.9391 102.943 49.0499 102.95 49.1676C102.95 49.4261 102.665 49.596 102.402 49.6089C102.139 49.6217 101.888 49.5361 101.628 49.5518C101.612 49.5498 101.596 49.551 101.581 49.5552C101.566 49.5595 101.552 49.5668 101.539 49.5766C101.527 49.5865 101.517 49.5987 101.509 49.6126C101.502 49.6264 101.497 49.6417 101.495 49.6574C101.479 49.7476 101.486 49.8405 101.515 49.9273C101.544 50.0142 101.595 50.0923 101.662 50.1544C101.798 50.2782 101.956 50.3752 102.128 50.44C102.328 50.5388 102.543 50.6016 102.765 50.6256C103.203 50.6542 103.606 50.4114 104.021 50.2701C104.581 50.0816 105.184 50.0758 105.775 50.0773C106.366 50.0787 106.966 50.0873 107.533 49.9216C108.1 49.756 108.638 49.389 108.859 48.842C108.886 48.791 108.894 48.7328 108.884 48.6764C108.862 48.6162 108.819 48.5657 108.764 48.5336C107.967 47.9438 107.644 47.227 106.747 46.8028L106.693 46.7686Z" fill="#FBBEBE"/>
<path d="M117.865 25.41C117.618 25.45 117.408 25.6171 117.174 25.7099C117.016 25.7709 116.848 25.7979 116.68 25.7891C116.511 25.7802 116.347 25.7357 116.197 25.6585C116.092 25.6077 116.001 25.5334 115.93 25.4414C115.739 25.1758 115.806 24.7902 115.923 24.4789C116.477 23.0067 117.956 22.0956 119.421 22.0371C120.886 21.9785 122.312 22.6625 123.467 23.6407C123.81 23.923 124.119 24.2456 124.385 24.6017C124.988 25.4371 125.26 26.5038 125.34 27.5606C125.388 28.004 125.359 28.4524 125.253 28.8858C125.203 29.0963 125.11 29.2946 124.981 29.4685C124.852 29.6425 124.689 29.7886 124.502 29.8982C124.094 30.1067 123.604 30.041 123.191 29.8411C122.779 29.6412 122.424 29.3256 122.07 29.0243C121.91 28.8696 121.72 28.7487 121.512 28.6687C121.408 28.6317 121.296 28.6256 121.189 28.6509C121.082 28.6762 120.984 28.732 120.908 28.8115C120.717 29.0414 120.765 29.4184 120.591 29.6683C120.417 29.9182 120.054 29.9539 119.748 29.9539C119.443 29.9539 119.133 29.9282 118.95 29.6854C118.783 29.4655 118.807 29.1442 118.87 28.8672C118.933 28.5902 119.04 28.316 119.013 28.0318C118.954 27.4606 118.455 27.1093 118.299 26.5838C118.198 26.2397 118.42 26.094 118.397 25.7827C118.38 25.5085 118.086 25.3743 117.865 25.41Z" fill="#3F3D56"/>
<path opacity="0.1" d="M130.876 64.797V64.8327C130.056 66.4249 129.221 68.0429 127.982 69.3381C127.787 69.5251 127.609 69.7286 127.449 69.9464C127.321 70.1579 127.206 70.3773 127.106 70.6033C126.914 71.0085 126.658 71.3806 126.349 71.7057L125.315 72.2226L128.6 55.0866L130.876 64.797Z" fill="black"/>
<path opacity="0.1" d="M126.103 38.8619C125.821 39.1653 125.509 39.439 125.171 39.6787C124.228 40.3927 123.314 41.0667 122.399 41.8207C121.661 42.4214 120.913 43.0097 120.154 43.5857C120.055 43.4119 119.979 43.2256 119.928 43.0316C119.837 42.6104 119.963 42.1748 119.928 41.7464C119.894 41.368 119.733 41.0139 119.653 40.644C119.571 40.1628 119.557 39.6726 119.611 39.1875C119.647 38.6163 119.771 38.0265 119.723 37.4625C119.644 36.5268 119.763 35.5851 120.074 34.6989C120.384 33.8128 120.878 33.0022 121.524 32.3202L121.556 32.2874C121.71 32.198 121.873 32.1253 122.042 32.0703C122.291 31.983 122.557 31.9541 122.819 31.9858C123.081 32.0175 123.332 32.109 123.553 32.2531C124.329 32.8257 125.021 33.5044 125.609 34.2695C125.932 34.6335 126.222 35.0259 126.474 35.4418C126.757 35.985 126.872 36.5995 126.806 37.208C126.74 37.8165 126.495 38.3919 126.103 38.8619V38.8619Z" fill="black"/>
<path d="M123.415 31.5388C123.193 31.3958 122.942 31.3056 122.68 31.2751C122.418 31.2447 122.153 31.2748 121.904 31.3631C121.407 31.5423 120.96 31.8398 120.603 32.2299C120.247 32.5934 119.938 33.0008 119.685 33.4423C119.442 33.8707 119.257 34.3191 119.014 34.7461C118.585 35.5101 118.026 36.1841 117.463 36.8524C117.113 37.2679 116.759 37.6892 116.311 37.9948C115.862 38.3004 115.361 38.4874 115.057 38.9116C114.961 39.0458 114.893 39.1972 114.798 39.3328C114.5 39.7698 113.993 40.004 113.552 40.2967C112.286 41.1393 111.5 42.5416 110.317 43.4969C109.807 43.9082 109.232 44.2309 108.731 44.6507C108.264 45.0406 107.874 45.5075 107.408 45.9074C106.943 46.3072 106.396 46.6371 105.789 46.6742C106.195 47.5781 106.679 48.4649 107.374 49.1689C108.07 49.8729 109.112 50.3227 110.062 50.0471C110.399 49.95 110.729 49.7444 110.857 49.4188C110.897 49.2515 110.954 49.0884 111.026 48.9319C111.121 48.8062 111.245 48.7049 111.387 48.6363C115.199 46.4111 118.833 43.8936 122.255 41.1064C123.174 40.3581 124.085 39.6884 125.027 38.9644C125.365 38.7247 125.677 38.451 125.96 38.1476C126.353 37.6782 126.598 37.1031 126.665 36.4946C126.732 35.886 126.618 35.2712 126.337 34.7275C126.084 34.3116 125.794 33.9192 125.471 33.5551C124.884 32.7901 124.191 32.1113 123.415 31.5388V31.5388Z" fill="#A7001E"/>
<g opacity="0.1">
<path opacity="0.1" d="M120.033 29.3783C119.748 29.3783 119.418 29.3526 119.235 29.1098C119.07 28.8899 119.092 28.5686 119.155 28.2916C119.218 28.0145 119.325 27.7404 119.298 27.4562C119.239 26.885 118.74 26.5337 118.584 26.0082C118.483 25.664 118.705 25.5184 118.683 25.2071C118.663 24.9372 118.37 24.803 118.148 24.8387C117.901 24.8786 117.692 25.0457 117.457 25.1385C117.3 25.1996 117.132 25.2266 116.963 25.2177C116.795 25.2089 116.63 25.1644 116.481 25.0871C116.376 25.0363 116.285 24.962 116.214 24.8701C116.022 24.6045 116.089 24.2189 116.206 23.9076C116.206 23.8962 116.216 23.8862 116.221 23.8748C116.101 24.0658 116.001 24.2681 115.921 24.4788C115.804 24.7901 115.737 25.1757 115.928 25.4413C115.999 25.5332 116.09 25.6075 116.195 25.6583C116.345 25.7356 116.509 25.7801 116.678 25.7889C116.846 25.7978 117.015 25.7708 117.172 25.7097C117.406 25.6169 117.616 25.4498 117.863 25.4099C118.084 25.3742 118.377 25.5084 118.397 25.7783C118.42 26.0896 118.197 26.2352 118.298 26.5794C118.451 27.1049 118.951 27.4619 119.012 28.0274C119.041 28.313 118.937 28.5872 118.87 28.8628C118.802 29.1384 118.784 29.4611 118.95 29.681C119.132 29.9238 119.459 29.9466 119.748 29.9495C120.036 29.9523 120.408 29.9323 120.59 29.6639C120.669 29.529 120.721 29.3801 120.743 29.2255C120.549 29.364 120.278 29.3811 120.033 29.3783Z" fill="black"/>
<path opacity="0.1" d="M124.786 29.327C124.378 29.5354 123.888 29.4698 123.476 29.2698C123.063 29.0699 122.709 28.7543 122.355 28.453C122.194 28.2983 122.004 28.1774 121.796 28.0975C121.692 28.0605 121.58 28.0543 121.473 28.0797C121.366 28.105 121.268 28.1608 121.192 28.2403C121.095 28.3836 121.034 28.5482 121.014 28.7201C121.088 28.6763 121.171 28.649 121.256 28.6398C121.342 28.6307 121.429 28.6401 121.511 28.6672C121.719 28.7472 121.909 28.8681 122.069 29.0228C122.423 29.3241 122.783 29.6411 123.19 29.8396C123.597 30.0381 124.092 30.1052 124.501 29.8967C124.862 29.6853 125.125 29.34 125.233 28.9357C125.116 29.0984 124.963 29.2322 124.786 29.327V29.327Z" fill="black"/>
</g>
<path d="M89.2499 90.7156C91.6159 90.7156 93.5339 88.7976 93.5339 86.4316C93.5339 84.0656 91.6159 82.1476 89.2499 82.1476C86.8839 82.1476 84.9658 84.0656 84.9658 86.4316C84.9658 88.7976 86.8839 90.7156 89.2499 90.7156Z" fill="#3F3D56"/>
<path opacity="0.1" d="M89.2499 90.7156C91.6159 90.7156 93.5339 88.7976 93.5339 86.4316C93.5339 84.0656 91.6159 82.1476 89.2499 82.1476C86.8839 82.1476 84.9658 84.0656 84.9658 86.4316C84.9658 88.7976 86.8839 90.7156 89.2499 90.7156Z" fill="black"/>
<path d="M89.2503 89.1447C90.7488 89.1447 91.9635 87.9299 91.9635 86.4315C91.9635 84.933 90.7488 83.7183 89.2503 83.7183C87.7519 83.7183 86.5371 84.933 86.5371 86.4315C86.5371 87.9299 87.7519 89.1447 89.2503 89.1447Z" fill="#65617D"/>
<path opacity="0.1" d="M89.2503 89.1447C90.7488 89.1447 91.9635 87.9299 91.9635 86.4315C91.9635 84.933 90.7488 83.7183 89.2503 83.7183C87.7519 83.7183 86.5371 84.933 86.5371 86.4315C86.5371 87.9299 87.7519 89.1447 89.2503 89.1447Z" fill="black"/>
<path d="M85.9648 79.7198L88.7751 86.0745C88.817 86.1697 88.8852 86.251 88.9717 86.3088C89.0583 86.3666 89.1595 86.3984 89.2636 86.4005C89.3676 86.4026 89.47 86.3749 89.5588 86.3207C89.6476 86.2665 89.7191 86.188 89.7647 86.0945L93.1048 79.2914L85.9648 79.7198Z" fill="#3F3D56"/>
<path opacity="0.1" d="M85.9648 79.7198L88.7751 86.0745C88.817 86.1697 88.8852 86.251 88.9717 86.3088C89.0583 86.3666 89.1595 86.3984 89.2636 86.4005C89.3676 86.4026 89.47 86.3749 89.5588 86.3207C89.6476 86.2665 89.7191 86.188 89.7647 86.0945L93.1048 79.2914L85.9648 79.7198Z" fill="black"/>
<path d="M62.5457 90.7156C64.9117 90.7156 66.8297 88.7976 66.8297 86.4316C66.8297 84.0656 64.9117 82.1476 62.5457 82.1476C60.1797 82.1476 58.2617 84.0656 58.2617 86.4316C58.2617 88.7976 60.1797 90.7156 62.5457 90.7156Z" fill="#3F3D56"/>
<path opacity="0.1" d="M62.5457 90.7156C64.9117 90.7156 66.8297 88.7976 66.8297 86.4316C66.8297 84.0656 64.9117 82.1476 62.5457 82.1476C60.1797 82.1476 58.2617 84.0656 58.2617 86.4316C58.2617 88.7976 60.1797 90.7156 62.5457 90.7156Z" fill="black"/>
<path d="M62.5462 89.1447C64.0447 89.1447 65.2594 87.9299 65.2594 86.4315C65.2594 84.933 64.0447 83.7183 62.5462 83.7183C61.0477 83.7183 59.833 84.933 59.833 86.4315C59.833 87.9299 61.0477 89.1447 62.5462 89.1447Z" fill="#65617D"/>
<path opacity="0.1" d="M62.5462 89.1447C64.0447 89.1447 65.2594 87.9299 65.2594 86.4315C65.2594 84.933 64.0447 83.7183 62.5462 83.7183C61.0477 83.7183 59.833 84.933 59.833 86.4315C59.833 87.9299 61.0477 89.1447 62.5462 89.1447Z" fill="black"/>
<path d="M59.2617 79.7198L62.072 86.0745C62.1139 86.1697 62.1821 86.251 62.2686 86.3088C62.3552 86.3666 62.4564 86.3984 62.5604 86.4005C62.6645 86.4026 62.7669 86.3749 62.8557 86.3207C62.9445 86.2665 63.016 86.188 63.0616 86.0945L66.4017 79.2914L59.2617 79.7198Z" fill="#3F3D56"/>
<path opacity="0.1" d="M59.2617 79.7198L62.072 86.0745C62.1139 86.1697 62.1821 86.251 62.2686 86.3088C62.3552 86.3666 62.4564 86.3984 62.5604 86.4005C62.6645 86.4026 62.7669 86.3749 62.8557 86.3207C62.9445 86.2665 63.016 86.188 63.0616 86.0945L66.4017 79.2914L59.2617 79.7198Z" fill="black"/>
<path d="M103.153 49.1247C103.141 49.0165 103.103 48.913 103.04 48.8237C102.978 48.7344 102.895 48.6621 102.797 48.6135C102.715 48.5785 102.627 48.5605 102.538 48.5603C102.449 48.5601 102.361 48.5779 102.279 48.6126C102.197 48.6472 102.122 48.698 102.06 48.762C101.998 48.8259 101.95 48.9017 101.918 48.9848L99.4601 55.0866L98.7461 82.5042H99.8885L100.317 55.1451L103.093 49.5388C103.156 49.4105 103.177 49.2656 103.153 49.1247V49.1247Z" fill="#3F3D56"/>
<path d="M52.6211 80.3625L56.4767 77.9349L98.1029 77.5779L99.1739 80.3625H52.6211Z" fill="#A7001E"/>
<path d="M52.6211 82.9325V80.3621L99.9279 79.9051L99.8822 81.6473H53.4779V82.9325H52.6211Z" fill="#3F3D56"/>
<path d="M58.6199 92.2148C60.9859 92.2148 62.9039 90.2967 62.9039 87.9307C62.9039 85.5647 60.9859 83.6467 58.6199 83.6467C56.2539 83.6467 54.3359 85.5647 54.3359 87.9307C54.3359 90.2967 56.2539 92.2148 58.6199 92.2148Z" fill="#3F3D56"/>
<path d="M58.6195 90.6439C60.1179 90.6439 61.3327 89.4291 61.3327 87.9307C61.3327 86.4322 60.1179 85.2175 58.6195 85.2175C57.121 85.2175 55.9062 86.4322 55.9062 87.9307C55.9062 89.4291 57.121 90.6439 58.6195 90.6439Z" fill="#65617D"/>
<path d="M55.3359 81.2194L58.1462 87.5739C58.1881 87.6692 58.2563 87.7505 58.3428 87.8083C58.4294 87.866 58.5306 87.8978 58.6347 87.8999C58.7387 87.902 58.8411 87.8744 58.9299 87.8201C59.0187 87.7659 59.0902 87.6874 59.1358 87.5939L62.4759 80.791L55.3359 81.2194Z" fill="#3F3D56"/>
<path d="M91.8924 92.2148C94.2584 92.2148 96.1764 90.2967 96.1764 87.9307C96.1764 85.5647 94.2584 83.6467 91.8924 83.6467C89.5264 83.6467 87.6084 85.5647 87.6084 87.9307C87.6084 90.2967 89.5264 92.2148 91.8924 92.2148Z" fill="#3F3D56"/>
<path d="M91.8919 90.6439C93.3904 90.6439 94.6052 89.4291 94.6052 87.9307C94.6052 86.4322 93.3904 85.2175 91.8919 85.2175C90.3935 85.2175 89.1787 86.4322 89.1787 87.9307C89.1787 89.4291 90.3935 90.6439 91.8919 90.6439Z" fill="#65617D"/>
<path d="M88.6074 81.2194L91.4177 87.5739C91.4596 87.6692 91.5278 87.7505 91.6143 87.8083C91.7009 87.866 91.8021 87.8978 91.9061 87.8999C92.0102 87.902 92.1126 87.8744 92.2014 87.8201C92.2902 87.7659 92.3617 87.6874 92.4073 87.5939L95.7474 80.791L88.6074 81.2194Z" fill="#3F3D56"/>
<path d="M75.8275 69.1527H57.9775V79.006H75.8275V69.1527Z" fill="#65617D"/>
<path opacity="0.1" d="M69.6871 70.8663H64.2607V72.0087H69.6871V70.8663Z" fill="black"/>
<path opacity="0.1" d="M69.0083 71.0092H64.9385V71.866H69.0083V71.0092Z" fill="black"/>
<path d="M93.9623 69.1527H76.1123V79.006H93.9623V69.1527Z" fill="#65617D"/>
<path opacity="0.1" d="M87.8219 70.8663H82.3955V72.0087H87.8219V70.8663Z" fill="black"/>
<path opacity="0.1" d="M87.1431 71.0092H83.0732V71.866H87.1431V71.0092Z" fill="black"/>
<path d="M75.8275 59.0137H57.9775V68.867H75.8275V59.0137Z" fill="#65617D"/>
<path opacity="0.1" d="M69.6871 60.7275H64.2607V61.87H69.6871V60.7275Z" fill="black"/>
<path opacity="0.1" d="M69.0083 60.8701H64.9385V61.7269H69.0083V60.8701Z" fill="black"/>
<path d="M93.9623 59.0137H76.1123V68.867H93.9623V59.0137Z" fill="#65617D"/>
<path opacity="0.1" d="M87.8219 60.7275H82.3955V61.87H87.8219V60.7275Z" fill="black"/>
<path opacity="0.1" d="M87.1431 60.8701H83.0732V61.7269H87.1431V60.8701Z" fill="black"/>
<path d="M75.8275 48.7322H57.9775V58.5854H75.8275V48.7322Z" fill="#65617D"/>
<path opacity="0.1" d="M69.6871 50.4459H64.2607V51.5883H69.6871V50.4459Z" fill="black"/>
<path opacity="0.1" d="M69.0083 50.5885H64.9385V51.4453H69.0083V50.5885Z" fill="black"/>
<path d="M93.9623 48.7322H76.1123V58.5854H93.9623V48.7322Z" fill="#65617D"/>
<path opacity="0.1" d="M87.8219 50.4459H82.3955V51.5883H87.8219V50.4459Z" fill="black"/>
<path opacity="0.1" d="M87.1431 50.5885H83.0732V51.4453H87.1431V50.5885Z" fill="black"/>
<path d="M93.9623 38.4506H76.1123V48.3038H93.9623V38.4506Z" fill="#65617D"/>
<path opacity="0.1" d="M87.8219 40.1641H82.3955V41.3064H87.8219V40.1641Z" fill="black"/>
<path opacity="0.1" d="M87.1431 40.3068H83.0732V41.1637H87.1431V40.3068Z" fill="black"/>
</g>
<defs>
<linearGradient id="paint0_linear" x1="125.355" y1="90.5922" x2="125.355" y2="21.5998" gradientUnits="userSpaceOnUse">
<stop stop-color="#808080" stop-opacity="0.25"/>
<stop offset="0.54" stop-color="#808080" stop-opacity="0.12"/>
<stop offset="1" stop-color="#808080" stop-opacity="0.1"/>
</linearGradient>
<clipPath id="clip0">
<rect width="163.363" height="93" fill="white"/>
</clipPath>
</defs>
</svg>
