<svg width="566" height="376" viewBox="0 0 566 376" fill="none" xmlns="http://www.w3.org/2000/svg">
<path d="M565 187.797C565 256.39 509.395 311.996 440.802 311.996C372.209 311.996 316.604 256.39 316.604 187.797C316.604 119.205 372.209 63.5991 440.802 63.5991C509.395 63.5991 565 119.205 565 187.797Z" stroke="#A7001E" stroke-width="2"/>
<path fill-rule="evenodd" clip-rule="evenodd" d="M444.548 209.491L440.735 212.82L436.922 209.491C423.305 197.601 416.39 187.079 416.39 177.301C416.39 163.464 427.183 152.956 440.735 152.956C454.287 152.956 465.08 163.464 465.08 177.301C465.08 187.079 458.165 197.601 444.548 209.491ZM418.774 197.485C420.202 199.44 421.793 201.429 423.545 203.452C417.069 204.911 412.912 206.981 412.912 208.603C412.912 211.409 425.36 215.559 440.735 215.559C456.11 215.559 468.558 211.409 468.558 208.603C468.558 206.981 464.401 204.911 457.925 203.452C459.677 201.429 461.268 199.44 462.696 197.485C470.517 199.859 475.514 203.665 475.514 208.603C475.514 217.321 459.934 222.514 440.735 222.514C421.536 222.514 405.956 217.321 405.956 208.603C405.956 203.665 410.953 199.859 418.774 197.485ZM440.735 159.912C450.486 159.912 458.125 167.348 458.125 177.301C458.125 184.421 452.465 193.181 440.735 203.581C429.005 193.181 423.345 184.421 423.345 177.301C423.345 167.348 430.984 159.912 440.735 159.912ZM440.735 166.868C446.497 166.868 451.169 171.539 451.169 177.301C451.169 183.064 446.497 187.735 440.735 187.735C434.973 187.735 430.301 183.064 430.301 177.301C430.301 171.539 434.973 166.868 440.735 166.868ZM437.257 177.301C437.257 175.381 438.814 173.824 440.735 173.824C442.656 173.824 444.213 175.381 444.213 177.301C444.213 179.222 442.656 180.779 440.735 180.779C438.814 180.779 437.257 179.222 437.257 177.301Z" fill="white"/>
<path opacity="0.4" fill-rule="evenodd" clip-rule="evenodd" d="M187.797 375.595C291.515 375.595 375.595 291.515 375.595 187.797C375.595 84.0797 291.515 0 187.797 0C84.0797 0 0 84.0797 0 187.797C0 291.515 84.0797 375.595 187.797 375.595Z" fill="#A7001E"/>
<path fill-rule="evenodd" clip-rule="evenodd" d="M195.398 229.04L188.25 235.282L181.102 229.04C155.57 206.747 142.604 187.019 142.604 168.687C142.604 142.744 162.841 123.042 188.25 123.042C213.658 123.042 233.896 142.744 233.896 168.687C233.896 187.019 220.93 206.747 195.398 229.04ZM147.074 206.53C149.752 210.196 152.734 213.925 156.021 217.717C143.877 220.452 136.083 224.334 136.083 227.375C136.083 232.637 159.422 240.417 188.25 240.417C217.078 240.417 240.417 232.637 240.417 227.375C240.417 224.334 232.623 220.452 220.479 217.717C223.766 213.925 226.748 210.196 229.425 206.53C244.09 210.98 253.458 218.118 253.458 227.375C253.458 243.721 224.247 253.458 188.25 253.458C152.253 253.458 123.042 243.721 123.042 227.375C123.042 218.118 132.41 210.98 147.074 206.53ZM188.25 136.083C206.533 136.083 220.854 150.026 220.854 168.687C220.854 182.035 210.243 198.461 188.25 217.959C166.257 198.461 155.646 182.035 155.646 168.687C155.646 150.026 169.967 136.083 188.25 136.083ZM188.25 149.125C199.054 149.125 207.812 157.883 207.812 168.687C207.812 179.491 199.054 188.25 188.25 188.25C177.446 188.25 168.687 179.491 168.687 168.687C168.687 157.883 177.446 149.125 188.25 149.125ZM181.729 168.687C181.729 165.086 184.649 162.167 188.25 162.167C191.851 162.167 194.771 165.086 194.771 168.687C194.771 172.289 191.851 175.208 188.25 175.208C184.649 175.208 181.729 172.289 181.729 168.687Z" fill="white"/>
</svg>
