<svg width="600" height="557" viewBox="0 0 600 557" fill="none" xmlns="http://www.w3.org/2000/svg">
<path fill-rule="evenodd" clip-rule="evenodd" d="M537.5 31.25C530.87 31.25 524.511 33.8839 519.822 38.5723C515.134 43.2607 512.5 49.6196 512.5 56.25C512.5 65.9314 518.799 75.3258 525.706 82.6164C529.096 86.1943 532.496 89.1233 535.052 91.1589C536.003 91.9165 536.834 92.5475 537.5 93.0393C538.166 92.5475 538.997 91.9165 539.948 91.1589C542.504 89.1233 545.904 86.1943 549.294 82.6164C556.201 75.3258 562.5 65.9314 562.5 56.25C562.5 49.6196 559.866 43.2607 555.178 38.5723C550.489 33.8839 544.13 31.25 537.5 31.25ZM537.5 96.875C535.767 99.4752 535.766 99.4746 535.765 99.474L535.756 99.4681L535.735 99.4541L535.663 99.4056C535.603 99.3643 535.516 99.305 535.405 99.2281C535.183 99.0744 534.864 98.8504 534.462 98.56C533.658 97.9794 532.52 97.1319 531.159 96.0481C528.442 93.8845 524.811 90.7588 521.169 86.9148C514.013 79.3617 506.25 68.4436 506.25 56.25C506.25 47.962 509.542 40.0134 515.403 34.1529C521.263 28.2924 529.212 25 537.5 25C545.788 25 553.737 28.2924 559.597 34.1529C565.458 40.0134 568.75 47.962 568.75 56.25C568.75 68.4436 560.987 79.3617 553.831 86.9148C550.189 90.7588 546.558 93.8845 543.841 96.0481C542.48 97.1319 541.342 97.9794 540.538 98.56C540.136 98.8504 539.817 99.0744 539.595 99.2281C539.484 99.305 539.397 99.3643 539.337 99.4056L539.265 99.4541L539.244 99.4681L539.237 99.4725C539.237 99.4731 539.233 99.4752 537.5 96.875ZM537.5 96.875L539.233 99.4752C538.184 100.175 536.815 100.174 535.765 99.474L537.5 96.875Z" fill="#A7001E"/>
<path fill-rule="evenodd" clip-rule="evenodd" d="M537.5 50C534.048 50 531.25 52.7982 531.25 56.25C531.25 59.7018 534.048 62.5 537.5 62.5C540.952 62.5 543.75 59.7018 543.75 56.25C543.75 52.7982 540.952 50 537.5 50ZM525 56.25C525 49.3464 530.596 43.75 537.5 43.75C544.404 43.75 550 49.3464 550 56.25C550 63.1536 544.404 68.75 537.5 68.75C530.596 68.75 525 63.1536 525 56.25Z" fill="#A7001E"/>
<path fill-rule="evenodd" clip-rule="evenodd" d="M462.5 388.25C455.87 388.25 449.511 390.884 444.822 395.572C440.134 400.261 437.5 406.62 437.5 413.25C437.5 422.931 443.799 432.326 450.706 439.616C454.096 443.194 457.496 446.123 460.052 448.159C461.003 448.916 461.834 449.547 462.5 450.039C463.166 449.547 463.997 448.916 464.948 448.159C467.504 446.123 470.904 443.194 474.294 439.616C481.201 432.326 487.5 422.931 487.5 413.25C487.5 406.62 484.866 400.261 480.178 395.572C475.489 390.884 469.13 388.25 462.5 388.25ZM462.5 453.875C460.767 456.475 460.766 456.475 460.765 456.474L460.756 456.468L460.735 456.454L460.663 456.406C460.603 456.364 460.516 456.305 460.405 456.228C460.183 456.074 459.864 455.85 459.462 455.56C458.658 454.979 457.52 454.132 456.159 453.048C453.442 450.884 449.811 447.759 446.169 443.915C439.013 436.362 431.25 425.444 431.25 413.25C431.25 404.962 434.542 397.013 440.403 391.153C446.263 385.292 454.212 382 462.5 382C470.788 382 478.737 385.292 484.597 391.153C490.458 397.013 493.75 404.962 493.75 413.25C493.75 425.444 485.987 436.362 478.831 443.915C475.189 447.759 471.558 450.884 468.841 453.048C467.48 454.132 466.342 454.979 465.538 455.56C465.136 455.85 464.817 456.074 464.595 456.228C464.484 456.305 464.397 456.364 464.337 456.406L464.265 456.454L464.244 456.468L464.237 456.472C464.237 456.473 464.233 456.475 462.5 453.875ZM462.5 453.875L464.233 456.475C463.184 457.175 461.815 457.174 460.765 456.474L462.5 453.875Z" fill="#A7001E"/>
<path fill-rule="evenodd" clip-rule="evenodd" d="M462.5 407C459.048 407 456.25 409.798 456.25 413.25C456.25 416.702 459.048 419.5 462.5 419.5C465.952 419.5 468.75 416.702 468.75 413.25C468.75 409.798 465.952 407 462.5 407ZM450 413.25C450 406.346 455.596 400.75 462.5 400.75C469.404 400.75 475 406.346 475 413.25C475 420.154 469.404 425.75 462.5 425.75C455.596 425.75 450 420.154 450 413.25Z" fill="#A7001E"/>
<path fill-rule="evenodd" clip-rule="evenodd" d="M62.5 463.25C55.8696 463.25 49.5107 465.884 44.8223 470.572C40.1339 475.261 37.5 481.62 37.5 488.25C37.5 497.931 43.7992 507.326 50.7061 514.616C54.0957 518.194 57.4958 521.123 60.0521 523.159C61.0035 523.916 61.8344 524.547 62.5 525.039C63.1655 524.547 63.9965 523.916 64.9479 523.159C67.5042 521.123 70.9043 518.194 74.2939 514.616C81.2008 507.326 87.5 497.931 87.5 488.25C87.5 481.62 84.8661 475.261 80.1777 470.572C75.4893 465.884 69.1304 463.25 62.5 463.25ZM62.5 528.875C60.7666 531.475 60.7658 531.475 60.7649 531.474L60.7559 531.468L60.7351 531.454L60.6635 531.406C60.6026 531.364 60.5159 531.305 60.4049 531.228C60.1829 531.074 59.8639 530.85 59.4618 530.56C58.658 529.979 57.5199 529.132 56.1588 528.048C53.4417 525.884 49.8106 522.759 46.1689 518.915C39.0133 511.362 31.25 500.444 31.25 488.25C31.25 479.962 34.5424 472.013 40.4029 466.153C46.2634 460.292 54.212 457 62.5 457C70.788 457 78.7366 460.292 84.5971 466.153C90.4576 472.013 93.75 479.962 93.75 488.25C93.75 500.444 85.9867 511.362 78.8311 518.915C75.1894 522.759 71.5583 525.884 68.8412 528.048C67.4801 529.132 66.342 529.979 65.5382 530.56C65.1361 530.85 64.8171 531.074 64.5951 531.228C64.4841 531.305 64.3974 531.364 64.3365 531.406L64.2649 531.454L64.2441 531.468L64.2375 531.472C64.2366 531.473 64.2334 531.475 62.5 528.875ZM62.5 528.875L64.2334 531.475C63.1838 532.175 61.8146 532.174 60.7649 531.474L62.5 528.875Z" fill="#A7001E"/>
<path fill-rule="evenodd" clip-rule="evenodd" d="M62.5 482C59.0482 482 56.25 484.798 56.25 488.25C56.25 491.702 59.0482 494.5 62.5 494.5C65.9518 494.5 68.75 491.702 68.75 488.25C68.75 484.798 65.9518 482 62.5 482ZM50 488.25C50 481.346 55.5964 475.75 62.5 475.75C69.4036 475.75 75 481.346 75 488.25C75 495.154 69.4036 500.75 62.5 500.75C55.5964 500.75 50 495.154 50 488.25Z" fill="#A7001E"/>
<path fill-rule="evenodd" clip-rule="evenodd" d="M137.5 106.25C130.87 106.25 124.511 108.884 119.822 113.572C115.134 118.261 112.5 124.62 112.5 131.25C112.5 140.931 118.799 150.326 125.706 157.616C129.096 161.194 132.496 164.123 135.052 166.159C136.003 166.916 136.834 167.547 137.5 168.039C138.166 167.547 138.997 166.916 139.948 166.159C142.504 164.123 145.904 161.194 149.294 157.616C156.201 150.326 162.5 140.931 162.5 131.25C162.5 124.62 159.866 118.261 155.178 113.572C150.489 108.884 144.13 106.25 137.5 106.25ZM137.5 171.875C135.767 174.475 135.766 174.475 135.765 174.474L135.756 174.468L135.735 174.454L135.663 174.406C135.603 174.364 135.516 174.305 135.405 174.228C135.183 174.074 134.864 173.85 134.462 173.56C133.658 172.979 132.52 172.132 131.159 171.048C128.442 168.884 124.811 165.759 121.169 161.915C114.013 154.362 106.25 143.444 106.25 131.25C106.25 122.962 109.542 115.013 115.403 109.153C121.263 103.292 129.212 100 137.5 100C145.788 100 153.737 103.292 159.597 109.153C165.458 115.013 168.75 122.962 168.75 131.25C168.75 143.444 160.987 154.362 153.831 161.915C150.189 165.759 146.558 168.884 143.841 171.048C142.48 172.132 141.342 172.979 140.538 173.56C140.136 173.85 139.817 174.074 139.595 174.228C139.484 174.305 139.397 174.364 139.337 174.406L139.265 174.454L139.244 174.468L139.237 174.472C139.237 174.473 139.233 174.475 137.5 171.875ZM137.5 171.875L139.233 174.475C138.184 175.175 136.815 175.174 135.765 174.474L137.5 171.875Z" fill="#A7001E"/>
<path fill-rule="evenodd" clip-rule="evenodd" d="M137.5 125C134.048 125 131.25 127.798 131.25 131.25C131.25 134.702 134.048 137.5 137.5 137.5C140.952 137.5 143.75 134.702 143.75 131.25C143.75 127.798 140.952 125 137.5 125ZM125 131.25C125 124.346 130.596 118.75 137.5 118.75C144.404 118.75 150 124.346 150 131.25C150 138.154 144.404 143.75 137.5 143.75C130.596 143.75 125 138.154 125 131.25Z" fill="#A7001E"/>
</svg>
