<svg width="600" height="557" viewBox="0 0 600 557" fill="none" xmlns="http://www.w3.org/2000/svg">
<path fill-rule="evenodd" clip-rule="evenodd" d="M123.977 464.833C117.789 464.833 111.854 467.292 107.478 471.668C103.102 476.043 100.644 481.978 100.644 488.167C100.644 497.203 106.523 505.971 112.97 512.775C116.133 516.115 119.307 518.848 121.693 520.748C122.58 521.455 123.356 522.044 123.977 522.503C124.598 522.044 125.374 521.455 126.262 520.748C128.648 518.848 131.821 516.115 134.985 512.775C141.431 505.971 147.311 497.203 147.311 488.167C147.311 481.978 144.852 476.043 140.476 471.668C136.101 467.292 130.166 464.833 123.977 464.833ZM123.977 526.083C122.359 528.51 122.359 528.51 122.358 528.509L122.349 528.504L122.33 528.49L122.263 528.445C122.206 528.407 122.125 528.351 122.022 528.28C121.815 528.136 121.517 527.927 121.142 527.656C120.391 527.114 119.329 526.323 118.059 525.312C115.523 523.292 112.134 520.375 108.735 516.787C102.056 509.738 94.8105 499.547 94.8105 488.167C94.8105 480.431 97.8835 473.013 103.353 467.543C108.823 462.073 116.242 459 123.977 459C131.713 459 139.131 462.073 144.601 467.543C150.071 473.013 153.144 480.431 153.144 488.167C153.144 499.547 145.898 509.738 139.22 516.787C135.821 520.375 132.432 523.292 129.896 525.312C128.625 526.323 127.563 527.114 126.813 527.656C126.438 527.927 126.14 528.136 125.933 528.28C125.829 528.351 125.748 528.407 125.691 528.445L125.624 528.49L125.605 528.504L125.599 528.508C125.598 528.508 125.595 528.51 123.977 526.083ZM123.977 526.083L125.595 528.51C124.615 529.163 123.337 529.162 122.358 528.509L123.977 526.083Z" fill="#A6001E"/>
<path fill-rule="evenodd" clip-rule="evenodd" d="M123.977 482.333C120.756 482.333 118.144 484.945 118.144 488.167C118.144 491.388 120.756 494 123.977 494C127.199 494 129.811 491.388 129.811 488.167C129.811 484.945 127.199 482.333 123.977 482.333ZM112.311 488.167C112.311 481.723 117.534 476.5 123.977 476.5C130.421 476.5 135.644 481.723 135.644 488.167C135.644 494.61 130.421 499.833 123.977 499.833C117.534 499.833 112.311 494.61 112.311 488.167Z" fill="#A6001E"/>
<path fill-rule="evenodd" clip-rule="evenodd" d="M177.984 33.1667C173.563 33.1667 169.324 34.9226 166.199 38.0482C163.073 41.1738 161.317 45.4131 161.317 49.8333C161.317 56.2876 165.517 62.5505 170.121 67.411C172.381 69.7962 174.648 71.7489 176.352 73.1059C176.986 73.611 177.54 74.0317 177.984 74.3595C178.427 74.0317 178.981 73.611 179.616 73.1059C181.32 71.7489 183.587 69.7962 185.846 67.411C190.451 62.5505 194.65 56.2876 194.65 49.8333C194.65 45.4131 192.894 41.1738 189.769 38.0482C186.643 34.9226 182.404 33.1667 177.984 33.1667ZM177.984 76.9167C176.828 78.6501 176.828 78.6498 176.827 78.6494L176.821 78.6454L176.807 78.6361L176.759 78.6038C176.719 78.5762 176.661 78.5366 176.587 78.4854C176.439 78.3829 176.226 78.2336 175.958 78.04C175.422 77.6529 174.664 77.088 173.756 76.3654C171.945 74.923 169.524 72.8392 167.096 70.2766C162.326 65.2411 157.15 57.9624 157.15 49.8333C157.15 44.308 159.345 39.009 163.252 35.1019C167.159 31.1949 172.458 29 177.984 29C183.509 29 188.808 31.1949 192.715 35.1019C196.622 39.0089 198.817 44.308 198.817 49.8333C198.817 57.9624 193.642 65.2411 188.871 70.2766C186.443 72.8392 184.023 74.923 182.211 76.3654C181.304 77.088 180.545 77.6529 180.009 78.04C179.741 78.2336 179.528 78.3829 179.38 78.4854C179.306 78.5366 179.249 78.5762 179.208 78.6038L179.16 78.6361L179.146 78.6454L179.142 78.6483C179.141 78.6487 179.139 78.6501 177.984 76.9167ZM177.984 76.9167L179.139 78.6501C178.44 79.1166 177.527 79.1159 176.827 78.6494L177.984 76.9167Z" fill="#A6001E"/>
<path fill-rule="evenodd" clip-rule="evenodd" d="M177.984 45.6667C175.683 45.6667 173.817 47.5321 173.817 49.8333C173.817 52.1345 175.683 54 177.984 54C180.285 54 182.15 52.1345 182.15 49.8333C182.15 47.5321 180.285 45.6667 177.984 45.6667ZM169.65 49.8333C169.65 45.231 173.381 41.5 177.984 41.5C182.586 41.5 186.317 45.231 186.317 49.8333C186.317 54.4357 182.586 58.1667 177.984 58.1667C173.381 58.1667 169.65 54.4357 169.65 49.8333Z" fill="#A6001E"/>
<path fill-rule="evenodd" clip-rule="evenodd" d="M476.98 307C471.676 307 466.589 309.107 462.838 312.858C459.088 316.609 456.98 321.696 456.98 327C456.98 334.745 462.02 342.261 467.545 348.093C470.257 350.955 472.977 353.299 475.022 354.927C475.783 355.533 476.448 356.038 476.98 356.431C477.513 356.038 478.178 355.533 478.939 354.927C480.984 353.299 483.704 350.955 486.416 348.093C491.941 342.261 496.98 334.745 496.98 327C496.98 321.696 494.873 316.609 491.123 312.858C487.372 309.107 482.285 307 476.98 307ZM476.98 359.5C475.594 361.58 475.593 361.58 475.592 361.579L475.585 361.574L475.569 361.563L475.511 361.525C475.463 361.491 475.393 361.444 475.304 361.382C475.127 361.26 474.872 361.08 474.55 360.848C473.907 360.384 472.996 359.706 471.908 358.839C469.734 357.108 466.829 354.607 463.916 351.532C458.191 345.489 451.98 336.755 451.98 327C451.98 320.37 454.614 314.011 459.303 309.322C463.991 304.634 470.35 302 476.98 302C483.611 302 489.97 304.634 494.658 309.322C499.347 314.011 501.98 320.37 501.98 327C501.98 336.755 495.77 345.489 490.045 351.532C487.132 354.607 484.227 357.108 482.053 358.839C480.965 359.706 480.054 360.384 479.411 360.848C479.089 361.08 478.834 361.26 478.657 361.382C478.568 361.444 478.498 361.491 478.45 361.525L478.392 361.563L478.376 361.574L478.37 361.578C478.37 361.578 478.367 361.58 476.98 359.5ZM476.98 359.5L478.367 361.58C477.527 362.14 476.432 362.139 475.592 361.579L476.98 359.5Z" fill="#A6001E"/>
<path fill-rule="evenodd" clip-rule="evenodd" d="M476.98 322C474.219 322 471.98 324.239 471.98 327C471.98 329.761 474.219 332 476.98 332C479.742 332 481.98 329.761 481.98 327C481.98 324.239 479.742 322 476.98 322ZM466.98 327C466.98 321.477 471.458 317 476.98 317C482.503 317 486.98 321.477 486.98 327C486.98 332.523 482.503 337 476.98 337C471.458 337 466.98 332.523 466.98 327Z" fill="#A6001E"/>
<line x1="205.024" y1="76.7855" x2="449.024" y2="299.786" stroke="#A7001E" stroke-width="6" stroke-dasharray="30 30"/>
<line x1="151.518" y1="526.391" x2="445.518" y2="359.391" stroke="#A7001E" stroke-width="6" stroke-dasharray="30 30"/>
</svg>
